<svg width="726" height="592" viewBox="0 0 726 592" fill="none" xmlns="http://www.w3.org/2000/svg">
<path d="M195.951 147C195.951 146 195.785 144.5 195.451 142.5C195.451 140.5 195.285 138.5 194.951 136.5C194.951 134.167 194.785 132 194.451 130C194.451 128 194.451 126.667 194.451 126C194.451 124.667 194.451 123.5 194.451 122.5C194.785 121.5 194.951 120.333 194.951 119C193.285 118.667 192.451 118.333 192.451 118C192.785 117.667 192.118 117.5 190.451 117.5L189.451 118.5C189.451 118.833 189.118 119 188.451 119C187.785 119 186.951 118.833 185.951 118.5C184.951 118.167 184.118 118 183.451 118C182.451 118 181.785 118.167 181.451 118.5L173.451 119C170.785 119 168.285 119.167 165.951 119.5C163.618 119.5 161.618 119.5 159.951 119.5C158.951 119.5 157.951 119.5 156.951 119.5C156.285 119.167 155.618 119 154.951 119V120C154.618 119.667 154.285 119.667 153.951 120C153.618 120 153.118 119.833 152.451 119.5V119C152.118 119.333 144.785 119.5 130.451 119.5C127.118 119.5 125.285 119.333 124.951 119V119.5C124.618 119.833 124.118 120 123.451 120C122.451 120 121.785 119.667 121.451 119C121.118 118.333 120.618 118 119.951 118L118.951 118.5C119.285 118.167 118.618 118.667 116.951 120C115.285 121.333 114.451 122.167 114.451 122.5L114.951 124.5L112.951 126V127.5L109.951 131.5C109.618 131.833 109.285 132.167 108.951 132.5C108.618 132.5 106.785 135 103.451 140C103.118 140.333 102.785 140.667 102.451 141C102.451 141.333 102.285 141.667 101.951 142V143C101.285 143.667 100.285 145.167 98.9512 147.5C97.6178 149.5 96.6178 150.5 95.9512 150.5V152C95.9512 152.333 95.2845 153.333 93.9512 155C92.9512 156.333 91.7845 157.833 90.4512 159.5C89.1178 160.833 87.9512 162.167 86.9512 163.5C85.9512 164.833 85.4512 165.5 85.4512 165.5L84.4512 168C84.1178 168.333 83.1178 169.5 81.4512 171.5C80.1178 173.5 78.1178 176.667 75.4512 181L73.9512 184.5C71.6178 189.5 69.4512 192.667 67.4512 194V195C67.1178 195.333 66.7845 195.5 66.4512 195.5V197C66.7845 197 65.7845 198.667 63.4512 202C61.1178 205.333 58.6178 209 55.9512 213C53.2845 217 50.7845 220.667 48.4512 224C46.1178 227.333 45.1178 229 45.4512 229V230L43.9512 231L36.9512 243C36.9512 243.333 36.6178 243.833 35.9512 244.5C31.2845 250.833 28.2845 254.833 26.9512 256.5C25.9512 257.833 25.4512 258.667 25.4512 259C25.4512 259 25.6178 259.167 25.9512 259.5H25.4512H25.9512C25.9512 259.833 25.4512 260.833 24.4512 262.5C23.7845 264.167 22.9512 265.833 21.9512 267.5C20.9512 269.167 19.9512 270.833 18.9512 272.5C17.9512 273.833 17.1178 274.5 16.4512 274.5V276C15.4512 276 14.6178 278.333 13.9512 283L12.9512 288.5L5.95117 300L6.45117 301.5H7.45117V309.5L11.4512 342V348.5C11.7845 348.833 11.9512 349.167 11.9512 349.5L12.4512 355.5L11.9512 357C11.9512 357.667 11.9512 358 11.9512 358C12.2845 358 12.4512 358.333 12.4512 359L11.9512 359.5C11.6178 359.833 11.4512 360.833 11.4512 362.5C11.4512 370.5 13.6178 374.5 17.9512 374.5C18.6178 374.5 19.4512 374.5 20.4512 374.5C21.4512 374.167 22.4512 374 23.4512 374L67.9512 373.5C68.2845 373.167 69.2845 373 70.9512 373C72.6178 373 73.6178 373.167 73.9512 373.5C74.6178 373.5 77.1178 373.5 81.4512 373.5C86.1178 373.5 92.6178 373.333 100.951 373V372.5L107.951 373.5H110.951C113.618 373.5 115.285 375.167 115.951 378.5C116.618 381.5 116.951 384.833 116.951 388.5V398.5H116.451C116.451 398.833 116.451 399.5 116.451 400.5C116.785 401.5 116.951 402.833 116.951 404.5C116.951 406.5 116.785 408.833 116.451 411.5C116.451 413.833 116.451 416.833 116.451 420.5H115.951L116.451 421C116.118 421.333 115.951 421.667 115.951 422V434.5L114.951 435.5C114.951 436.5 115.118 437.167 115.451 437.5H115.951L114.951 439V464L115.951 469.5C116.285 469.833 116.451 470.667 116.451 472C117.118 472 117.785 472 118.451 472C119.118 471.667 119.785 471.5 120.451 471.5H129.451C129.785 471.167 131.118 471 133.451 471C135.785 471 140.285 470.833 146.951 470.5H151.951C154.285 470.5 155.618 470.333 155.951 470H183.951V471L185.451 470C185.785 470.333 185.951 470.833 185.951 471.5C188.285 471.167 189.285 470.833 188.951 470.5C188.618 470.167 188.785 469.333 189.451 468H190.451C190.451 466.667 190.618 465.833 190.951 465.5L191.451 456C191.785 454.333 191.951 450.833 191.951 445.5C192.285 439.833 192.785 432.333 193.451 423C193.785 422 193.951 421.167 193.951 420.5C193.951 419.833 194.118 419.167 194.451 418.5L196.451 397V388.5C196.785 385.833 197.451 384 198.451 383C199.451 381.667 200.451 380.833 201.451 380.5C202.785 380.167 204.285 380.167 205.951 380.5C207.618 380.5 209.285 380.333 210.951 380L219.951 380.5C220.285 380.167 221.285 379.5 222.951 378.5C224.618 377.167 225.951 376.167 226.951 375.5C226.951 373.833 226.785 372.667 226.451 372C226.118 371.333 225.785 370.333 225.451 369C226.118 369 226.618 369.167 226.951 369.5V368.5H225.951V347C226.285 346.333 226.451 344.667 226.451 342C226.451 340.333 226.285 338.167 225.951 335.5C225.951 332.5 225.951 330.167 225.951 328.5C225.951 327.833 225.951 326 225.951 323C225.951 319.667 226.118 314.833 226.451 308.5C226.451 307.167 226.285 306.167 225.951 305.5C225.951 304.833 225.951 304 225.951 303C225.951 301.333 226.118 300.333 226.451 300C222.118 298.333 216.951 297.5 210.951 297.5C205.285 297.167 201.451 297 199.451 297V286C199.451 283.667 199.451 281.667 199.451 280C199.451 278 199.285 276.333 198.951 275C198.951 274.333 198.951 273.667 198.951 273C199.285 272 199.451 270.667 199.451 269C199.451 267.333 199.285 265.667 198.951 264C198.951 262 198.951 259.667 198.951 257L198.451 249.5V227.5C198.451 226.833 198.285 226.167 197.951 225.5C197.951 224.833 197.951 224.167 197.951 223.5L198.451 222.5C198.785 222.167 198.951 221 198.951 219C198.951 217.667 198.785 216.5 198.451 215.5C198.451 214.167 198.451 213.167 198.451 212.5L198.951 212C198.951 207.667 198.785 204.167 198.451 201.5C198.118 198.833 197.951 195.667 197.951 192L197.451 189.5H196.451V185.5L195.951 147ZM221.451 325.5C220.785 328.167 220.451 330.5 220.451 332.5V359.5C220.451 362.167 220.118 364.833 219.451 367.5L218.951 373C218.285 373 217.618 373 216.951 373C216.618 372.667 216.118 372.5 215.451 372.5L192.451 372C192.118 371.667 191.951 371.333 191.951 371C192.285 370.333 192.285 369.833 191.951 369.5L189.451 369C189.451 370 189.118 371 188.451 372C188.118 373 187.118 374.333 185.451 376V382.5C185.451 383.167 185.285 383.833 184.951 384.5C184.951 384.833 184.951 385.667 184.951 387C184.951 387.667 184.951 388.833 184.951 390.5C185.285 391.833 185.618 393.833 185.951 396.5V403.5H186.951L185.951 404V414.5L184.951 424C184.951 424.667 184.951 425.167 184.951 425.5C185.285 425.833 185.451 426.333 185.451 427H183.951L183.451 452C183.451 453.333 183.618 454.167 183.951 454.5H183.451C183.118 455.833 182.951 457.167 182.951 458.5C182.951 459.5 182.785 460.667 182.451 462L181.951 462.5C180.285 462.833 177.451 463 173.451 463H154.951V464C154.285 464 153.951 463.833 153.951 463.5L143.951 463H141.451C138.451 463 135.451 463.167 132.451 463.5C129.785 463.833 127.118 464 124.451 464C122.785 464 121.785 464 121.451 464C121.451 463.667 121.451 461.667 121.451 458V457C121.785 457 121.951 456.667 121.951 456C121.618 455.667 121.451 455.333 121.451 455L123.451 434C123.785 433 124.118 432.5 124.451 432.5H125.451V431V410.5C125.451 408.5 125.618 406.167 125.951 403.5C126.285 400.833 126.451 398.167 126.451 395.5C125.451 383.167 124.118 375.5 122.451 372.5L118.951 367.5L70.4512 367C69.7845 367 69.2845 367 68.9512 367C68.9512 366.667 68.6178 366.5 67.9512 366.5C67.6178 366.5 66.7845 366.5 65.4512 366.5C64.1178 366.167 61.9512 366 58.9512 366C57.2845 366 55.2845 366.167 52.9512 366.5C50.9512 366.5 48.6178 366.5 45.9512 366.5H41.9512L28.4512 366C26.7845 366 25.1178 366.167 23.4512 366.5C22.1178 366.5 20.6178 366.5 18.9512 366.5C18.9512 364.167 17.9512 348.667 15.9512 320H15.4512L15.9512 319V311C15.9512 309.667 16.1178 308.833 16.4512 308.5V302.5C17.7845 301.167 18.9512 300.333 19.9512 300L21.4512 295.5C22.4512 294.833 23.4512 293.833 24.4512 292.5C25.1178 291.167 25.7845 289.333 26.4512 287C27.1178 284.667 27.4512 281.667 27.4512 278C28.1178 278 28.7845 277.5 29.4512 276.5C30.1178 275.5 31.2845 273.833 32.9512 271.5C34.6178 268.833 36.7845 265.333 39.4512 261C42.4512 256.333 46.4512 250.5 51.4512 243.5C52.1178 240.833 52.9512 239.5 53.9512 239.5V238L54.9512 235.5C58.2845 230.5 60.7845 226.333 62.4512 223C64.4512 219.333 65.9512 217 66.9512 216L71.9512 207.5C72.2845 206.833 72.7845 206.167 73.4512 205.5C73.7845 205.167 73.9512 204.833 73.9512 204.5H74.9512C75.2845 203.5 75.6178 202.667 75.9512 202C76.2845 201.333 76.6178 200.667 76.9512 200L77.9512 199C78.6178 196 80.4512 192.333 83.4512 188C86.7845 183.333 89.4512 179.833 91.4512 177.5V176.5C92.4512 175.5 92.9512 174.667 92.9512 174H93.9512V173C95.2845 171 96.9512 168.5 98.9512 165.5C100.618 162.833 102.618 159.833 104.951 156.5C107.618 152.833 110.785 148.5 114.451 143.5C117.451 139.167 118.951 136.833 118.951 136.5C119.285 136.167 119.785 135.833 120.451 135.5V134.5L121.951 133.5L123.451 129H129.451H130.951C131.618 129 132.118 129 132.451 129C133.118 128.667 133.618 128.5 133.951 128.5V129L167.451 128C169.118 128 170.618 128 171.951 128C173.618 127.667 175.285 127.5 176.951 127.5C177.618 127.5 178.451 127.667 179.451 128C180.451 128 181.785 128.167 183.451 128.5L183.951 160.5C184.285 160.833 184.451 162 184.451 164C184.451 165.667 184.285 167.167 183.951 168.5C183.951 169.833 183.951 170.833 183.951 171.5L184.951 179.5V200.5L185.951 204V229H186.951L187.451 241.5C187.451 250.167 187.618 258.833 187.951 267.5C188.285 275.833 188.451 284.5 188.451 293.5C188.451 294.167 188.285 295.333 187.951 297C187.951 298.333 187.951 299.833 187.951 301.5C187.951 304.5 188.451 306.333 189.451 307C190.785 307.667 192.285 308 193.951 308V307C195.618 306.667 198.118 306.5 201.451 306.5C205.118 306.167 207.951 306 209.951 306C211.618 306 212.618 306.167 212.951 306.5C213.285 306.5 214.118 306.5 215.451 306.5C216.785 306.5 217.618 306.333 217.951 306L220.451 305.5V323H221.451V325.5ZM145.451 301V290.5H144.451L144.951 249.5C144.951 242.833 145.618 237.333 146.951 233L147.451 229C147.785 219.667 148.118 214.833 148.451 214.5C148.451 212.167 148.285 210.833 147.951 210.5L146.951 208C146.285 208 145.785 208.167 145.451 208.5C145.118 208.5 144.618 208.5 143.951 208.5C143.951 206.833 143.785 205.167 143.451 203.5C143.451 201.5 143.451 199.667 143.451 198C143.451 197.333 143.785 195.333 144.451 192C142.451 192.333 141.618 192.833 141.951 193.5C142.285 193.833 141.951 194.333 140.951 195H139.951L130.451 204C129.785 204.333 129.285 204.667 128.951 205C128.951 205 128.618 205.167 127.951 205.5V207C126.951 207 125.951 208.333 124.951 211C124.285 213.667 121.618 217 116.951 221V222C116.618 222.333 116.285 222.667 115.951 223C115.618 223 115.118 223.333 114.451 224V225.5C113.785 226.167 113.285 226.5 112.951 226.5V228C109.951 232.667 108.118 235.333 107.451 236C107.118 236.667 106.618 237.667 105.951 239H104.951C104.618 239.333 103.951 240.167 102.951 241.5C102.285 242.5 101.118 244.167 99.4512 246.5H98.4512L98.9512 247.5C98.9512 248.167 98.6178 248.833 97.9512 249.5C97.2845 250.167 96.7845 251 96.4512 252L84.4512 270.5C83.7845 271.167 83.1178 271.5 82.4512 271.5V273L80.9512 274V275C77.9512 283.667 76.1178 288.333 75.4512 289H74.4512C74.1178 289.667 73.6178 291.167 72.9512 293.5C72.2845 295.5 71.2845 298.167 69.9512 301.5L66.9512 304.5C66.9512 305.833 67.4512 306.667 68.4512 307V305.5H69.9512L70.4512 308.5C70.7845 308.5 71.1178 308.5 71.4512 308.5C71.7845 308.167 72.2845 308 72.9512 308L74.4512 309V308.5C80.1178 308.5 84.1178 308.5 86.4512 308.5C88.7845 308.167 91.2845 308 93.9512 308V307.5C100.618 307.167 105.785 307 109.451 307C113.118 306.667 115.285 306.5 115.951 306.5C117.951 306.5 119.285 306.667 119.951 307C123.618 307 127.785 306.833 132.451 306.5C137.451 306.167 140.785 305.167 142.451 303.5L142.951 302.5C142.951 301.833 142.785 301.5 142.451 301.5L142.951 300C143.285 300 143.785 300.333 144.451 301L146.451 301.5L145.451 301ZM133.451 291.5C133.785 291.833 133.951 292.333 133.951 293H133.451L132.451 300L128.451 300.5C127.785 300.5 126.285 300.667 123.951 301C121.951 301 119.618 301 116.951 301C116.618 300.667 115.118 300.5 112.451 300.5L108.451 301.5H99.9512H91.4512H81.9512C81.9512 301.167 81.9512 301 81.9512 301C82.2845 300.667 82.4512 300.333 82.4512 300C82.4512 299.667 82.6178 299.5 82.9512 299.5L85.4512 296C86.1178 296 86.6178 295.333 86.9512 294C87.6178 292.667 89.2845 290.667 91.9512 288L95.9512 276.5C96.6178 274.167 97.4512 272.167 98.4512 270.5C99.4512 268.5 100.285 267.333 100.951 267V266C100.951 265.667 101.285 265.5 101.951 265.5V264C102.618 263.667 102.951 263.5 102.951 263.5C103.285 263.167 103.785 262.833 104.451 262.5L101.951 261C102.285 260.667 102.618 260.5 102.951 260.5C103.285 260.167 103.618 259.833 103.951 259.5V258.5C104.618 257.833 105.118 257.5 105.451 257.5C105.785 257.167 106.118 256.833 106.451 256.5V255.5C108.118 252.833 109.451 250.833 110.451 249.5C111.451 248.167 112.118 247.333 112.451 247H113.451L114.451 244C115.118 244 115.618 243.833 115.951 243.5L116.951 240.5L122.451 235V233.5C123.451 233.5 123.951 232.833 123.951 231.5H124.451C124.785 231.167 125.285 230.333 125.951 229H126.951C127.618 226.667 128.785 224.667 130.451 223H130.951C130.951 227.667 130.785 232.167 130.451 236.5C130.451 240.833 130.451 245.333 130.451 250C131.451 254.333 132.285 258.667 132.951 263C133.618 267 133.951 271.333 133.951 276H133.451C133.785 276.333 133.951 276.833 133.951 277.5V287.5L133.451 291.5ZM198.451 192.5L197.951 194L197.451 192.5H198.451ZM474.326 244.5L473.826 229.5C473.826 227.5 473.66 225.5 473.326 223.5C472.993 221.167 472.66 219.5 472.326 218.5V214.5C471.993 213.167 471.16 210.667 469.826 207C468.826 203.333 467.66 199.667 466.326 196C464.993 192 463.66 188.667 462.326 186C461.326 183 460.826 181.5 460.826 181.5V179.5L456.826 173.5C456.493 172.833 456.16 172.333 455.826 172C455.826 171.333 455.66 170.667 455.326 170L454.326 169C451.993 166.333 450.16 163.667 448.826 161C447.493 158 446.493 155.667 445.826 154H444.826V152.5L432.826 142C432.493 141.667 432.16 141.333 431.826 141C431.826 140.667 431.66 140.333 431.326 140L428.326 139C427.66 138 424.493 136.5 418.826 134.5C415.16 133.167 412.493 132.167 410.826 131.5C409.493 130.833 408.493 130.333 407.826 130C407.16 129.333 406.493 128.833 405.826 128.5C405.493 128.167 404.493 127.667 402.826 127L383.326 121.5L373.326 121C369.326 121 365.826 121.5 362.826 122.5L346.826 123V124L338.826 124.5L324.326 128V129L321.826 130L318.826 131C318.16 131.667 315.326 133.167 310.326 135.5H309.326C308.993 135.5 308.826 135.833 308.826 136.5C305.826 137.167 304.16 138 303.826 139C303.826 140 303.326 140.5 302.326 140.5V142C301.66 142.667 300.826 143.333 299.826 144C299.16 144.667 298.493 145.333 297.826 146L293.326 150.5V151.5C292.66 152.167 291.993 152.833 291.326 153.5C290.66 153.833 290.16 154.167 289.826 154.5V156C289.493 156 288.993 156.333 288.326 157V158L283.326 163C278.326 169.667 275.826 173 275.826 173L274.826 175C273.826 175 273.493 175.5 273.826 176.5C274.16 177.167 272.826 179 269.826 182V183C268.826 186 267.16 189.833 264.826 194.5C262.493 198.833 261.493 201.167 261.826 201.5L258.826 211L257.826 218.5L256.826 223C256.826 223.333 256.493 225.167 255.826 228.5C255.493 231.5 254.993 235.833 254.326 241.5L253.326 249.5L252.326 255L251.326 259.5C250.993 261.167 250.826 262.833 250.826 264.5C250.826 266.167 250.826 267.833 250.826 269.5V278.5L246.826 300.5L247.826 320.5C248.16 322.167 248.326 323.667 248.326 325C248.326 326.333 248.326 327.667 248.326 329L247.826 330.5C248.16 330.5 248.326 330.833 248.326 331.5H247.826C247.826 332.167 247.66 332.667 247.326 333C247.326 333.333 247.326 333.667 247.326 334C247.326 337.333 247.993 339.667 249.326 341L249.826 359H250.826L251.326 364.5L252.326 371H253.326V372.5L254.326 379L260.826 396.5V398.5H261.826L262.326 400C262.326 400.667 262.326 401.167 262.326 401.5C262.66 401.5 262.826 401.833 262.826 402.5H263.326C263.66 402.833 265.16 406 267.826 412L268.326 413C268.326 415 268.993 416 270.326 416C271.66 415.667 272.326 417.167 272.326 420.5H272.826C273.493 421.167 273.66 421.667 273.326 422C273.326 422 273.993 422.667 275.326 424V425C275.993 425.667 276.826 426.167 277.826 426.5V428C278.493 428.667 278.993 429.167 279.326 429.5C279.993 429.5 281.493 431 283.826 434L288.826 439V440.5C289.16 440.833 289.493 441.167 289.826 441.5C290.16 441.5 290.493 441.667 290.826 442V443C293.493 445 295.993 447.5 298.326 450.5C300.993 453.167 303.826 455.333 306.826 457V458.5C307.826 458.5 308.826 459 309.826 460L331.826 467.5L336.326 468.5C336.326 468.833 337.493 469.167 339.826 469.5C342.493 469.833 345.326 470.167 348.326 470.5C351.326 470.833 354.16 471.167 356.826 471.5C359.826 471.5 361.66 471.5 362.326 471.5L369.826 472.5H371.826L390.826 468.5C391.16 468.167 391.493 468 391.826 468C392.16 468 392.493 467.833 392.826 467.5L403.326 462.5C406.326 460.833 408.66 459.833 410.326 459.5C411.993 458.833 412.993 458.167 413.326 457.5L427.326 451.5C427.66 451.5 427.993 451.5 428.326 451.5C428.66 451.167 428.993 451 429.326 451L430.326 450.5C431.993 448.167 433.326 446.333 434.326 445C435.66 443.333 436.826 441.833 437.826 440.5C439.16 439.167 440.493 437.833 441.826 436.5C443.16 435.167 444.993 433.333 447.326 431L448.326 427.5H449.326C449.326 427.167 449.16 426.833 448.826 426.5L456.826 410.5L458.326 407C458.993 406.333 459.326 405.833 459.326 405.5C459.326 405.167 459.66 404.667 460.326 404L467.826 379L468.826 374L471.326 361L472.326 354C472.326 352 472.493 349.833 472.826 347.5C473.16 344.833 473.66 342.5 474.326 340.5V336.5C474.993 334.167 475.493 331.667 475.826 329C476.493 326.333 477.16 323.667 477.826 321C477.826 319.667 477.66 318.5 477.326 317.5C477.326 316.167 477.326 314.667 477.326 313C478.326 309.667 478.826 306.167 478.826 302.5C478.826 299.833 478.66 298 478.326 297C477.993 295.667 477.826 294.333 477.826 293C478.16 293 478.326 292.833 478.326 292.5C478.326 291.5 478.493 290.667 478.826 290V280C478.826 278.333 478.66 276.833 478.326 275.5C478.326 274.167 478.326 272.667 478.326 271H477.826L474.326 244.5ZM466.826 290C466.493 294.333 465.826 299.333 464.826 305C464.16 310.333 463.326 315.833 462.326 321.5C461.326 327.167 460.493 332.833 459.826 338.5C459.16 343.833 458.826 348.667 458.826 353H458.326C457.993 356.333 457.493 358.5 456.826 359.5H456.326L450.826 383.5L449.326 384.5L442.326 402C441.66 402 441.16 402.833 440.826 404.5C440.493 405.833 440.326 406.333 440.326 406H439.326C439.326 407.333 438.993 408.167 438.326 408.5C437.66 408.5 437.326 409.167 437.326 410.5L436.326 413C435.993 413.333 435.66 413.5 435.326 413.5L427.826 427.5C426.493 427.5 425.993 428.167 426.326 429.5C426.66 430.5 426.16 431 424.826 431C425.16 431.333 425.326 431.667 425.326 432C424.993 432.333 424.66 432.667 424.326 433C423.993 433 423.66 433.167 423.326 433.5V434.5L415.326 445H414.326C411.66 447.667 409.493 449.5 407.826 450.5C406.16 451.5 404.826 452 403.826 452V452.5L399.326 455C398.66 455 397.826 455.167 396.826 455.5C395.826 455.833 395.326 456.333 395.326 457L379.826 461.5C378.16 461.833 376.326 462 374.326 462C372.326 462 370.493 462.167 368.826 462.5V463C368.16 463 367.493 463.167 366.826 463.5C366.16 463.5 365.493 463.5 364.826 463.5C362.493 463.5 360.16 463.5 357.826 463.5C355.493 463.167 353.993 462.833 353.326 462.5L333.826 457.5L332.826 456C327.493 454 323.66 452.5 321.326 451.5C319.326 450.167 317.993 449.333 317.326 449C316.993 448.333 316.826 448 316.826 448C317.16 448 316.993 448 316.326 448V447.5C315.993 447.167 315.493 446.833 314.826 446.5C314.16 446.167 313.326 445.833 312.326 445.5C311.66 444.833 310.826 444.167 309.826 443.5H308.826L308.326 442H307.326C305.66 441.333 303.493 439.5 300.826 436.5H299.326C298.993 436.167 298.66 435.833 298.326 435.5C298.326 435.167 298.16 434.833 297.826 434.5H296.826L286.826 424.5L286.326 423C285.66 422.667 285.326 422.333 285.326 422C285.326 421.333 284.993 421 284.326 421L279.826 413.5L278.326 413L276.826 408.5V409C276.493 409 275.16 407.167 272.826 403.5C270.493 399.833 269.326 396.667 269.326 394L268.326 393L267.326 390L265.326 385L260.326 368L259.326 358C259.326 353.667 259.16 351.333 258.826 351L258.326 348L257.326 336.5H256.326C255.326 326.5 254.826 320.5 254.826 318.5V317C257.16 299 258.66 289.167 259.326 287.5C258.993 286.833 258.826 285.333 258.826 283V277L260.826 245C260.826 243 260.66 241.667 260.326 241L264.826 216L265.826 211.5L266.826 208.5C266.826 206.833 267.16 205.667 267.826 205L268.826 202L272.326 195C272.326 194.667 272.326 194.333 272.326 194C272.66 193.667 272.826 193.333 272.826 193L273.326 191.5C277.66 184.5 280.826 179.167 282.826 175.5C285.16 171.833 286.826 169.167 287.826 167.5C288.826 165.5 289.326 164.333 289.326 164C289.66 163.667 289.993 163.333 290.326 163V162C290.66 161.667 290.993 161.5 291.326 161.5L293.326 157.5C295.993 155.5 297.326 154 297.326 153H298.826L299.826 151.5C302.493 150.833 304.16 150 304.826 149L305.326 148.5H304.326C303.326 148.5 302.826 148.167 302.826 147.5C303.16 146.833 309.326 143.333 321.326 137L323.326 136.5C323.66 136.5 323.993 136.667 324.326 137L349.326 132C349.993 131.333 351.66 131 354.326 131C355.326 131 356.326 131.167 357.326 131.5C358.326 131.5 359.16 131.5 359.826 131.5L372.326 132C372.993 132 373.993 131.833 375.326 131.5C376.66 131.167 377.993 131 379.326 131L407.326 137.5C407.326 138.5 407.66 139 408.326 139C408.993 139 409.66 139.167 410.326 139.5V140L428.826 152L429.826 154.5C430.493 154.833 430.826 155.167 430.826 155.5C431.16 155.5 431.66 155.667 432.326 156L432.826 158C433.16 158.333 433.326 159 433.326 160H434.326C436.993 164.667 438.66 167.5 439.326 168.5C439.993 169.5 440.66 170.333 441.326 171V172C441.993 172.667 442.493 173 442.826 173V174.5C443.493 174.5 444.16 174.833 444.826 175.5V176.5C445.16 176.833 445.493 177 445.826 177L454.326 197.5L455.326 202C455.326 204.333 455.66 206.333 456.326 208C457.326 209.333 458.326 210.833 459.326 212.5C460.326 214.167 461.16 216 461.826 218C462.826 220 463.326 222.667 463.326 226C463.326 227.333 463.16 228.667 462.826 230C462.826 231.333 462.826 232.5 462.826 233.5C462.826 235.5 463.326 236.5 464.326 236.5L464.826 239.5C464.493 239.833 464.326 240.333 464.326 241L466.326 253.5C466.326 255.5 466.493 256.5 466.826 256.5V264C467.16 264.667 467.326 266.667 467.326 270C467.66 273 467.826 275.667 467.826 278V280H467.326L466.826 290ZM405.826 280.5C405.826 273.833 405.493 267.5 404.826 261.5C404.493 255.5 404.16 249.167 403.826 242.5H403.326C403.66 242.167 403.826 241.667 403.826 241L402.826 229H401.826L401.326 226C401.326 224 401.16 222 400.826 220C400.826 217.667 400.826 215.5 400.826 213.5H399.826C399.826 211.833 399.493 211 398.826 211H397.826C397.493 211 396.66 210.167 395.326 208.5C394.326 206.833 392.993 205 391.326 203C389.993 201 388.826 199.167 387.826 197.5C386.826 195.833 386.326 195 386.326 195H385.326C384.993 194.667 384.493 194.333 383.826 194C383.16 193.333 381.993 192.333 380.326 191L377.326 190V189C376.326 189 375.66 189.167 375.326 189.5V188.5C374.326 188.833 372.326 189 369.326 189L361.326 190C347.993 195.667 341.16 198.5 340.826 198.5L339.326 199C339.326 199.667 339.16 200 338.826 200C335.826 202.333 333.16 204.667 330.826 207C328.493 209.333 327.326 213.667 327.326 220C325.66 221.667 324.826 224 324.826 227L323.826 250L321.826 263V290C321.826 290.667 321.993 291.167 322.326 291.5V306C323.326 307.667 323.826 310.667 323.826 315C323.826 317.333 323.493 319.5 322.826 321.5C322.493 323.5 322.326 327.167 322.326 332.5C322.326 333.5 322.326 334.333 322.326 335C322.66 335.667 322.826 336.333 322.826 337H324.326V356H325.326L325.826 358C326.493 365.667 327.993 373.333 330.326 381C332.993 388.333 337.16 393.833 342.826 397.5L343.826 398.5C345.493 399.5 347.493 400.333 349.826 401C352.16 401.333 354.493 401.833 356.826 402.5L359.826 403C360.16 402.667 360.493 402.5 360.826 402.5V403C361.493 403 362.16 403.167 362.826 403.5C363.826 403.5 364.66 403.5 365.326 403.5C368.66 403.5 371.16 403 372.826 402L375.326 401.5C376.66 400.833 378.493 400 380.826 399C383.493 398 384.826 397 384.826 396L393.326 389V388L396.826 384C397.826 383 398.326 382 398.326 381H398.826C399.16 380.667 399.326 379.833 399.326 378.5L402.326 370.5C402.326 367.5 402.493 365.833 402.826 365.5L403.826 359L405.826 338C405.826 336 405.66 334.167 405.326 332.5C405.326 330.5 405.326 328.667 405.326 327C405.66 326.667 405.826 325 405.826 322V313C405.826 309.333 405.993 307.167 406.326 306.5L406.826 297C406.826 295.333 406.66 293.833 406.326 292.5C406.326 290.833 406.16 289.167 405.826 287.5V280.5ZM397.826 319.5V328H397.326C397.326 330.667 397.326 333.833 397.326 337.5C397.66 340.833 397.826 343.833 397.826 346.5V354.5C397.826 358.5 397.66 361 397.326 362L393.326 374C392.993 374.333 392.826 375.5 392.826 377.5C390.16 382.167 388.16 384.5 386.826 384.5V385C386.493 385.333 385.993 385.667 385.326 386C384.993 386 384.826 386.333 384.826 387H383.326C383.326 387.667 383.16 388 382.826 388H381.826L381.326 389.5L358.826 393L356.826 392C353.493 391.333 350.16 390 346.826 388C343.826 386 342.326 383.833 342.326 381.5H341.826C341.16 379.833 340.493 378.333 339.826 377C339.16 375.667 338.493 374.167 337.826 372.5L337.326 369L336.326 362C336.326 361.333 336.16 361 335.826 361C335.826 360.667 335.826 360.167 335.826 359.5H335.326C335.326 357.833 335.16 356.167 334.826 354.5C334.826 352.833 334.826 351.167 334.826 349.5H334.326C333.993 347.833 333.826 346.333 333.826 345C333.826 343.333 333.826 341.667 333.826 340L333.326 322.5H332.326L331.826 308.5C330.16 302.5 329.326 296.5 329.326 290.5C329.326 285.5 329.826 281 330.826 277L329.826 275.5H330.326C330.66 275.167 330.826 272.667 330.826 268V267.5L330.326 268L330.826 267.5L331.326 251.5C331.326 250.833 332.826 243.167 335.826 228.5H336.826C336.826 226.5 336.66 225.333 336.326 225H337.326V222L338.326 219C338.993 218.333 339.493 217.5 339.826 216.5C340.16 215.5 340.66 214.833 341.326 214.5V213.5C344.326 210.5 347.326 208 350.326 206C353.326 204 357.16 203 361.826 203C367.826 203 372.493 203.833 375.826 205.5C379.493 206.833 382.326 208.5 384.326 210.5C386.326 212.167 387.66 213.833 388.326 215.5C389.326 216.833 390.16 217.5 390.826 217.5L391.326 219C391.66 220 391.826 221.167 391.826 222.5C391.826 223.5 391.993 224.5 392.326 225.5H392.826C392.826 228.167 392.993 230.833 393.326 233.5C393.66 235.833 393.826 238.333 393.826 241L394.826 255.5C396.16 259.167 396.826 263.5 396.826 268.5C397.16 273.5 397.326 278 397.326 282H397.826C397.493 282.333 397.326 282.667 397.326 283L397.826 295H398.826C398.493 295.333 398.326 295.667 398.326 296L397.826 297.5H398.826L398.326 302V319.5H397.826ZM686.674 147C686.674 146 686.507 144.5 686.174 142.5C686.174 140.5 686.007 138.5 685.674 136.5C685.674 134.167 685.507 132 685.174 130C685.174 128 685.174 126.667 685.174 126C685.174 124.667 685.174 123.5 685.174 122.5C685.507 121.5 685.674 120.333 685.674 119C684.007 118.667 683.174 118.333 683.174 118C683.507 117.667 682.841 117.5 681.174 117.5L680.174 118.5C680.174 118.833 679.841 119 679.174 119C678.507 119 677.674 118.833 676.674 118.5C675.674 118.167 674.841 118 674.174 118C673.174 118 672.507 118.167 672.174 118.5L664.174 119C661.507 119 659.007 119.167 656.674 119.5C654.341 119.5 652.34 119.5 650.674 119.5C649.674 119.5 648.674 119.5 647.674 119.5C647.007 119.167 646.341 119 645.674 119V120C645.341 119.667 645.007 119.667 644.674 120C644.341 120 643.841 119.833 643.174 119.5V119C642.84 119.333 635.507 119.5 621.174 119.5C617.84 119.5 616.007 119.333 615.674 119V119.5C615.341 119.833 614.84 120 614.174 120C613.174 120 612.507 119.667 612.174 119C611.841 118.333 611.34 118 610.674 118L609.674 118.5C610.007 118.167 609.34 118.667 607.674 120C606.007 121.333 605.174 122.167 605.174 122.5L605.674 124.5L603.674 126V127.5L600.674 131.5C600.34 131.833 600.007 132.167 599.674 132.5C599.34 132.5 597.507 135 594.174 140C593.841 140.333 593.507 140.667 593.174 141C593.174 141.333 593.007 141.667 592.674 142V143C592.007 143.667 591.007 145.167 589.674 147.5C588.34 149.5 587.34 150.5 586.674 150.5V152C586.674 152.333 586.007 153.333 584.674 155C583.674 156.333 582.507 157.833 581.174 159.5C579.841 160.833 578.674 162.167 577.674 163.5C576.674 164.833 576.174 165.5 576.174 165.5L575.174 168C574.841 168.333 573.84 169.5 572.174 171.5C570.84 173.5 568.84 176.667 566.174 181L564.674 184.5C562.34 189.5 560.174 192.667 558.174 194V195C557.84 195.333 557.507 195.5 557.174 195.5V197C557.507 197 556.507 198.667 554.174 202C551.84 205.333 549.34 209 546.674 213C544.007 217 541.507 220.667 539.174 224C536.84 227.333 535.84 229 536.174 229V230L534.674 231L527.674 243C527.674 243.333 527.34 243.833 526.674 244.5C522.007 250.833 519.007 254.833 517.674 256.5C516.674 257.833 516.174 258.667 516.174 259C516.174 259 516.34 259.167 516.674 259.5H516.174H516.674C516.674 259.833 516.174 260.833 515.174 262.5C514.507 264.167 513.674 265.833 512.674 267.5C511.674 269.167 510.674 270.833 509.674 272.5C508.674 273.833 507.84 274.5 507.174 274.5V276C506.174 276 505.34 278.333 504.674 283L503.674 288.5L496.674 300L497.174 301.5H498.174V309.5L502.174 342V348.5C502.507 348.833 502.674 349.167 502.674 349.5L503.174 355.5L502.674 357C502.674 357.667 502.674 358 502.674 358C503.007 358 503.174 358.333 503.174 359L502.674 359.5C502.34 359.833 502.174 360.833 502.174 362.5C502.174 370.5 504.34 374.5 508.674 374.5C509.34 374.5 510.174 374.5 511.174 374.5C512.174 374.167 513.174 374 514.174 374L558.674 373.5C559.007 373.167 560.007 373 561.674 373C563.34 373 564.34 373.167 564.674 373.5C565.34 373.5 567.84 373.5 572.174 373.5C576.84 373.5 583.341 373.333 591.674 373V372.5L598.674 373.5H601.674C604.341 373.5 606.007 375.167 606.674 378.5C607.34 381.5 607.674 384.833 607.674 388.5V398.5H607.174C607.174 398.833 607.174 399.5 607.174 400.5C607.507 401.5 607.674 402.833 607.674 404.5C607.674 406.5 607.507 408.833 607.174 411.5C607.174 413.833 607.174 416.833 607.174 420.5H606.674L607.174 421C606.84 421.333 606.674 421.667 606.674 422V434.5L605.674 435.5C605.674 436.5 605.841 437.167 606.174 437.5H606.674L605.674 439V464L606.674 469.5C607.007 469.833 607.174 470.667 607.174 472C607.841 472 608.507 472 609.174 472C609.84 471.667 610.507 471.5 611.174 471.5H620.174C620.507 471.167 621.84 471 624.174 471C626.507 471 631.007 470.833 637.674 470.5H642.674C645.007 470.5 646.34 470.333 646.674 470H674.674V471L676.174 470C676.507 470.333 676.674 470.833 676.674 471.5C679.007 471.167 680.007 470.833 679.674 470.5C679.341 470.167 679.507 469.333 680.174 468H681.174C681.174 466.667 681.341 465.833 681.674 465.5L682.174 456C682.507 454.333 682.674 450.833 682.674 445.5C683.007 439.833 683.507 432.333 684.174 423C684.507 422 684.674 421.167 684.674 420.5C684.674 419.833 684.841 419.167 685.174 418.5L687.174 397V388.5C687.507 385.833 688.174 384 689.174 383C690.174 381.667 691.174 380.833 692.174 380.5C693.507 380.167 695.007 380.167 696.674 380.5C698.34 380.5 700.007 380.333 701.674 380L710.674 380.5C711.007 380.167 712.007 379.5 713.674 378.5C715.341 377.167 716.674 376.167 717.674 375.5C717.674 373.833 717.507 372.667 717.174 372C716.841 371.333 716.507 370.333 716.174 369C716.841 369 717.341 369.167 717.674 369.5V368.5H716.674V347C717.007 346.333 717.174 344.667 717.174 342C717.174 340.333 717.007 338.167 716.674 335.5C716.674 332.5 716.674 330.167 716.674 328.5C716.674 327.833 716.674 326 716.674 323C716.674 319.667 716.841 314.833 717.174 308.5C717.174 307.167 717.007 306.167 716.674 305.5C716.674 304.833 716.674 304 716.674 303C716.674 301.333 716.841 300.333 717.174 300C712.841 298.333 707.674 297.5 701.674 297.5C696.007 297.167 692.174 297 690.174 297V286C690.174 283.667 690.174 281.667 690.174 280C690.174 278 690.007 276.333 689.674 275C689.674 274.333 689.674 273.667 689.674 273C690.007 272 690.174 270.667 690.174 269C690.174 267.333 690.007 265.667 689.674 264C689.674 262 689.674 259.667 689.674 257L689.174 249.5V227.5C689.174 226.833 689.007 226.167 688.674 225.5C688.674 224.833 688.674 224.167 688.674 223.5L689.174 222.5C689.507 222.167 689.674 221 689.674 219C689.674 217.667 689.507 216.5 689.174 215.5C689.174 214.167 689.174 213.167 689.174 212.5L689.674 212C689.674 207.667 689.507 204.167 689.174 201.5C688.841 198.833 688.674 195.667 688.674 192L688.174 189.5H687.174V185.5L686.674 147ZM712.174 325.5C711.507 328.167 711.174 330.5 711.174 332.5V359.5C711.174 362.167 710.841 364.833 710.174 367.5L709.674 373C709.007 373 708.341 373 707.674 373C707.341 372.667 706.84 372.5 706.174 372.5L683.174 372C682.841 371.667 682.674 371.333 682.674 371C683.007 370.333 683.007 369.833 682.674 369.5L680.174 369C680.174 370 679.841 371 679.174 372C678.841 373 677.841 374.333 676.174 376V382.5C676.174 383.167 676.007 383.833 675.674 384.5C675.674 384.833 675.674 385.667 675.674 387C675.674 387.667 675.674 388.833 675.674 390.5C676.007 391.833 676.34 393.833 676.674 396.5V403.5H677.674L676.674 404V414.5L675.674 424C675.674 424.667 675.674 425.167 675.674 425.5C676.007 425.833 676.174 426.333 676.174 427H674.674L674.174 452C674.174 453.333 674.341 454.167 674.674 454.5H674.174C673.841 455.833 673.674 457.167 673.674 458.5C673.674 459.5 673.507 460.667 673.174 462L672.674 462.5C671.007 462.833 668.174 463 664.174 463H645.674V464C645.007 464 644.674 463.833 644.674 463.5L634.674 463H632.174C629.174 463 626.174 463.167 623.174 463.5C620.507 463.833 617.841 464 615.174 464C613.507 464 612.507 464 612.174 464C612.174 463.667 612.174 461.667 612.174 458V457C612.507 457 612.674 456.667 612.674 456C612.341 455.667 612.174 455.333 612.174 455L614.174 434C614.507 433 614.84 432.5 615.174 432.5H616.174V431V410.5C616.174 408.5 616.34 406.167 616.674 403.5C617.007 400.833 617.174 398.167 617.174 395.5C616.174 383.167 614.841 375.5 613.174 372.5L609.674 367.5L561.174 367C560.507 367 560.007 367 559.674 367C559.674 366.667 559.34 366.5 558.674 366.5C558.34 366.5 557.507 366.5 556.174 366.5C554.84 366.167 552.674 366 549.674 366C548.007 366 546.007 366.167 543.674 366.5C541.674 366.5 539.34 366.5 536.674 366.5H532.674L519.174 366C517.507 366 515.84 366.167 514.174 366.5C512.84 366.5 511.34 366.5 509.674 366.5C509.674 364.167 508.674 348.667 506.674 320H506.174L506.674 319V311C506.674 309.667 506.84 308.833 507.174 308.5V302.5C508.507 301.167 509.674 300.333 510.674 300L512.174 295.5C513.174 294.833 514.174 293.833 515.174 292.5C515.84 291.167 516.507 289.333 517.174 287C517.84 284.667 518.174 281.667 518.174 278C518.84 278 519.507 277.5 520.174 276.5C520.84 275.5 522.007 273.833 523.674 271.5C525.34 268.833 527.507 265.333 530.174 261C533.174 256.333 537.174 250.5 542.174 243.5C542.84 240.833 543.674 239.5 544.674 239.5V238L545.674 235.5C549.007 230.5 551.507 226.333 553.174 223C555.174 219.333 556.674 217 557.674 216L562.674 207.5C563.007 206.833 563.507 206.167 564.174 205.5C564.507 205.167 564.674 204.833 564.674 204.5H565.674C566.007 203.5 566.34 202.667 566.674 202C567.007 201.333 567.341 200.667 567.674 200L568.674 199C569.34 196 571.174 192.333 574.174 188C577.507 183.333 580.174 179.833 582.174 177.5V176.5C583.174 175.5 583.674 174.667 583.674 174H584.674V173C586.007 171 587.674 168.5 589.674 165.5C591.34 162.833 593.34 159.833 595.674 156.5C598.34 152.833 601.507 148.5 605.174 143.5C608.174 139.167 609.674 136.833 609.674 136.5C610.007 136.167 610.507 135.833 611.174 135.5V134.5L612.674 133.5L614.174 129H620.174H621.674C622.34 129 622.84 129 623.174 129C623.84 128.667 624.34 128.5 624.674 128.5V129L658.174 128C659.841 128 661.341 128 662.674 128C664.341 127.667 666.007 127.5 667.674 127.5C668.341 127.5 669.174 127.667 670.174 128C671.174 128 672.507 128.167 674.174 128.5L674.674 160.5C675.007 160.833 675.174 162 675.174 164C675.174 165.667 675.007 167.167 674.674 168.5C674.674 169.833 674.674 170.833 674.674 171.5L675.674 179.5V200.5L676.674 204V229H677.674L678.174 241.5C678.174 250.167 678.341 258.833 678.674 267.5C679.007 275.833 679.174 284.5 679.174 293.5C679.174 294.167 679.007 295.333 678.674 297C678.674 298.333 678.674 299.833 678.674 301.5C678.674 304.5 679.174 306.333 680.174 307C681.507 307.667 683.007 308 684.674 308V307C686.341 306.667 688.841 306.5 692.174 306.5C695.841 306.167 698.674 306 700.674 306C702.341 306 703.341 306.167 703.674 306.5C704.007 306.5 704.841 306.5 706.174 306.5C707.507 306.5 708.341 306.333 708.674 306L711.174 305.5V323H712.174V325.5ZM636.174 301V290.5H635.174L635.674 249.5C635.674 242.833 636.34 237.333 637.674 233L638.174 229C638.507 219.667 638.841 214.833 639.174 214.5C639.174 212.167 639.007 210.833 638.674 210.5L637.674 208C637.007 208 636.507 208.167 636.174 208.5C635.84 208.5 635.34 208.5 634.674 208.5C634.674 206.833 634.507 205.167 634.174 203.5C634.174 201.5 634.174 199.667 634.174 198C634.174 197.333 634.507 195.333 635.174 192C633.174 192.333 632.341 192.833 632.674 193.5C633.007 193.833 632.674 194.333 631.674 195H630.674L621.174 204C620.507 204.333 620.007 204.667 619.674 205C619.674 205 619.34 205.167 618.674 205.5V207C617.674 207 616.674 208.333 615.674 211C615.007 213.667 612.34 217 607.674 221V222C607.34 222.333 607.007 222.667 606.674 223C606.34 223 605.84 223.333 605.174 224V225.5C604.507 226.167 604.007 226.5 603.674 226.5V228C600.674 232.667 598.84 235.333 598.174 236C597.841 236.667 597.341 237.667 596.674 239H595.674C595.34 239.333 594.674 240.167 593.674 241.5C593.007 242.5 591.841 244.167 590.174 246.5H589.174L589.674 247.5C589.674 248.167 589.341 248.833 588.674 249.5C588.007 250.167 587.507 251 587.174 252L575.174 270.5C574.507 271.167 573.84 271.5 573.174 271.5V273L571.674 274V275C568.674 283.667 566.84 288.333 566.174 289H565.174C564.84 289.667 564.34 291.167 563.674 293.5C563.007 295.5 562.007 298.167 560.674 301.5L557.674 304.5C557.674 305.833 558.174 306.667 559.174 307V305.5H560.674L561.174 308.5C561.507 308.5 561.84 308.5 562.174 308.5C562.507 308.167 563.007 308 563.674 308L565.174 309V308.5C570.84 308.5 574.84 308.5 577.174 308.5C579.507 308.167 582.007 308 584.674 308V307.5C591.341 307.167 596.507 307 600.174 307C603.841 306.667 606.007 306.5 606.674 306.5C608.674 306.5 610.007 306.667 610.674 307C614.34 307 618.507 306.833 623.174 306.5C628.174 306.167 631.507 305.167 633.174 303.5L633.674 302.5C633.674 301.833 633.507 301.5 633.174 301.5L633.674 300C634.007 300 634.507 300.333 635.174 301L637.174 301.5L636.174 301ZM624.174 291.5C624.507 291.833 624.674 292.333 624.674 293H624.174L623.174 300L619.174 300.5C618.507 300.5 617.007 300.667 614.674 301C612.674 301 610.341 301 607.674 301C607.34 300.667 605.84 300.5 603.174 300.5L599.174 301.5H590.674H582.174H572.674C572.674 301.167 572.674 301 572.674 301C573.007 300.667 573.174 300.333 573.174 300C573.174 299.667 573.34 299.5 573.674 299.5L576.174 296C576.84 296 577.34 295.333 577.674 294C578.341 292.667 580.007 290.667 582.674 288L586.674 276.5C587.34 274.167 588.174 272.167 589.174 270.5C590.174 268.5 591.007 267.333 591.674 267V266C591.674 265.667 592.007 265.5 592.674 265.5V264C593.341 263.667 593.674 263.5 593.674 263.5C594.007 263.167 594.507 262.833 595.174 262.5L592.674 261C593.007 260.667 593.341 260.5 593.674 260.5C594.007 260.167 594.341 259.833 594.674 259.5V258.5C595.34 257.833 595.84 257.5 596.174 257.5C596.507 257.167 596.841 256.833 597.174 256.5V255.5C598.84 252.833 600.174 250.833 601.174 249.5C602.174 248.167 602.84 247.333 603.174 247H604.174L605.174 244C605.84 244 606.34 243.833 606.674 243.5L607.674 240.5L613.174 235V233.5C614.174 233.5 614.674 232.833 614.674 231.5H615.174C615.507 231.167 616.007 230.333 616.674 229H617.674C618.341 226.667 619.507 224.667 621.174 223H621.674C621.674 227.667 621.507 232.167 621.174 236.5C621.174 240.833 621.174 245.333 621.174 250C622.174 254.333 623.007 258.667 623.674 263C624.341 267 624.674 271.333 624.674 276H624.174C624.507 276.333 624.674 276.833 624.674 277.5V287.5L624.174 291.5ZM689.174 192.5L688.674 194L688.174 192.5H689.174Z" fill="black"/>
<path d="M346 113C346 119.645 341.96 126.272 334.168 131.467C326.41 136.639 315.405 140 303 140C290.595 140 279.59 136.639 271.832 131.467C264.04 126.272 260 119.645 260 113C260 106.355 264.04 99.7278 271.832 94.5328C279.59 89.3612 290.595 86 303 86C315.405 86 326.41 89.3612 334.168 94.5328C341.96 99.7278 346 106.355 346 113Z" stroke="black" stroke-width="10"/>
<path d="M472 112C472 118.645 467.96 125.272 460.168 130.467C452.41 135.639 441.405 139 429 139C416.595 139 405.59 135.639 397.832 130.467C390.04 125.272 386 118.645 386 112C386 105.355 390.04 98.7278 397.832 93.5328C405.59 88.3612 416.595 85 429 85C441.405 85 452.41 88.3612 460.168 93.5328C467.96 98.7278 472 105.355 472 112Z" stroke="black" stroke-width="10"/>
<circle cx="304" cy="118" r="9" fill="black"/>
<circle cx="426" cy="117" r="9" fill="black"/>
<line x1="244.26" y1="108.818" x2="331.26" y2="51.8177" stroke="black" stroke-width="10"/>
<line x1="486.331" y1="106.753" x2="401.132" y2="47.0955" stroke="black" stroke-width="10"/>
<path d="M361.996 142.724C370.519 172.496 385.784 176.824 392.351 175.267L358.881 172.393" stroke="black" stroke-width="10"/>
</svg>
