<svg width="173" height="334" viewBox="0 0 173 334" fill="none" xmlns="http://www.w3.org/2000/svg">
<rect x="1" width="171" height="334" rx="20" fill="#C4C4C4"/>
<rect x="3" y="2" width="167" height="330" rx="18" fill="url(#paint0_linear)"/>
<path d="M0 43C0 42.4477 0.447715 42 1 42H2V50H1C0.447715 50 0 49.5523 0 49V43Z" fill="#919191"/>
<path d="M0 59C0 58.4477 0.447715 58 1 58H2V74H1C0.447715 74 0 73.5523 0 73V59Z" fill="#919191"/>
<path d="M0 79C0 78.4477 0.447715 78 1 78H2V94H1C0.447715 94 0 93.5523 0 93V79Z" fill="#919191"/>
<path d="M173 81C173 81.5523 172.552 82 172 82H171V66H172C172.552 66 173 66.4477 173 67V81Z" fill="#919191"/>
<rect x="73" y="20" width="28" height="3" rx="1" fill="#595959"/>
<rect x="67" y="20" width="3" height="3" rx="1" fill="#262836"/>
<circle cx="87" cy="313" r="11.5" fill="#C4C4C4" stroke="url(#paint1_radial)"/>
<circle cx="87" cy="313" r="10.5" transform="rotate(-180 87 313)" fill="black" stroke="url(#paint2_radial)"/>
<defs>
<linearGradient id="paint0_linear" x1="-181.091" y1="-293.419" x2="123.111" y2="251.945" gradientUnits="userSpaceOnUse">
<stop stop-color="#C4C4C4"/>
<stop offset="1"/>
</linearGradient>
<radialGradient id="paint1_radial" cx="0" cy="0" r="1" gradientUnits="userSpaceOnUse" gradientTransform="translate(79 304) rotate(50.0424) scale(24.135)">
<stop stop-opacity="0.42"/>
<stop offset="1"/>
</radialGradient>
<radialGradient id="paint2_radial" cx="0" cy="0" r="1" gradientUnits="userSpaceOnUse" gradientTransform="translate(79.6667 304.75) rotate(50.0424) scale(22.1238)">
<stop stop-color="white" stop-opacity="0.29"/>
<stop offset="1"/>
</radialGradient>
</defs>
</svg>
