<svg width="205" height="202" viewBox="0 0 205 202" fill="none" xmlns="http://www.w3.org/2000/svg">
<circle cx="102.5" cy="100.5" r="73.5" fill="#FECA14"/>
<path d="M101.5 0L119.254 29.25H83.7465L101.5 0Z" fill="#FECA14"/>
<path d="M147.887 12.4085L149.367 46.5927L118.245 29.4992L147.887 12.4085Z" fill="#FECA14"/>
<path d="M4.95571 125.232L29.4224 101.313L37.4676 135.897L4.95571 125.232Z" fill="#FECA14"/>
<path d="M182.315 41.2738L168.203 72.4447L148.149 43.143L182.315 41.2738Z" fill="#FECA14"/>
<path d="M198.647 129.241L165.397 137.316L176.137 103.472L198.647 129.241Z" fill="#FECA14"/>
<path d="M200.834 81.3294L175.578 104.413L168.699 69.5791L200.834 81.3294Z" fill="#FECA14"/>
<path d="M174.389 168.654L140.969 161.315L165.474 135.62L174.389 168.654Z" fill="#FECA14"/>
<path d="M93.8832 199.069L76.9107 169.359L112.405 170.3L93.8832 199.069Z" fill="#FECA14"/>
<path d="M136.219 194.579L109.81 172.824L143.329 161.11L136.219 194.579Z" fill="#FECA14"/>
<path d="M51.1106 186.059L49.1294 151.901L80.4987 168.535L51.1106 186.059Z" fill="#FECA14"/>
<path d="M19.984 160.431L33.3375 128.928L54.094 157.736L19.984 160.431Z" fill="#FECA14"/>
<path d="M19.7353 47.082L53.9047 45.2933L37.0935 76.5683L19.7353 47.082Z" fill="#FECA14"/>
<path d="M6.42861 87.4502L36.8447 71.7783L34.3703 107.199L6.42861 87.4502Z" fill="#FECA14"/>
<path d="M53.4734 13.7204L83.9022 29.3677L53.6374 47.9362L53.4734 13.7204Z" fill="#FECA14"/>
</svg>
