<svg width="1154" height="1255" viewBox="0 0 1154 1255" fill="none" xmlns="http://www.w3.org/2000/svg">
<path d="M14 114.5C51.3899 138.604 113.201 112.143 104.859 74.4415C97.5415 41.3928 58.2826 50.8911 49.3579 55.351C40.4332 59.8109 45.8325 36.1171 66.5399 29.0119C94.5897 19.3851 128.929 21.4222 139.777 69.8036C147.194 102.867 132.672 149.221 76.8935 149.839C21.1103 150.457 14 114.5 14 114.5Z" fill="#B3BAFD"/>
<path d="M1 133C1 124 1.49954 109 16.4995 115.5C31.4995 122.001 57.5146 136.108 86.667 130.417C137.348 120.528 137.802 61.1304 103.147 44.1858C84.4025 35.0089 62.1674 45.8668 53.7025 52.3638C46.3501 58.0153 32.2782 65.5161 33.0149 56.0771C34.5922 36.0027 84.7649 -18.7693 137.502 8.42513C190.245 35.6196 168.079 86.9251 195.502 121.804C222.352 155.952 254.499 133 254.499 133C254.499 133 399.003 179.88 168.079 175.238C-62.8454 170.596 20.7428 175.238 20.7428 175.238C-1.92096 175.238 1 169.5 1 163.5C1 157.5 1 142 1 133Z" fill="#99A3FF"/>
<path d="M265.499 115.233C302.889 139.337 363.2 112.143 354.858 74.4413C347.541 41.3927 308.282 50.8909 299.357 55.3508C290.432 59.8107 295.832 36.1169 316.539 29.0118C344.589 19.3849 378.928 21.4221 389.776 69.8034C397.193 102.867 382.671 149.221 326.893 149.839C271.109 150.457 265.499 115.233 265.499 115.233Z" fill="#CFD4FF"/>
<path d="M239.999 146.5C252.499 138 264.754 110.263 270.915 116.27C285.719 130.708 307.514 136.108 336.666 130.416C387.347 120.528 387.801 61.1301 353.146 44.1855C334.401 35.0086 312.166 45.8665 303.701 52.3635C296.349 58.015 282.277 65.5157 283.014 56.0768C284.591 36.0023 334.764 -18.7696 387.501 8.4248C440.244 35.6192 418.078 86.9247 445.501 121.803C472.351 155.952 504.501 133.5 504.501 133.5C504.501 133.5 649.002 179.88 418.078 175.238C187.154 170.596 270.742 175.238 270.742 175.238C248.078 175.238 251.137 177.738 251.137 159.925C251.137 159.925 227.499 155 239.999 146.5Z" fill="#99A3FF"/>
<path d="M762.499 115.233C799.889 139.337 860.2 112.143 851.858 74.4413C844.541 41.3927 805.282 50.8909 796.357 55.3508C787.432 59.8107 792.832 36.1169 813.539 29.0118C841.589 19.3849 875.928 21.4221 886.776 69.8034C894.193 102.867 879.671 149.221 823.893 149.839C768.109 150.457 762.499 115.233 762.499 115.233Z" fill="#CFD4FF"/>
<path d="M736.999 146.5C749.499 138 761.755 110.263 767.916 116.271C782.719 130.708 804.514 136.108 833.667 130.417C884.347 120.528 884.802 61.1301 850.146 44.1855C831.402 35.0086 809.167 45.8666 800.702 52.3636C793.35 58.0151 779.278 65.5159 780.015 56.0769C781.592 36.0025 831.764 -18.7696 884.502 8.42485C937.244 35.6193 915.078 86.9248 942.502 121.803C969.351 155.952 1011.5 130.417 1011.5 130.417C1011.5 130.417 1146 179.88 915.078 175.238C684.154 170.596 767.742 175.238 767.742 175.238C745.079 175.238 748.138 177.738 748.138 159.925C748.138 159.925 724.499 155 736.999 146.5Z" fill="#99A3FF"/>
<path d="M512.498 115.233C549.888 139.337 610.199 112.143 601.857 74.4413C594.54 41.3927 555.281 50.8909 546.356 55.3508C537.431 59.8107 542.831 36.1169 563.538 29.0118C591.588 19.3849 625.927 21.4221 636.775 69.8034C644.192 102.867 629.67 149.221 573.892 149.839C518.108 150.457 512.498 115.233 512.498 115.233Z" fill="#CFD4FF"/>
<path d="M526 122.33C563 133 617.851 121.5 611.5 74.5C605.149 27.5 548.791 49.1618 541.5 53.5C534.209 57.8382 550.781 45.373 567.699 38.4617C590.615 29.0975 618.67 31.079 627.532 78.1403C633.592 110.302 621.728 155.391 576.158 155.992C530.584 156.593 526 122.33 526 122.33Z" fill="#B3BAFD"/>
<path d="M486.998 146.5C499.498 138 511.753 110.263 517.914 116.271C532.718 130.708 554.513 136.108 583.665 130.417C634.346 120.528 634.801 61.1302 600.145 44.1856C581.401 35.0087 559.166 45.8666 550.701 52.3636C543.348 58.0151 529.276 65.5158 530.013 56.0769C531.59 36.0025 581.763 -18.7695 634.501 8.42491C687.243 35.6193 665.077 86.9248 692.501 121.803C719.35 155.952 753 130.417 753 130.417C753 130.417 896.001 179.88 665.077 175.238C434.153 170.596 517.741 175.238 517.741 175.238C495.077 175.238 498.136 177.738 498.136 159.925C498.136 159.925 474.498 155 486.998 146.5Z" fill="#99A3FF"/>
<rect x="1" y="168" width="1152" height="1087" fill="#99A3FF"/>
<mask id="mask0" mask-type="alpha" maskUnits="userSpaceOnUse" x="959" y="-34" width="195" height="243">
<path d="M1153 7.95274V170.322C1136.22 191.105 1110.45 203.687 1095.46 206.043C1080.48 208.4 1061.3 208.641 1051.11 206.693C1040.93 204.745 992.38 191.755 971.403 140.446C950.427 89.1376 964.811 52.7668 964.811 52.7668C964.811 52.7668 971.403 28.7362 984.589 11.2003C996.309 -4.38718 1010.96 -14.1294 1019.95 -19.3253C1034.56 -27.7687 1054.72 -33.5088 1070.29 -32.9643C1088.87 -32.3148 1092.05 -32.3598 1108.65 -25.8201C1121.83 -20.6243 1145.33 -9.19346 1153 7.95274Z" fill="#99A3FF" stroke="black"/>
</mask>
<g mask="url(#mask0)">
<path d="M1014.97 114.232C1052.36 138.337 1112.67 111.142 1104.33 73.4408C1097.01 40.3922 1057.75 49.8904 1048.83 54.3503C1039.9 58.8102 1045.3 35.1165 1066.01 28.0113C1094.06 18.3845 1128.4 20.4216 1139.24 68.8029C1146.66 101.866 1132.14 148.221 1076.36 148.839C1020.58 149.457 1014.97 114.232 1014.97 114.232Z" fill="#B3BAFD"/>
<path d="M989.468 145.5C1001.97 137 1014.22 109.263 1020.38 115.27C1035.19 129.708 1056.98 135.107 1086.14 129.416C1136.82 119.528 1137.27 60.13 1102.62 43.1854C1083.87 34.0085 1061.64 44.8665 1053.17 51.3634C1045.82 57.0149 1031.75 64.5157 1032.48 55.0767C1034.06 35.0023 1084.23 -19.7697 1136.97 7.42474C1189.71 34.6192 1167.55 85.9247 1194.97 120.803C1221.82 154.951 1293.47 123.498 1293.47 123.498C1293.47 123.498 1398.47 178.88 1167.55 174.238C936.623 169.596 1020.21 174.238 1020.21 174.238C997.547 174.238 1000.61 176.738 1000.61 158.925C1000.61 158.925 976.968 154 989.468 145.5Z" fill="#99A3FF"/>
</g>
</svg>
