<svg width="1154" height="1174" viewBox="0 0 1154 1174" fill="none" xmlns="http://www.w3.org/2000/svg">
<rect x="1" y="86.3196" width="1152" height="1087" fill="#99A3FF"/>
<mask id="mask0" mask-type="alpha" maskUnits="userSpaceOnUse" x="0" y="13" width="174" height="188">
<path d="M1 45.6067V170.921C15.9553 186.961 38.9223 196.671 52.2753 198.49C65.6282 200.309 82.7199 200.495 91.7999 198.991C100.88 197.487 144.143 187.462 162.838 147.863C181.532 108.264 168.713 80.1935 168.713 80.1935C168.713 80.1935 162.838 61.647 151.087 48.1131C140.642 36.0829 127.586 28.5641 119.574 24.5539C106.555 18.0375 88.588 13.6073 74.7082 14.0275C58.1505 14.5288 55.3145 14.4941 40.5247 19.5413C28.7741 23.5514 7.8367 32.3735 1 45.6067Z" fill="#99A3FF" stroke="black"/>
</mask>
<g mask="url(#mask0)">
<path d="M156 60C156 109.153 115.929 149 66.5 149C17.0705 149 -23 109.153 -23 60C-23 60 17.0705 60 66.5 60C115.929 60 156 60 156 60Z" fill="white"/>
</g>
<mask id="mask1" mask-type="alpha" maskUnits="userSpaceOnUse" x="1026" y="-1" width="128" height="209">
<path d="M1153 35.1752V174.638C1142.04 192.489 1125.22 203.295 1115.44 205.32C1105.66 207.344 1093.14 207.551 1086.48 205.877C1079.83 204.204 1048.14 193.047 1034.44 148.977C1020.75 104.907 1030.14 73.6669 1030.14 73.6669C1030.14 73.6669 1034.44 53.0265 1043.05 37.9646C1050.7 24.5762 1060.27 16.2084 1066.14 11.7455C1075.67 4.49331 1088.84 -0.436998 1099 0.030639C1111.13 0.588497 1113.21 0.549911 1124.05 6.16699C1132.65 10.6298 1147.99 20.4479 1153 35.1752Z" fill="#99A3FF" stroke="black"/>
</mask>
<g mask="url(#mask1)">
<path d="M1040.02 51.0671C1040.02 106.017 1084.82 150.562 1140.08 150.562C1195.33 150.562 1240.13 106.017 1240.13 51.0671C1240.13 51.0671 1195.33 51.0671 1140.08 51.0671C1084.82 51.0671 1040.02 51.0671 1040.02 51.0671Z" fill="white"/>
</g>
<circle cx="243" cy="107" r="93" fill="#99A3FF"/>
<circle cx="598" cy="107" r="93" fill="#99A3FF"/>
<circle cx="956" cy="107" r="93" fill="#99A3FF"/>
<path d="M510 62C510 111.153 469.929 151 420.5 151C371.071 151 331 111.153 331 62C331 62 371.071 62 420.5 62C469.929 62 510 62 510 62Z" fill="white"/>
<path d="M870 60C870 109.153 829.929 149 780.5 149C731.071 149 691 109.153 691 60C691 60 731.071 60 780.5 60C829.929 60 870 60 870 60Z" fill="white"/>
<path d="M863 60C863 109.153 822.929 149 773.5 149C724.071 149 684 109.153 684 60C684 60 724.071 60 773.5 60C822.929 60 863 60 863 60Z" fill="white"/>
</svg>
