<svg width="1155" height="1164" viewBox="0 0 1155 1164" fill="none" xmlns="http://www.w3.org/2000/svg">
<g id="waves">
<rect id="Rectangle 84" x="1" y="76.3196" width="1152" height="1087" fill="#99A3FF"/>
<path id="Ellipse 40" d="M688 50C688 99.1533 647.929 139 598.5 139C549.071 139 509 99.1533 509 50C509 50 549.071 50 598.5 50C647.929 50 688 50 688 50Z" fill="white"/>
<path id="Ellipse 51" d="M688 50C688 99.1533 647.929 139 598.5 139C549.071 139 509 99.1533 509 50C509 50 549.071 50 598.5 50C647.929 50 688 50 688 50Z" fill="white"/>
<path id="Ellipse 53" d="M1040 50C1040 99.1533 999.929 139 950.5 139C901.071 139 861 99.1533 861 50C861 50 901.071 50 950.5 50C999.929 50 1040 50 1040 50Z" fill="white"/>
<path id="Ellipse 52" d="M336 50C336 99.1533 295.929 139 246.5 139C197.071 139 157 99.1533 157 50C157 50 197.071 50 246.5 50C295.929 50 336 50 336 50Z" fill="white"/>
<g id="wave4">
<g id="cutoff">
<mask id="mask0" mask-type="alpha" maskUnits="userSpaceOnUse" x="1034" y="-31" width="121" height="222">
<path id="Vector 10" d="M1154 7.38424V155.605C1143.65 174.578 1127.76 186.062 1118.52 188.214C1109.29 190.366 1097.46 190.585 1091.18 188.807C1084.9 187.028 1054.96 175.171 1042.03 128.333C1029.1 81.4949 1037.97 48.2934 1037.97 48.2934C1037.97 48.2934 1042.03 26.3567 1050.16 10.3488C1057.39 -3.88042 1066.42 -12.7737 1071.96 -17.5169C1080.97 -25.2245 1093.4 -30.4644 1103 -29.9674C1114.46 -29.3745 1116.42 -29.4156 1126.65 -23.4457C1134.78 -18.7026 1149.27 -8.26789 1154 7.38424Z" fill="#99A3FF" stroke="black"/>
</mask>
<g mask="url(#mask0)">
<path id="circle4" d="M1154 91.3612C1154 144.315 1154 187.242 1154 187.242C1071.47 196.521 1035 144.315 1035 91.3612C1035 38.4078 1092.5 -10.1802 1154 7.81961C1154 7.81961 1154 38.4078 1154 91.3612Z" fill="#99A3FF"/>
<path id="Ellipse 67" d="M1218.7 94.1807H1218.74C1217.42 45.3547 1177.42 6.18066 1128.28 6.18066C1079.13 6.18066 1039.14 45.3547 1037.82 94.1807H1037.86H1037.93H1038H1038.07H1038.14H1038.21H1038.28H1038.35H1038.43H1038.5H1038.58H1038.65H1038.73H1038.81H1038.89H1038.97H1039.05H1039.13H1039.21H1039.29H1039.38H1039.46H1039.55H1039.63H1039.72H1039.81H1039.9H1039.99H1040.08H1040.17H1040.26H1040.35H1040.45H1040.54H1040.63H1040.73H1040.83H1040.92H1041.02H1041.12H1041.22H1041.32H1041.42H1041.53H1041.63H1041.73H1041.84H1041.94H1042.05H1042.15H1042.26H1042.37H1042.48H1042.59H1042.7H1042.81H1042.92H1043.04H1043.15H1043.27H1043.38H1043.5H1043.61H1043.73H1043.85H1043.97H1044.09H1044.21H1044.33H1044.45H1044.57H1044.7H1044.82H1044.95H1045.07H1045.2H1045.33H1045.46H1045.58H1045.71H1045.84H1045.97H1046.11H1046.24H1046.37H1046.51H1046.64H1046.78H1046.91H1047.05H1047.19H1047.32H1047.46H1047.6H1047.74H1047.88H1048.03H1048.17H1048.31H1048.46H1048.6H1048.74H1048.89H1049.04H1049.18H1049.33H1049.48H1049.63H1049.78H1049.93H1050.08H1050.24H1050.39H1050.54H1050.7H1050.85H1051.01H1051.16H1051.32H1051.48H1051.64H1051.8H1051.96H1052.12H1052.28H1052.44H1052.6H1052.76H1052.93H1053.09H1053.26H1053.42H1053.59H1053.76H1053.92H1054.09H1054.26H1054.43H1054.6H1054.77H1054.94H1055.12H1055.29H1055.46H1055.64H1055.81H1055.99H1056.16H1056.34H1056.52H1056.7H1056.87H1057.05H1057.23H1057.41H1057.59H1057.78H1057.96H1058.14H1058.33H1058.51H1058.69H1058.88H1059.07H1059.25H1059.44H1059.63H1059.82H1060.01H1060.2H1060.39H1060.58H1060.77H1060.96H1061.15H1061.35H1061.54H1061.74H1061.93H1062.13H1062.32H1062.52H1062.72H1062.92H1063.11H1063.31H1063.51H1063.71H1063.91H1064.12H1064.32H1064.52H1064.72H1064.93H1065.13H1065.34H1065.54H1065.75H1065.96H1066.16H1066.37H1066.58H1066.79H1067H1067.21H1067.42H1067.63H1067.84H1068.05H1068.27H1068.48H1068.69H1068.91H1069.12H1069.34H1069.56H1069.77H1069.99H1070.21H1070.43H1070.64H1070.86H1071.08H1071.3H1071.52H1071.75H1071.97H1072.19H1072.41H1072.64H1072.86H1073.09H1073.31H1073.54H1073.76H1073.99H1074.22H1074.44H1074.67H1074.9H1075.13H1075.36H1075.59H1075.82H1076.05H1076.28H1076.52H1076.75H1076.98H1077.21H1077.45H1077.68H1077.92H1078.15H1078.39H1078.63H1078.86H1079.1H1079.34H1079.58H1079.82H1080.06H1080.3H1080.54H1080.78H1081.02H1081.26H1081.5H1081.75H1081.99H1082.23H1082.48H1082.72H1082.97H1083.21H1083.46H1083.7H1083.95H1084.2H1084.45H1084.69H1084.94H1085.19H1085.44H1085.69H1085.94H1086.19H1086.44H1086.7H1086.95H1087.2H1087.45H1087.71H1087.96H1088.22H1088.47H1088.73H1088.98H1089.24H1089.49H1089.75H1090.01H1090.26H1090.52H1090.78H1091.04H1091.3H1091.56H1091.82H1092.08H1092.34H1092.6H1092.86H1093.13H1093.39H1093.65H1093.92H1094.18H1094.44H1094.71H1094.97H1095.24H1095.5H1095.77H1096.04H1096.3H1096.57H1096.84H1097.11H1097.37H1097.64H1097.91H1098.18H1098.45H1098.72H1098.99H1099.26H1099.54H1099.81H1100.08H1100.35H1100.62H1100.9H1101.17H1101.45H1101.72H1101.99H1102.27H1102.54H1102.82H1103.1H1103.37H1103.65H1103.93H1104.2H1104.48H1104.76H1105.04H1105.32H1105.6H1105.87H1106.15H1106.43H1106.72H1107H1107.28H1107.56H1107.84H1108.12H1108.4H1108.69H1108.97H1109.25H1109.54H1109.82H1110.11H1110.39H1110.67H1110.96H1111.25H1111.53H1111.82H1112.1H1112.39H1112.68H1112.96H1113.25H1113.54H1113.83H1114.12H1114.41H1114.69H1114.98H1115.27H1115.56H1115.85H1116.14H1116.43H1116.73H1117.02H1117.31H1117.6H1117.89H1118.19H1118.48H1118.77H1119.06H1119.36H1119.65H1119.95H1120.24H1120.53H1120.83H1121.12H1121.42H1121.71H1122.01H1122.31H1122.6H1122.9H1123.2H1123.49H1123.79H1124.09H1124.39H1124.68H1124.98H1125.28H1125.58H1125.88H1126.18H1126.48H1126.78H1127.08H1127.38H1127.68H1127.98H1128.28H1128.58H1128.88H1129.18H1129.48H1129.78H1130.08H1130.38H1130.68H1130.98H1131.28H1131.58H1131.87H1132.17H1132.47H1132.77H1133.06H1133.36H1133.66H1133.96H1134.25H1134.55H1134.84H1135.14H1135.43H1135.73H1136.02H1136.32H1136.61H1136.91H1137.2H1137.49H1137.79H1138.08H1138.37H1138.67H1138.96H1139.25H1139.54H1139.83H1140.12H1140.41H1140.71H1141H1141.29H1141.57H1141.86H1142.15H1142.44H1142.73H1143.02H1143.31H1143.59H1143.88H1144.17H1144.46H1144.74H1145.03H1145.31H1145.6H1145.88H1146.17H1146.45H1146.74H1147.02H1147.31H1147.59H1147.87H1148.15H1148.44H1148.72H1149H1149.28H1149.56H1149.84H1150.12H1150.4H1150.68H1150.96H1151.24H1151.52H1151.8H1152.08H1152.36H1152.63H1152.91H1153.19H1153.46H1153.74H1154.01H1154.29H1154.56H1154.84H1155.11H1155.39H1155.66H1155.93H1156.21H1156.48H1156.75H1157.02H1157.29H1157.57H1157.84H1158.11H1158.38H1158.65H1158.92H1159.18H1159.45H1159.72H1159.99H1160.26H1160.52H1160.79H1161.05H1161.32H1161.59H1161.85H1162.12H1162.38H1162.64H1162.91H1163.17H1163.43H1163.69H1163.96H1164.22H1164.48H1164.74H1165H1165.26H1165.52H1165.78H1166.04H1166.29H1166.55H1166.81H1167.07H1167.32H1167.58H1167.83H1168.09H1168.34H1168.6H1168.85H1169.11H1169.36H1169.61H1169.86H1170.11H1170.37H1170.62H1170.87H1171.12H1171.37H1171.62H1171.86H1172.11H1172.36H1172.61H1172.85H1173.1H1173.35H1173.59H1173.84H1174.08H1174.33H1174.57H1174.81H1175.06H1175.3H1175.54H1175.78H1176.02H1176.26H1176.5H1176.74H1176.98H1177.22H1177.46H1177.69H1177.93H1178.17H1178.4H1178.64H1178.88H1179.11H1179.34H1179.58H1179.81H1180.04H1180.28H1180.51H1180.74H1180.97H1181.2H1181.43H1181.66H1181.89H1182.11H1182.34H1182.57H1182.8H1183.02H1183.25H1183.47H1183.7H1183.92H1184.15H1184.37H1184.59H1184.81H1185.03H1185.25H1185.48H1185.7H1185.91H1186.13H1186.35H1186.57H1186.79H1187H1187.22H1187.43H1187.65H1187.86H1188.08H1188.29H1188.5H1188.72H1188.93H1189.14H1189.35H1189.56H1189.77H1189.98H1190.19H1190.4H1190.6H1190.81H1191.02H1191.22H1191.43H1191.63H1191.83H1192.04H1192.24H1192.44H1192.64H1192.84H1193.05H1193.25H1193.44H1193.64H1193.84H1194.04H1194.24H1194.43H1194.63H1194.82H1195.02H1195.21H1195.4H1195.6H1195.79H1195.98H1196.17H1196.36H1196.55H1196.74H1196.93H1197.12H1197.31H1197.49H1197.68H1197.86H1198.05H1198.23H1198.42H1198.6H1198.78H1198.96H1199.14H1199.33H1199.51H1199.68H1199.86H1200.04H1200.22H1200.4H1200.57H1200.75H1200.92H1201.1H1201.27H1201.44H1201.61H1201.79H1201.96H1202.13H1202.3H1202.47H1202.63H1202.8H1202.97H1203.14H1203.3H1203.47H1203.63H1203.79H1203.96H1204.12H1204.28H1204.44H1204.6H1204.76H1204.92H1205.08H1205.24H1205.39H1205.55H1205.71H1205.86H1206.02H1206.17H1206.32H1206.47H1206.63H1206.78H1206.93H1207.08H1207.23H1207.37H1207.52H1207.67H1207.81H1207.96H1208.1H1208.25H1208.39H1208.53H1208.67H1208.82H1208.96H1209.1H1209.23H1209.37H1209.51H1209.65H1209.78H1209.92H1210.05H1210.19H1210.32H1210.45H1210.58H1210.71H1210.85H1210.97H1211.1H1211.23H1211.36H1211.49H1211.61H1211.74H1211.86H1211.98H1212.11H1212.23H1212.35H1212.47H1212.59H1212.71H1212.83H1212.95H1213.06H1213.18H1213.29H1213.41H1213.52H1213.63H1213.75H1213.86H1213.97H1214.08H1214.19H1214.3H1214.4H1214.51H1214.62H1214.72H1214.83H1214.93H1215.03H1215.14H1215.24H1215.34H1215.44H1215.54H1215.63H1215.73H1215.83H1215.92H1216.02H1216.11H1216.21H1216.3H1216.39H1216.48H1216.57H1216.66H1216.75H1216.84H1216.92H1217.01H1217.1H1217.18H1217.26H1217.35H1217.43H1217.51H1217.59H1217.67H1217.75H1217.83H1217.9H1217.98H1218.06H1218.13H1218.2H1218.28H1218.35H1218.42H1218.49H1218.56H1218.63H1218.7Z" stroke="url(#paint0_linear)" stroke-width="5"/>
</g>
</g>
</g>
<g id="wave3">
<circle id="circle3" cx="774.998" cy="96.9999" r="93" transform="rotate(0.231895 774.998 96.9999)" fill="#99A3FF"/>
<path id="Ellipse 66" d="M685.161 91.6764L685.115 91.6767C686.126 42.8433 725.869 3.41308 775.014 3.09741C824.159 2.78173 864.406 41.6981 866.044 90.5145L865.997 90.5148L865.93 90.5152L865.861 90.5157L865.791 90.5161L865.721 90.5166L865.65 90.517L865.578 90.5175L865.505 90.518L865.431 90.5184L865.356 90.5189L865.281 90.5194L865.205 90.5199L865.127 90.5204L865.05 90.5209L864.971 90.5214L864.891 90.5219L864.811 90.5224L864.73 90.5229L864.648 90.5235L864.565 90.524L864.481 90.5245L864.396 90.5251L864.311 90.5256L864.225 90.5262L864.138 90.5267L864.05 90.5273L863.962 90.5279L863.872 90.5284L863.782 90.529L863.691 90.5296L863.599 90.5302L863.507 90.5308L863.413 90.5314L863.319 90.532L863.224 90.5326L863.128 90.5332L863.032 90.5338L862.934 90.5345L862.836 90.5351L862.737 90.5357L862.637 90.5364L862.537 90.537L862.436 90.5377L862.333 90.5383L862.231 90.539L862.127 90.5397L862.022 90.5403L861.917 90.541L861.811 90.5417L861.704 90.5424L861.597 90.5431L861.488 90.5438L861.379 90.5445L861.269 90.5452L861.159 90.5459L861.047 90.5466L860.935 90.5473L860.822 90.548L860.708 90.5488L860.594 90.5495L860.478 90.5502L860.362 90.551L860.246 90.5517L860.128 90.5525L860.01 90.5533L859.891 90.554L859.771 90.5548L859.65 90.5556L859.529 90.5563L859.407 90.5571L859.284 90.5579L859.16 90.5587L859.036 90.5595L858.911 90.5603L858.785 90.5611L858.659 90.5619L858.532 90.5628L858.404 90.5636L858.275 90.5644L858.145 90.5652L858.015 90.5661L857.884 90.5669L857.752 90.5678L857.62 90.5686L857.487 90.5695L857.353 90.5703L857.219 90.5712L857.083 90.5721L856.947 90.5729L856.81 90.5738L856.673 90.5747L856.535 90.5756L856.396 90.5765L856.256 90.5774L856.116 90.5783L855.975 90.5792L855.833 90.5801L855.691 90.581L855.548 90.5819L855.404 90.5828L855.259 90.5838L855.114 90.5847L854.968 90.5856L854.821 90.5866L854.674 90.5875L854.526 90.5885L854.377 90.5894L854.227 90.5904L854.077 90.5914L853.926 90.5923L853.775 90.5933L853.623 90.5943L853.47 90.5953L853.316 90.5963L853.162 90.5972L853.007 90.5982L852.851 90.5992L852.695 90.6002L852.538 90.6013L852.38 90.6023L852.222 90.6033L852.063 90.6043L851.903 90.6053L851.743 90.6064L851.582 90.6074L851.42 90.6084L851.257 90.6095L851.094 90.6105L850.931 90.6116L850.766 90.6126L850.601 90.6137L850.435 90.6148L850.269 90.6158L850.102 90.6169L849.934 90.618L849.766 90.6191L849.597 90.6201L849.427 90.6212L849.257 90.6223L849.086 90.6234L848.915 90.6245L848.742 90.6256L848.569 90.6267L848.396 90.6279L848.222 90.629L848.047 90.6301L847.871 90.6312L847.695 90.6324L847.519 90.6335L847.341 90.6346L847.163 90.6358L846.985 90.6369L846.805 90.6381L846.625 90.6392L846.445 90.6404L846.264 90.6416L846.082 90.6427L845.9 90.6439L845.717 90.6451L845.533 90.6462L845.349 90.6474L845.164 90.6486L844.978 90.6498L844.792 90.651L844.606 90.6522L844.418 90.6534L844.23 90.6546L844.042 90.6558L843.853 90.657L843.663 90.6583L843.472 90.6595L843.282 90.6607L843.09 90.6619L842.898 90.6632L842.705 90.6644L842.512 90.6657L842.318 90.6669L842.123 90.6682L841.928 90.6694L841.732 90.6707L841.536 90.6719L841.339 90.6732L841.141 90.6745L840.943 90.6757L840.745 90.677L840.545 90.6783L840.346 90.6796L840.145 90.6809L839.944 90.6821L839.743 90.6834L839.54 90.6847L839.338 90.686L839.134 90.6874L838.93 90.6887L838.726 90.69L838.521 90.6913L838.315 90.6926L838.109 90.6939L837.902 90.6953L837.695 90.6966L837.487 90.6979L837.279 90.6993L837.07 90.7006L836.86 90.702L836.65 90.7033L836.44 90.7047L836.229 90.706L836.017 90.7074L835.804 90.7087L835.592 90.7101L835.378 90.7115L835.164 90.7129L834.95 90.7142L834.735 90.7156L834.519 90.717L834.303 90.7184L834.086 90.7198L833.869 90.7212L833.652 90.7226L833.433 90.724L833.215 90.7254L832.995 90.7268L832.775 90.7282L832.555 90.7296L832.334 90.731L832.113 90.7325L831.891 90.7339L831.668 90.7353L831.445 90.7367L831.222 90.7382L830.998 90.7396L830.773 90.7411L830.548 90.7425L830.322 90.744L830.096 90.7454L829.87 90.7469L829.642 90.7483L829.415 90.7498L829.187 90.7512L828.958 90.7527L828.729 90.7542L828.499 90.7557L828.269 90.7571L828.038 90.7586L827.807 90.7601L827.575 90.7616L827.343 90.7631L827.111 90.7646L826.878 90.7661L826.644 90.7676L826.41 90.7691L826.175 90.7706L825.94 90.7721L825.704 90.7736L825.468 90.7751L825.232 90.7767L824.995 90.7782L824.757 90.7797L824.519 90.7812L824.281 90.7828L824.042 90.7843L823.802 90.7858L823.562 90.7874L823.322 90.7889L823.081 90.7905L822.84 90.792L822.598 90.7936L822.356 90.7951L822.113 90.7967L821.87 90.7982L821.626 90.7998L821.382 90.8014L821.138 90.803L820.892 90.8045L820.647 90.8061L820.401 90.8077L820.155 90.8093L819.908 90.8109L819.66 90.8124L819.413 90.814L819.165 90.8156L818.916 90.8172L818.667 90.8188L818.417 90.8204L818.167 90.822L817.917 90.8236L817.666 90.8253L817.415 90.8269L817.163 90.8285L816.911 90.8301L816.658 90.8317L816.405 90.8333L816.152 90.835L815.898 90.8366L815.644 90.8382L815.389 90.8399L815.134 90.8415L814.878 90.8432L814.622 90.8448L814.366 90.8465L814.109 90.8481L813.852 90.8498L813.594 90.8514L813.336 90.8531L813.077 90.8547L812.818 90.8564L812.559 90.8581L812.299 90.8597L812.039 90.8614L811.778 90.8631L811.517 90.8647L811.256 90.8664L810.994 90.8681L810.732 90.8698L810.47 90.8715L810.207 90.8732L809.943 90.8749L809.679 90.8766L809.415 90.8782L809.151 90.8799L808.886 90.8816L808.62 90.8834L808.355 90.8851L808.089 90.8868L807.822 90.8885L807.555 90.8902L807.288 90.8919L807.02 90.8936L806.752 90.8954L806.484 90.8971L806.215 90.8988L805.946 90.9005L805.676 90.9023L805.407 90.904L805.136 90.9057L804.866 90.9075L804.595 90.9092L804.323 90.911L804.052 90.9127L803.779 90.9144L803.507 90.9162L803.234 90.918L802.961 90.9197L802.687 90.9215L802.414 90.9232L802.139 90.925L801.865 90.9267L801.59 90.9285L801.314 90.9303L801.039 90.9321L800.763 90.9338L800.486 90.9356L800.21 90.9374L799.933 90.9392L799.655 90.9409L799.378 90.9427L799.099 90.9445L798.821 90.9463L798.542 90.9481L798.263 90.9499L797.984 90.9517L797.704 90.9535L797.424 90.9553L797.144 90.9571L796.863 90.9589L796.582 90.9607L796.3 90.9625L796.019 90.9643L795.737 90.9661L795.454 90.9679L795.172 90.9697L794.889 90.9716L794.605 90.9734L794.322 90.9752L794.038 90.977L793.754 90.9789L793.469 90.9807L793.184 90.9825L792.899 90.9843L792.613 90.9862L792.328 90.988L792.042 90.9898L791.755 90.9917L791.468 90.9935L791.182 90.9954L790.894 90.9972L790.607 90.9991L790.319 91.0009L790.031 91.0028L789.742 91.0046L789.453 91.0065L789.164 91.0083L788.875 91.0102L788.585 91.012L788.295 91.0139L788.005 91.0158L787.715 91.0176L787.424 91.0195L787.133 91.0214L786.842 91.0232L786.55 91.0251L786.258 91.027L785.966 91.0289L785.674 91.0308L785.381 91.0326L785.088 91.0345L784.795 91.0364L784.501 91.0383L784.207 91.0402L783.913 91.0421L783.619 91.0439L783.325 91.0458L783.03 91.0477L782.735 91.0496L782.439 91.0515L782.144 91.0534L781.848 91.0553L781.552 91.0572L781.256 91.0591L780.959 91.061L780.662 91.0629L780.365 91.0649L780.068 91.0668L779.77 91.0687L779.472 91.0706L779.174 91.0725L778.876 91.0744L778.577 91.0763L778.279 91.0783L777.98 91.0802L777.68 91.0821L777.381 91.084L777.081 91.0859L776.781 91.0879L776.481 91.0898L776.181 91.0917L775.88 91.0937L775.579 91.0956L775.279 91.0975L774.978 91.0995L774.678 91.1014L774.377 91.1033L774.077 91.1052L773.778 91.1072L773.478 91.1091L773.179 91.111L772.88 91.1129L772.581 91.1148L772.283 91.1168L771.984 91.1187L771.686 91.1206L771.389 91.1225L771.091 91.1244L770.794 91.1263L770.497 91.1282L770.2 91.1301L769.903 91.1321L769.607 91.134L769.311 91.1359L769.015 91.1378L768.719 91.1397L768.424 91.1416L768.129 91.1434L767.834 91.1453L767.54 91.1472L767.245 91.1491L766.951 91.151L766.658 91.1529L766.364 91.1548L766.071 91.1567L765.778 91.1585L765.485 91.1604L765.193 91.1623L764.901 91.1642L764.609 91.1661L764.317 91.1679L764.026 91.1698L763.735 91.1717L763.444 91.1735L763.154 91.1754L762.863 91.1773L762.573 91.1791L762.284 91.181L761.995 91.1829L761.705 91.1847L761.417 91.1866L761.128 91.1884L760.84 91.1903L760.552 91.1921L760.265 91.194L759.977 91.1958L759.69 91.1977L759.404 91.1995L759.117 91.2013L758.831 91.2032L758.545 91.205L758.26 91.2068L757.975 91.2087L757.69 91.2105L757.405 91.2123L757.121 91.2142L756.837 91.216L756.553 91.2178L756.27 91.2196L755.987 91.2214L755.704 91.2233L755.422 91.2251L755.14 91.2269L754.858 91.2287L754.577 91.2305L754.296 91.2323L754.015 91.2341L753.735 91.2359L753.455 91.2377L753.175 91.2395L752.896 91.2413L752.616 91.2431L752.338 91.2449L752.059 91.2467L751.781 91.2485L751.504 91.2502L751.226 91.252L750.949 91.2538L750.672 91.2556L750.396 91.2574L750.12 91.2591L749.844 91.2609L749.569 91.2627L749.294 91.2644L749.019 91.2662L748.745 91.268L748.471 91.2697L748.198 91.2715L747.925 91.2732L747.652 91.275L747.379 91.2767L747.107 91.2785L746.835 91.2802L746.564 91.282L746.293 91.2837L746.022 91.2854L745.752 91.2872L745.482 91.2889L745.213 91.2906L744.944 91.2924L744.675 91.2941L744.406 91.2958L744.138 91.2975L743.871 91.2993L743.604 91.301L743.337 91.3027L743.07 91.3044L742.804 91.3061L742.538 91.3078L742.273 91.3095L742.008 91.3112L741.743 91.3129L741.479 91.3146L741.216 91.3163L740.952 91.318L740.689 91.3197L740.427 91.3214L740.164 91.3231L739.903 91.3248L739.641 91.3264L739.38 91.3281L739.12 91.3298L738.86 91.3315L738.6 91.3331L738.341 91.3348L738.082 91.3365L737.823 91.3381L737.565 91.3398L737.307 91.3414L737.05 91.3431L736.793 91.3447L736.537 91.3464L736.281 91.348L736.025 91.3497L735.77 91.3513L735.515 91.3529L735.261 91.3546L735.007 91.3562L734.754 91.3578L734.5 91.3595L734.248 91.3611L733.996 91.3627L733.744 91.3643L733.493 91.3659L733.242 91.3675L732.991 91.3692L732.741 91.3708L732.492 91.3724L732.243 91.374L731.994 91.3756L731.746 91.3772L731.498 91.3787L731.251 91.3803L731.004 91.3819L730.758 91.3835L730.512 91.3851L730.266 91.3867L730.021 91.3882L729.777 91.3898L729.533 91.3914L729.289 91.3929L729.046 91.3945L728.803 91.3961L728.561 91.3976L728.319 91.3992L728.078 91.4007L727.837 91.4023L727.596 91.4038L727.357 91.4053L727.117 91.4069L726.878 91.4084L726.64 91.41L726.402 91.4115L726.164 91.413L725.927 91.4145L725.69 91.416L725.454 91.4176L725.219 91.4191L724.984 91.4206L724.749 91.4221L724.515 91.4236L724.281 91.4251L724.048 91.4266L723.815 91.4281L723.583 91.4296L723.352 91.4311L723.12 91.4326L722.89 91.434L722.66 91.4355L722.43 91.437L722.201 91.4385L721.972 91.4399L721.744 91.4414L721.516 91.4429L721.289 91.4443L721.063 91.4458L720.836 91.4472L720.611 91.4487L720.386 91.4501L720.161 91.4516L719.937 91.453L719.714 91.4544L719.491 91.4559L719.268 91.4573L719.046 91.4587L718.825 91.4602L718.604 91.4616L718.383 91.463L718.164 91.4644L717.944 91.4658L717.725 91.4672L717.507 91.4686L717.289 91.47L717.072 91.4714L716.856 91.4728L716.64 91.4742L716.424 91.4756L716.209 91.477L715.994 91.4783L715.781 91.4797L715.567 91.4811L715.354 91.4824L715.142 91.4838L714.93 91.4852L714.719 91.4865L714.508 91.4879L714.298 91.4892L714.089 91.4906L713.88 91.4919L713.671 91.4933L713.464 91.4946L713.256 91.4959L713.05 91.4972L712.843 91.4986L712.638 91.4999L712.433 91.5012L712.228 91.5025L712.024 91.5038L711.821 91.5051L711.618 91.5064L711.416 91.5077L711.215 91.509L711.014 91.5103L710.813 91.5116L710.613 91.5129L710.414 91.5142L710.215 91.5155L710.017 91.5167L709.82 91.518L709.623 91.5193L709.427 91.5205L709.231 91.5218L709.036 91.523L708.841 91.5243L708.647 91.5255L708.454 91.5268L708.261 91.528L708.069 91.5292L707.877 91.5305L707.686 91.5317L707.496 91.5329L707.306 91.5341L707.117 91.5354L706.928 91.5366L706.741 91.5378L706.553 91.539L706.366 91.5402L706.18 91.5414L705.995 91.5426L705.81 91.5437L705.626 91.5449L705.442 91.5461L705.259 91.5473L705.077 91.5485L704.895 91.5496L704.714 91.5508L704.533 91.552L704.353 91.5531L704.174 91.5543L703.996 91.5554L703.818 91.5565L703.64 91.5577L703.463 91.5588L703.287 91.56L703.112 91.5611L702.937 91.5622L702.763 91.5633L702.589 91.5644L702.417 91.5655L702.244 91.5667L702.073 91.5678L701.902 91.5689L701.731 91.5699L701.562 91.571L701.393 91.5721L701.224 91.5732L701.057 91.5743L700.89 91.5754L700.723 91.5764L700.558 91.5775L700.393 91.5785L700.228 91.5796L700.064 91.5807L699.901 91.5817L699.739 91.5827L699.577 91.5838L699.416 91.5848L699.256 91.5859L699.096 91.5869L698.937 91.5879L698.779 91.5889L698.621 91.5899L698.464 91.5909L698.308 91.5919L698.152 91.5929L697.997 91.5939L697.843 91.5949L697.689 91.5959L697.536 91.5969L697.384 91.5979L697.232 91.5988L697.081 91.5998L696.931 91.6008L696.782 91.6017L696.633 91.6027L696.485 91.6036L696.338 91.6046L696.191 91.6055L696.045 91.6065L695.9 91.6074L695.755 91.6083L695.611 91.6093L695.468 91.6102L695.326 91.6111L695.184 91.612L695.043 91.6129L694.902 91.6138L694.763 91.6147L694.624 91.6156L694.486 91.6165L694.348 91.6174L694.212 91.6183L694.076 91.6191L693.94 91.62L693.806 91.6209L693.672 91.6217L693.539 91.6226L693.406 91.6234L693.275 91.6243L693.144 91.6251L693.013 91.6259L692.884 91.6268L692.755 91.6276L692.627 91.6284L692.5 91.6292L692.373 91.6301L692.248 91.6309L692.123 91.6317L691.998 91.6325L691.875 91.6333L691.752 91.6341L691.63 91.6348L691.509 91.6356L691.388 91.6364L691.268 91.6372L691.149 91.6379L691.031 91.6387L690.913 91.6394L690.796 91.6402L690.68 91.6409L690.565 91.6417L690.451 91.6424L690.337 91.6431L690.224 91.6439L690.112 91.6446L690 91.6453L689.89 91.646L689.78 91.6467L689.671 91.6474L689.562 91.6481L689.455 91.6488L689.348 91.6495L689.242 91.6502L689.136 91.6509L689.032 91.6515L688.928 91.6522L688.825 91.6528L688.723 91.6535L688.622 91.6542L688.521 91.6548L688.422 91.6554L688.323 91.6561L688.224 91.6567L688.127 91.6573L688.03 91.658L687.935 91.6586L687.84 91.6592L687.745 91.6598L687.652 91.6604L687.559 91.661L687.468 91.6616L687.377 91.6622L687.286 91.6627L687.197 91.6633L687.108 91.6639L687.021 91.6644L686.934 91.665L686.848 91.6656L686.762 91.6661L686.678 91.6666L686.594 91.6672L686.511 91.6677L686.429 91.6682L686.348 91.6688L686.268 91.6693L686.188 91.6698L686.109 91.6703L686.031 91.6708L685.954 91.6713L685.878 91.6718L685.803 91.6723L685.728 91.6727L685.654 91.6732L685.581 91.6737L685.509 91.6742L685.438 91.6746L685.367 91.6751L685.298 91.6755L685.229 91.6759L685.161 91.6764Z" stroke="url(#paint1_linear)" stroke-width="5"/>
</g>
<g id="wave2">


<circle id="circle2" cx="422.269" cy="97.3196" r="93" fill="#99A3FF"/>

<path id="Ellipse 67_2" d="M331.58 90.5H331.534C332.858 41.6741 372.854 2.5 422 2.5C471.146 2.5 511.142 41.6741 512.466 90.5H512.42H512.352H512.283H512.214H512.143H512.072H512H511.927H511.853H511.779H511.703H511.627H511.55H511.472H511.393H511.314H511.233H511.152H511.07H510.987H510.903H510.819H510.734H510.647H510.56H510.473H510.384H510.295H510.205H510.114H510.022H509.929H509.836H509.742H509.647H509.551H509.454H509.357H509.259H509.16H509.06H508.959H508.858H508.756H508.653H508.549H508.445H508.339H508.233H508.127H508.019H507.911H507.802H507.692H507.581H507.469H507.357H507.244H507.131H507.016H506.901H506.785H506.668H506.55H506.432H506.313H506.193H506.073H505.951H505.829H505.706H505.583H505.459H505.333H505.208H505.081H504.954H504.826H504.697H504.568H504.437H504.306H504.175H504.042H503.909H503.775H503.641H503.506H503.369H503.233H503.095H502.957H502.818H502.679H502.538H502.397H502.255H502.113H501.97H501.826H501.681H501.536H501.39H501.243H501.096H500.948H500.799H500.65H500.5H500.349H500.197H500.045H499.892H499.738H499.584H499.429H499.273H499.117H498.96H498.802H498.644H498.485H498.325H498.165H498.004H497.842H497.68H497.517H497.353H497.188H497.023H496.858H496.691H496.524H496.357H496.188H496.019H495.85H495.679H495.508H495.337H495.164H494.992H494.818H494.644H494.469H494.294H494.117H493.941H493.763H493.585H493.407H493.227H493.048H492.867H492.686H492.504H492.322H492.139H491.955H491.771H491.586H491.4H491.214H491.028H490.84H490.652H490.464H490.275H490.085H489.895H489.704H489.512H489.32H489.127H488.934H488.74H488.545H488.35H488.154H487.958H487.761H487.563H487.365H487.167H486.967H486.768H486.567H486.366H486.164H485.962H485.76H485.556H485.352H485.148H484.943H484.737H484.531H484.324H484.117H483.909H483.701H483.492H483.282H483.072H482.862H482.65H482.439H482.226H482.013H481.8H481.586H481.372H481.157H480.941H480.725H480.508H480.291H480.073H479.855H479.636H479.417H479.197H478.977H478.756H478.534H478.312H478.09H477.867H477.643H477.419H477.195H476.97H476.744H476.518H476.291H476.064H475.837H475.608H475.38H475.151H474.921H474.691H474.46H474.229H473.997H473.765H473.532H473.299H473.066H472.831H472.597H472.362H472.126H471.89H471.653H471.416H471.179H470.941H470.702H470.463H470.224H469.984H469.744H469.503H469.261H469.02H468.777H468.535H468.291H468.048H467.804H467.559H467.314H467.069H466.823H466.576H466.329H466.082H465.834H465.586H465.337H465.088H464.839H464.589H464.338H464.088H463.836H463.585H463.332H463.08H462.827H462.573H462.319H462.065H461.81H461.555H461.299H461.043H460.787H460.53H460.273H460.015H459.757H459.499H459.24H458.98H458.721H458.46H458.2H457.939H457.677H457.416H457.153H456.891H456.628H456.365H456.101H455.837H455.572H455.307H455.042H454.776H454.51H454.243H453.977H453.709H453.442H453.174H452.905H452.636H452.367H452.098H451.828H451.558H451.287H451.016H450.744H450.473H450.201H449.928H449.655H449.382H449.109H448.835H448.56H448.286H448.011H447.736H447.46H447.184H446.908H446.631H446.354H446.076H445.799H445.521H445.242H444.963H444.684H444.405H444.125H443.845H443.565H443.284H443.003H442.721H442.44H442.158H441.875H441.593H441.31H441.026H440.743H440.459H440.175H439.89H439.605H439.32H439.034H438.749H438.463H438.176H437.889H437.602H437.315H437.028H436.74H436.451H436.163H435.874H435.585H435.296H435.006H434.716H434.426H434.136H433.845H433.554H433.262H432.971H432.679H432.387H432.094H431.802H431.509H431.215H430.922H430.628H430.334H430.04H429.745H429.451H429.155H428.86H428.565H428.269H427.973H427.676H427.38H427.083H426.786H426.488H426.191H425.893H425.595H425.297H424.998H424.699H424.4H424.101H423.802H423.502H423.202H422.902H422.601H422.301H422H421.699H421.399H421.098H420.798H420.498H420.198H419.899H419.6H419.301H419.002H418.703H418.405H418.107H417.809H417.512H417.214H416.917H416.62H416.324H416.027H415.731H415.435H415.14H414.845H414.549H414.255H413.96H413.666H413.372H413.078H412.785H412.491H412.198H411.906H411.613H411.321H411.029H410.738H410.446H410.155H409.864H409.574H409.284H408.994H408.704H408.415H408.126H407.837H407.549H407.26H406.972H406.685H406.398H406.111H405.824H405.537H405.251H404.966H404.68H404.395H404.11H403.825H403.541H403.257H402.974H402.69H402.407H402.125H401.842H401.56H401.279H400.997H400.716H400.435H400.155H399.875H399.595H399.316H399.037H398.758H398.479H398.201H397.924H397.646H397.369H397.092H396.816H396.54H396.264H395.989H395.714H395.44H395.165H394.891H394.618H394.345H394.072H393.799H393.527H393.256H392.984H392.713H392.442H392.172H391.902H391.633H391.364H391.095H390.826H390.558H390.291H390.023H389.757H389.49H389.224H388.958H388.693H388.428H388.163H387.899H387.635H387.372H387.109H386.847H386.584H386.323H386.061H385.8H385.54H385.279H385.02H384.76H384.501H384.243H383.985H383.727H383.47H383.213H382.957H382.7H382.445H382.19H381.935H381.681H381.427H381.173H380.92H380.668H380.415H380.164H379.912H379.662H379.411H379.161H378.912H378.663H378.414H378.166H377.918H377.671H377.424H377.177H376.931H376.686H376.441H376.196H375.952H375.709H375.465H375.223H374.98H374.739H374.497H374.256H374.016H373.776H373.537H373.298H373.059H372.821H372.584H372.347H372.11H371.874H371.638H371.403H371.169H370.934H370.701H370.468H370.235H370.003H369.771H369.54H369.309H369.079H368.849H368.62H368.392H368.163H367.936H367.709H367.482H367.256H367.03H366.805H366.581H366.357H366.133H365.91H365.688H365.466H365.244H365.023H364.803H364.583H364.364H364.145H363.927H363.709H363.492H363.275H363.059H362.843H362.628H362.414H362.2H361.987H361.774H361.561H361.35H361.138H360.928H360.718H360.508H360.299H360.091H359.883H359.676H359.469H359.263H359.057H358.852H358.648H358.444H358.24H358.038H357.836H357.634H357.433H357.233H357.033H356.833H356.635H356.437H356.239H356.042H355.846H355.65H355.455H355.26H355.066H354.873H354.68H354.488H354.296H354.105H353.915H353.725H353.536H353.348H353.16H352.972H352.786H352.6H352.414H352.229H352.045H351.861H351.678H351.496H351.314H351.133H350.952H350.773H350.593H350.415H350.237H350.059H349.883H349.706H349.531H349.356H349.182H349.008H348.836H348.663H348.492H348.321H348.151H347.981H347.812H347.643H347.476H347.309H347.142H346.977H346.812H346.647H346.483H346.32H346.158H345.996H345.835H345.675H345.515H345.356H345.198H345.04H344.883H344.727H344.571H344.416H344.262H344.108H343.955H343.803H343.651H343.5H343.35H343.201H343.052H342.904H342.757H342.61H342.464H342.319H342.174H342.03H341.887H341.745H341.603H341.462H341.321H341.182H341.043H340.905H340.767H340.631H340.494H340.359H340.225H340.091H339.958H339.825H339.694H339.563H339.432H339.303H339.174H339.046H338.919H338.792H338.667H338.541H338.417H338.294H338.171H338.049H337.927H337.807H337.687H337.568H337.45H337.332H337.215H337.099H336.984H336.869H336.756H336.643H336.531H336.419H336.308H336.198H336.089H335.981H335.873H335.767H335.661H335.555H335.451H335.347H335.244H335.142H335.041H334.94H334.84H334.741H334.643H334.546H334.449H334.353H334.258H334.164H334.071H333.978H333.886H333.795H333.705H333.616H333.527H333.44H333.353H333.266H333.181H333.097H333.013H332.93H332.848H332.767H332.686H332.607H332.528H332.45H332.373H332.297H332.221H332.147H332.073H332H331.928H331.857H331.786H331.717H331.648H331.58Z" stroke="url(#paint2_linear)" stroke-width="5"/>
</g>
<g id="wave1">
<g id="cutoff_2">
<mask id="mask1" mask-type="alpha" maskUnits="userSpaceOnUse" x="0" y="3" width="163" height="188">
<path id="Vector 10_2" d="M1.26855 35.847V160.847C15.2686 176.847 36.7686 186.533 49.2686 188.347C61.7686 190.162 77.7686 190.347 86.2686 188.847C94.7686 187.347 135.269 177.347 152.769 137.847C170.269 98.3472 158.269 70.3471 158.269 70.3471C158.269 70.3471 152.769 51.8472 141.769 38.3472C131.991 26.3472 119.769 18.8471 112.269 14.847C100.081 8.34692 83.2618 3.9279 70.2686 4.34704C54.7686 4.84705 52.1136 4.81246 38.2686 9.84704C27.2686 13.847 7.66855 22.647 1.26855 35.847Z" fill="#99A3FF" stroke="black"/>
</mask>
<g mask="url(#mask1)">
<circle id="circle1" cx="70.2686" cy="98.3196" r="93" fill="#99A3FF"/>
<path id="Ellipse 67_3" d="M-21.42 94.5H-21.4661C-20.1419 45.6741 19.8543 6.5 69 6.5C118.146 6.5 158.142 45.6741 159.466 94.5H159.42H159.352H159.283H159.214H159.143H159.072H159H158.927H158.853H158.779H158.703H158.627H158.55H158.472H158.393H158.314H158.233H158.152H158.07H157.987H157.903H157.819H157.734H157.647H157.56H157.473H157.384H157.295H157.205H157.114H157.022H156.929H156.836H156.742H156.647H156.551H156.454H156.357H156.259H156.16H156.06H155.959H155.858H155.756H155.653H155.549H155.445H155.339H155.233H155.127H155.019H154.911H154.802H154.692H154.581H154.469H154.357H154.244H154.131H154.016H153.901H153.785H153.668H153.55H153.432H153.313H153.193H153.073H152.951H152.829H152.706H152.583H152.459H152.333H152.208H152.081H151.954H151.826H151.697H151.568H151.437H151.306H151.175H151.042H150.909H150.775H150.641H150.506H150.369H150.233H150.095H149.957H149.818H149.679H149.538H149.397H149.255H149.113H148.97H148.826H148.681H148.536H148.39H148.243H148.096H147.948H147.799H147.65H147.5H147.349H147.197H147.045H146.892H146.738H146.584H146.429H146.273H146.117H145.96H145.802H145.644H145.485H145.325H145.165H145.004H144.842H144.68H144.517H144.353H144.188H144.023H143.858H143.691H143.524H143.357H143.188H143.019H142.85H142.679H142.508H142.337H142.164H141.992H141.818H141.644H141.469H141.294H141.117H140.941H140.763H140.585H140.407H140.227H140.048H139.867H139.686H139.504H139.322H139.139H138.955H138.771H138.586H138.4H138.214H138.028H137.84H137.652H137.464H137.275H137.085H136.895H136.704H136.512H136.32H136.127H135.934H135.74H135.545H135.35H135.154H134.958H134.761H134.563H134.365H134.167H133.967H133.768H133.567H133.366H133.164H132.962H132.76H132.556H132.352H132.148H131.943H131.737H131.531H131.324H131.117H130.909H130.701H130.492H130.282H130.072H129.862H129.65H129.439H129.226H129.013H128.8H128.586H128.372H128.157H127.941H127.725H127.508H127.291H127.073H126.855H126.636H126.417H126.197H125.977H125.756H125.534H125.312H125.09H124.867H124.643H124.419H124.195H123.97H123.744H123.518H123.291H123.064H122.837H122.608H122.38H122.151H121.921H121.691H121.46H121.229H120.997H120.765H120.532H120.299H120.066H119.831H119.597H119.362H119.126H118.89H118.653H118.416H118.179H117.941H117.702H117.463H117.224H116.984H116.744H116.503H116.261H116.02H115.777H115.535H115.291H115.048H114.804H114.559H114.314H114.069H113.823H113.576H113.329H113.082H112.834H112.586H112.337H112.088H111.839H111.589H111.338H111.088H110.836H110.585H110.332H110.08H109.827H109.573H109.319H109.065H108.81H108.555H108.299H108.043H107.787H107.53H107.273H107.015H106.757H106.499H106.24H105.98H105.721H105.46H105.2H104.939H104.677H104.416H104.153H103.891H103.628H103.365H103.101H102.837H102.572H102.307H102.042H101.776H101.51H101.243H100.977H100.709H100.442H100.174H99.9052H99.6364H99.3672H99.0977H98.8278H98.5575H98.2869H98.0159H97.7445H97.4728H97.2007H96.9282H96.6554H96.3822H96.1086H95.8347H95.5605H95.2858H95.0109H94.7356H94.4599H94.1839H93.9075H93.6308H93.3538H93.0764H92.7986H92.5206H92.2421H91.9634H91.6843H91.4049H91.1252H90.8451H90.5647H90.2839H90.0029H89.7215H89.4398H89.1577H88.8754H88.5927H88.3097H88.0264H87.7427H87.4588H87.1745H86.89H86.6051H86.3199H86.0344H85.7486H85.4625H85.1761H84.8894H84.6024H84.3151H84.0275H83.7396H83.4515H83.163H82.8742H82.5852H82.2958H82.0062H81.7163H81.426H81.1356H80.8448H80.5537H80.2624H79.9708H79.6789H79.3868H79.0944H78.8017H78.5087H78.2155H77.922H77.6282H77.3342H77.0399H76.7453H76.4505H76.1555H75.8601H75.5645H75.2687H74.9726H74.6763H74.3797H74.0829H73.7858H73.4884H73.1909H72.893H72.595H72.2967H71.9982H71.6994H71.4004H71.1011H70.8017H70.5019H70.202H69.9018H69.6015H69.3008H69H68.6992H68.3985H68.0982H67.798H67.4981H67.1983H66.8989H66.5996H66.3006H66.0018H65.7033H65.405H65.107H64.8091H64.5116H64.2142H63.9171H63.6203H63.3237H63.0274H62.7313H62.4355H62.1399H61.8445H61.5495H61.2547H60.9601H60.6658H60.3718H60.078H59.7845H59.4913H59.1983H58.9056H58.6132H58.3211H58.0292H57.7376H57.4463H57.1552H56.8644H56.574H56.2837H55.9938H55.7042H55.4148H55.1258H54.837H54.5485H54.2604H53.9725H53.6849H53.3976H53.1106H52.8239H52.5375H52.2514H51.9656H51.6801H51.3949H51.11H50.8255H50.5412H50.2573H49.9736H49.6903H49.4073H49.1246H48.8423H48.5602H48.2785H47.9971H47.7161H47.4353H47.1549H46.8748H46.5951H46.3157H46.0366H45.7579H45.4794H45.2014H44.9236H44.6462H44.3692H44.0925H43.8161H43.5401H43.2644H42.9891H42.7142H42.4395H42.1653H41.8914H41.6178H41.3446H41.0718H40.7993H40.5272H40.2555H39.9841H39.7131H39.4425H39.1722H38.9023H38.6328H38.3636H38.0948H37.8264H37.5584H37.2907H37.0235H36.7566H36.4901H36.224H35.9583H35.6929H35.428H35.1634H34.8992H34.6355H34.3721H34.1091H33.8465H33.5843H33.3226H33.0612H32.8002H32.5396H32.2795H32.0197H31.7604H31.5014H31.2429H30.9848H30.7271H30.4698H30.213H29.9565H29.7005H29.4449H29.1897H28.935H28.6807H28.4268H28.1733H27.9203H27.6677H27.4155H27.1638H26.9125H26.6616H26.4112H26.1612H25.9117H25.6626H25.4139H25.1657H24.918H24.6707H24.4238H24.1774H23.9315H23.686H23.441H23.1964H22.9523H22.7086H22.4654H22.2227H21.9804H21.7386H21.4973H21.2564H21.016H20.7761H20.5367H20.2977H20.0592H19.8212H19.5837H19.3466H19.11H18.8739H18.6383H18.4032H18.1686H17.9345H17.7008H17.4676H17.235H17.0028H16.7711H16.54H16.3093H16.0791H15.8494H15.6203H15.3916H15.1635H14.9358H14.7087H14.482H14.2559H14.0303H13.8052H13.5807H13.3566H13.1331H12.9101H12.6876H12.4656H12.2442H12.0233H11.8029H11.583H11.3637H11.1449H10.9266H10.7089H10.4917H10.2751H10.0589H9.84336H9.62833H9.41385H9.19991H8.98651H8.77366H8.56136H8.34961H8.13842H7.92778H7.71769H7.50816H7.29919H7.09077H6.88292H6.67563H6.4689H6.26274H6.05714H5.85211H5.64766H5.44377H5.24045H5.03771H4.83554H4.63395H4.43294H4.2325H4.03265H3.83338H3.63469H3.43659H3.23907H3.04214H2.8458H2.65005H2.4549H2.26033H2.06636H1.87299H1.68022H1.48804H1.29647H1.1055H0.915127H0.725363H0.536205H0.347656H0.159716H-0.0276146H-0.214333H-0.400438H-0.585928H-0.7708H-0.955055H-1.13869H-1.32171H-1.5041H-1.68587H-1.86702H-2.04754H-2.22743H-2.40669H-2.58532H-2.76332H-2.94069H-3.11742H-3.29351H-3.46897H-3.64379H-3.81796H-3.9915H-4.16439H-4.33664H-4.50824H-4.67919H-4.8495H-5.01915H-5.18815H-5.3565H-5.52419H-5.69123H-5.85761H-6.02333H-6.18839H-6.35279H-6.51652H-6.67959H-6.84199H-7.00373H-7.16479H-7.32519H-7.48491H-7.64396H-7.80234H-7.96004H-8.11706H-8.2734H-8.42906H-8.58404H-8.73834H-8.89195H-9.04488H-9.19712H-9.34867H-9.49952H-9.64969H-9.79916H-9.94794H-10.096H-10.2434H-10.3901H-10.5361H-10.6814H-10.8259H-10.9698H-11.113H-11.2554H-11.3972H-11.5382H-11.6786H-11.8182H-11.9571H-12.0953H-12.2327H-12.3695H-12.5055H-12.6408H-12.7754H-12.9093H-13.0424H-13.1748H-13.3065H-13.4374H-13.5676H-13.6971H-13.8259H-13.9539H-14.0811H-14.2077H-14.3335H-14.4585H-14.5828H-14.7064H-14.8292H-14.9513H-15.0726H-15.1931H-15.313H-15.432H-15.5503H-15.6679H-15.7847H-15.9007H-16.016H-16.1305H-16.2443H-16.3572H-16.4695H-16.5809H-16.6916H-16.8015H-16.9107H-17.019H-17.1266H-17.2334H-17.3395H-17.4447H-17.5492H-17.6529H-17.7558H-17.858H-17.9593H-18.0599H-18.1596H-18.2586H-18.3568H-18.4542H-18.5508H-18.6466H-18.7416H-18.8358H-18.9292H-19.0218H-19.1136H-19.2046H-19.2948H-19.3842H-19.4727H-19.5605H-19.6474H-19.7336H-19.8189H-19.9034H-19.9871H-20.07H-20.152H-20.2332H-20.3137H-20.3932H-20.472H-20.5499H-20.627H-20.7033H-20.7787H-20.8533H-20.9271H-21H-21.0721H-21.1434H-21.2138H-21.2834H-21.3521H-21.42Z" stroke="url(#paint3_linear)" stroke-width="5"/>
</g>
</g>
</g>
</g>
<defs>
<linearGradient id="paint0_linear" x1="1128.28" y1="3.68066" x2="1128.28" y2="96.6807" gradientUnits="userSpaceOnUse">
<stop stop-color="#C7CCFF"/>
<stop offset="1" stop-color="#99A3FF"/>
</linearGradient>
<linearGradient id="paint1_linear" x1="774.998" y1="0.597457" x2="775.595" y2="93.5955" gradientUnits="userSpaceOnUse">
<stop stop-color="#C7CCFF"/>
<stop offset="1" stop-color="#99A3FF"/>
</linearGradient>
<linearGradient id="paint2_linear" x1="422" y1="0" x2="422" y2="93" gradientUnits="userSpaceOnUse">
<stop stop-color="#C7CCFF"/>
<stop offset="1" stop-color="#99A3FF"/>
</linearGradient>
<linearGradient id="paint3_linear" x1="69" y1="4" x2="69" y2="97" gradientUnits="userSpaceOnUse">
<stop stop-color="#C7CCFF"/>
<stop offset="1" stop-color="#99A3FF"/>
</linearGradient>
</defs>
</svg>
