<svg width="1154" height="1217" viewBox="0 0 1154 1217" fill="none" xmlns="http://www.w3.org/2000/svg">
<rect x="0.731445" y="130" width="1152" height="1087" fill="#99A3FF"/>
<circle cx="246" cy="93" r="93" fill="white"/>
<circle cx="950" cy="93" r="93" fill="white"/>
<circle cx="774" cy="151" r="93" fill="#99A3FF"/>
<circle cx="598" cy="93" r="93" fill="white"/>
<circle cx="422" cy="151" r="93" fill="#99A3FF"/>
<mask id="mask0" mask-type="alpha" maskUnits="userSpaceOnUse" x="0" y="57" width="163" height="188">
<path d="M1 89.5275V214.527C15 230.528 36.5 240.213 49 242.028C61.5 243.842 77.5 244.028 86 242.528C94.5 241.028 135 231.028 152.5 191.528C170 152.028 158 124.028 158 124.028C158 124.028 152.5 105.528 141.5 92.0276C131.722 80.0276 119.5 72.5276 112 68.5275C99.8128 62.0273 82.9932 57.6083 70 58.0275C54.5 58.5275 51.8451 58.4929 38 63.5275C27 67.5275 7.4 76.3275 1 89.5275Z" fill="#99A3FF" stroke="black"/>
</mask>
<g mask="url(#mask0)">
<circle cx="70" cy="152" r="93" fill="#99A3FF"/>
</g>
<path d="M1153 145.041C1153 197.995 1153 240.922 1153 240.922C1070.47 250.201 1034 197.995 1034 145.041C1034 92.088 1091.5 43.5 1153 61.4998C1153 61.4998 1153 92.088 1153 145.041Z" fill="#99A3FF"/>
</svg>
