<svg width="1155" height="1161" viewBox="0 0 1155 1161" fill="none" xmlns="http://www.w3.org/2000/svg">
<rect x="1" y="73.3196" width="1152" height="1087" fill="#99A3FF"/>
<mask id="mask0" mask-type="alpha" maskUnits="userSpaceOnUse" x="0" y="0" width="163" height="188">
<path d="M1.26855 32.847V157.847C15.2686 173.847 36.7686 183.533 49.2686 185.347C61.7686 187.162 77.7686 187.347 86.2686 185.847C94.7686 184.347 135.269 174.347 152.769 134.847C170.269 95.3472 158.269 67.3471 158.269 67.3471C158.269 67.3471 152.769 48.8472 141.769 35.3472C131.991 23.3472 119.769 15.8471 112.269 11.847C100.081 5.34692 83.2618 0.927899 70.2686 1.34704C54.7686 1.84705 52.1136 1.81246 38.2686 6.84704C27.2686 10.847 7.66855 19.647 1.26855 32.847Z" fill="#99A3FF" stroke="black"/>
</mask>
<g mask="url(#mask0)">
<circle cx="70.2686" cy="95.3196" r="93" fill="#99A3FF"/>
<path d="M-21.42 91.5H-21.4661C-20.1419 42.6741 19.8543 3.5 69 3.5C118.146 3.5 158.142 42.6741 159.466 91.5H159.42H159.352H159.283H159.214H159.143H159.072H159H158.927H158.853H158.779H158.703H158.627H158.55H158.472H158.393H158.314H158.233H158.152H158.07H157.987H157.903H157.819H157.734H157.647H157.56H157.473H157.384H157.295H157.205H157.114H157.022H156.929H156.836H156.742H156.647H156.551H156.454H156.357H156.259H156.16H156.06H155.959H155.858H155.756H155.653H155.549H155.445H155.339H155.233H155.127H155.019H154.911H154.802H154.692H154.581H154.469H154.357H154.244H154.131H154.016H153.901H153.785H153.668H153.55H153.432H153.313H153.193H153.073H152.951H152.829H152.706H152.583H152.459H152.333H152.208H152.081H151.954H151.826H151.697H151.568H151.437H151.306H151.175H151.042H150.909H150.775H150.641H150.506H150.369H150.233H150.095H149.957H149.818H149.679H149.538H149.397H149.255H149.113H148.97H148.826H148.681H148.536H148.39H148.243H148.096H147.948H147.799H147.65H147.5H147.349H147.197H147.045H146.892H146.738H146.584H146.429H146.273H146.117H145.96H145.802H145.644H145.485H145.325H145.165H145.004H144.842H144.68H144.517H144.353H144.188H144.023H143.858H143.691H143.524H143.357H143.188H143.019H142.85H142.679H142.508H142.337H142.164H141.992H141.818H141.644H141.469H141.294H141.117H140.941H140.763H140.585H140.407H140.227H140.048H139.867H139.686H139.504H139.322H139.139H138.955H138.771H138.586H138.4H138.214H138.028H137.84H137.652H137.464H137.275H137.085H136.895H136.704H136.512H136.32H136.127H135.934H135.74H135.545H135.35H135.154H134.958H134.761H134.563H134.365H134.167H133.967H133.768H133.567H133.366H133.164H132.962H132.76H132.556H132.352H132.148H131.943H131.737H131.531H131.324H131.117H130.909H130.701H130.492H130.282H130.072H129.862H129.65H129.439H129.226H129.013H128.8H128.586H128.372H128.157H127.941H127.725H127.508H127.291H127.073H126.855H126.636H126.417H126.197H125.977H125.756H125.534H125.312H125.09H124.867H124.643H124.419H124.195H123.97H123.744H123.518H123.291H123.064H122.837H122.608H122.38H122.151H121.921H121.691H121.46H121.229H120.997H120.765H120.532H120.299H120.066H119.831H119.597H119.362H119.126H118.89H118.653H118.416H118.179H117.941H117.702H117.463H117.224H116.984H116.744H116.503H116.261H116.02H115.777H115.535H115.291H115.048H114.804H114.559H114.314H114.069H113.823H113.576H113.329H113.082H112.834H112.586H112.337H112.088H111.839H111.589H111.338H111.088H110.836H110.585H110.332H110.08H109.827H109.573H109.319H109.065H108.81H108.555H108.299H108.043H107.787H107.53H107.273H107.015H106.757H106.499H106.24H105.98H105.721H105.46H105.2H104.939H104.677H104.416H104.153H103.891H103.628H103.365H103.101H102.837H102.572H102.307H102.042H101.776H101.51H101.243H100.977H100.709H100.442H100.174H99.9052H99.6364H99.3672H99.0977H98.8278H98.5575H98.2869H98.0159H97.7445H97.4728H97.2007H96.9282H96.6554H96.3822H96.1086H95.8347H95.5605H95.2858H95.0109H94.7356H94.4599H94.1839H93.9075H93.6308H93.3538H93.0764H92.7986H92.5206H92.2421H91.9634H91.6843H91.4049H91.1252H90.8451H90.5647H90.2839H90.0029H89.7215H89.4398H89.1577H88.8754H88.5927H88.3097H88.0264H87.7427H87.4588H87.1745H86.89H86.6051H86.3199H86.0344H85.7486H85.4625H85.1761H84.8894H84.6024H84.3151H84.0275H83.7396H83.4515H83.163H82.8742H82.5852H82.2958H82.0062H81.7163H81.426H81.1356H80.8448H80.5537H80.2624H79.9708H79.6789H79.3868H79.0944H78.8017H78.5087H78.2155H77.922H77.6282H77.3342H77.0399H76.7453H76.4505H76.1555H75.8601H75.5645H75.2687H74.9726H74.6763H74.3797H74.0829H73.7858H73.4884H73.1909H72.893H72.595H72.2967H71.9982H71.6994H71.4004H71.1011H70.8017H70.5019H70.202H69.9018H69.6015H69.3008H69H68.6992H68.3985H68.0982H67.798H67.4981H67.1983H66.8989H66.5996H66.3006H66.0018H65.7033H65.405H65.107H64.8091H64.5116H64.2142H63.9171H63.6203H63.3237H63.0274H62.7313H62.4355H62.1399H61.8445H61.5495H61.2547H60.9601H60.6658H60.3718H60.078H59.7845H59.4913H59.1983H58.9056H58.6132H58.3211H58.0292H57.7376H57.4463H57.1552H56.8644H56.574H56.2837H55.9938H55.7042H55.4148H55.1258H54.837H54.5485H54.2604H53.9725H53.6849H53.3976H53.1106H52.8239H52.5375H52.2514H51.9656H51.6801H51.3949H51.11H50.8255H50.5412H50.2573H49.9736H49.6903H49.4073H49.1246H48.8423H48.5602H48.2785H47.9971H47.7161H47.4353H47.1549H46.8748H46.5951H46.3157H46.0366H45.7579H45.4794H45.2014H44.9236H44.6462H44.3692H44.0925H43.8161H43.5401H43.2644H42.9891H42.7142H42.4395H42.1653H41.8914H41.6178H41.3446H41.0718H40.7993H40.5272H40.2555H39.9841H39.7131H39.4425H39.1722H38.9023H38.6328H38.3636H38.0948H37.8264H37.5584H37.2907H37.0235H36.7566H36.4901H36.224H35.9583H35.6929H35.428H35.1634H34.8992H34.6355H34.3721H34.1091H33.8465H33.5843H33.3226H33.0612H32.8002H32.5396H32.2795H32.0197H31.7604H31.5014H31.2429H30.9848H30.7271H30.4698H30.213H29.9565H29.7005H29.4449H29.1897H28.935H28.6807H28.4268H28.1733H27.9203H27.6677H27.4155H27.1638H26.9125H26.6616H26.4112H26.1612H25.9117H25.6626H25.4139H25.1657H24.918H24.6707H24.4238H24.1774H23.9315H23.686H23.441H23.1964H22.9523H22.7086H22.4654H22.2227H21.9804H21.7386H21.4973H21.2564H21.016H20.7761H20.5367H20.2977H20.0592H19.8212H19.5837H19.3466H19.11H18.8739H18.6383H18.4032H18.1686H17.9345H17.7008H17.4676H17.235H17.0028H16.7711H16.54H16.3093H16.0791H15.8494H15.6203H15.3916H15.1635H14.9358H14.7087H14.482H14.2559H14.0303H13.8052H13.5807H13.3566H13.1331H12.9101H12.6876H12.4656H12.2442H12.0233H11.8029H11.583H11.3637H11.1449H10.9266H10.7089H10.4917H10.2751H10.0589H9.84336H9.62833H9.41385H9.19991H8.98651H8.77366H8.56136H8.34961H8.13842H7.92778H7.71769H7.50816H7.29919H7.09077H6.88292H6.67563H6.4689H6.26274H6.05714H5.85211H5.64766H5.44377H5.24045H5.03771H4.83554H4.63395H4.43294H4.2325H4.03265H3.83338H3.63469H3.43659H3.23907H3.04214H2.8458H2.65005H2.4549H2.26033H2.06636H1.87299H1.68022H1.48804H1.29647H1.1055H0.915127H0.725363H0.536205H0.347656H0.159716H-0.0276146H-0.214333H-0.400438H-0.585928H-0.7708H-0.955055H-1.13869H-1.32171H-1.5041H-1.68587H-1.86702H-2.04754H-2.22743H-2.40669H-2.58532H-2.76332H-2.94069H-3.11742H-3.29351H-3.46897H-3.64379H-3.81796H-3.9915H-4.16439H-4.33664H-4.50824H-4.67919H-4.8495H-5.01915H-5.18815H-5.3565H-5.52419H-5.69123H-5.85761H-6.02333H-6.18839H-6.35279H-6.51652H-6.67959H-6.84199H-7.00373H-7.16479H-7.32519H-7.48491H-7.64396H-7.80234H-7.96004H-8.11706H-8.2734H-8.42906H-8.58404H-8.73834H-8.89195H-9.04488H-9.19712H-9.34867H-9.49952H-9.64969H-9.79916H-9.94794H-10.096H-10.2434H-10.3901H-10.5361H-10.6814H-10.8259H-10.9698H-11.113H-11.2554H-11.3972H-11.5382H-11.6786H-11.8182H-11.9571H-12.0953H-12.2327H-12.3695H-12.5055H-12.6408H-12.7754H-12.9093H-13.0424H-13.1748H-13.3065H-13.4374H-13.5676H-13.6971H-13.8259H-13.9539H-14.0811H-14.2077H-14.3335H-14.4585H-14.5828H-14.7064H-14.8292H-14.9513H-15.0726H-15.1931H-15.313H-15.432H-15.5503H-15.6679H-15.7847H-15.9007H-16.016H-16.1305H-16.2443H-16.3572H-16.4695H-16.5809H-16.6916H-16.8015H-16.9107H-17.019H-17.1266H-17.2334H-17.3395H-17.4447H-17.5492H-17.6529H-17.7558H-17.858H-17.9593H-18.0599H-18.1596H-18.2586H-18.3568H-18.4542H-18.5508H-18.6466H-18.7416H-18.8358H-18.9292H-19.0218H-19.1136H-19.2046H-19.2948H-19.3842H-19.4727H-19.5605H-19.6474H-19.7336H-19.8189H-19.9034H-19.9871H-20.07H-20.152H-20.2332H-20.3137H-20.3932H-20.472H-20.5499H-20.627H-20.7033H-20.7787H-20.8533H-20.9271H-21H-21.0721H-21.1434H-21.2138H-21.2834H-21.3521H-21.42Z" stroke="url(#paint0_linear)" stroke-width="5"/>
</g>
<circle cx="422.269" cy="94.3196" r="93" fill="#99A3FF"/>
<circle cx="775" cy="94" r="93" fill="#99A3FF"/>
<path d="M1154 88.3612C1154 141.315 1154 184.242 1154 184.242C1071.47 193.521 1035 141.315 1035 88.3612C1035 35.4078 1092.5 -13.1802 1154 4.81961C1154 4.81961 1154 35.4078 1154 88.3612Z" fill="#99A3FF"/>
<path d="M688 47C688 96.1533 647.929 136 598.5 136C549.071 136 509 96.1533 509 47C509 47 549.071 47 598.5 47C647.929 47 688 47 688 47Z" fill="white"/>
<path d="M688 47C688 96.1533 647.929 136 598.5 136C549.071 136 509 96.1533 509 47C509 47 549.071 47 598.5 47C647.929 47 688 47 688 47Z" fill="white"/>
<path d="M1040 47C1040 96.1533 999.929 136 950.5 136C901.071 136 861 96.1533 861 47C861 47 901.071 47 950.5 47C999.929 47 1040 47 1040 47Z" fill="white"/>
<path d="M336 47C336 96.1533 295.929 136 246.5 136C197.071 136 157 96.1533 157 47C157 47 197.071 47 246.5 47C295.929 47 336 47 336 47Z" fill="white"/>
<path d="M684.58 91.5H684.534C685.858 42.6741 725.854 3.5 775 3.5C824.146 3.5 864.142 42.6741 865.466 91.5H865.42H865.352H865.283H865.214H865.143H865.072H865H864.927H864.853H864.779H864.703H864.627H864.55H864.472H864.393H864.314H864.233H864.152H864.07H863.987H863.903H863.819H863.734H863.647H863.56H863.473H863.384H863.295H863.205H863.114H863.022H862.929H862.836H862.742H862.647H862.551H862.454H862.357H862.259H862.16H862.06H861.959H861.858H861.756H861.653H861.549H861.445H861.339H861.233H861.127H861.019H860.911H860.802H860.692H860.581H860.469H860.357H860.244H860.131H860.016H859.901H859.785H859.668H859.55H859.432H859.313H859.193H859.073H858.951H858.829H858.706H858.583H858.459H858.333H858.208H858.081H857.954H857.826H857.697H857.568H857.437H857.306H857.175H857.042H856.909H856.775H856.641H856.506H856.369H856.233H856.095H855.957H855.818H855.679H855.538H855.397H855.255H855.113H854.97H854.826H854.681H854.536H854.39H854.243H854.096H853.948H853.799H853.65H853.5H853.349H853.197H853.045H852.892H852.738H852.584H852.429H852.273H852.117H851.96H851.802H851.644H851.485H851.325H851.165H851.004H850.842H850.68H850.517H850.353H850.188H850.023H849.858H849.691H849.524H849.357H849.188H849.019H848.85H848.679H848.508H848.337H848.164H847.992H847.818H847.644H847.469H847.294H847.117H846.941H846.763H846.585H846.407H846.227H846.048H845.867H845.686H845.504H845.322H845.139H844.955H844.771H844.586H844.4H844.214H844.028H843.84H843.652H843.464H843.275H843.085H842.895H842.704H842.512H842.32H842.127H841.934H841.74H841.545H841.35H841.154H840.958H840.761H840.563H840.365H840.167H839.967H839.768H839.567H839.366H839.164H838.962H838.76H838.556H838.352H838.148H837.943H837.737H837.531H837.324H837.117H836.909H836.701H836.492H836.282H836.072H835.862H835.65H835.439H835.226H835.013H834.8H834.586H834.372H834.157H833.941H833.725H833.508H833.291H833.073H832.855H832.636H832.417H832.197H831.977H831.756H831.534H831.312H831.09H830.867H830.643H830.419H830.195H829.97H829.744H829.518H829.291H829.064H828.837H828.608H828.38H828.151H827.921H827.691H827.46H827.229H826.997H826.765H826.532H826.299H826.066H825.831H825.597H825.362H825.126H824.89H824.653H824.416H824.179H823.941H823.702H823.463H823.224H822.984H822.744H822.503H822.261H822.02H821.777H821.535H821.291H821.048H820.804H820.559H820.314H820.069H819.823H819.576H819.329H819.082H818.834H818.586H818.337H818.088H817.839H817.589H817.338H817.088H816.836H816.585H816.332H816.08H815.827H815.573H815.319H815.065H814.81H814.555H814.299H814.043H813.787H813.53H813.273H813.015H812.757H812.499H812.24H811.98H811.721H811.46H811.2H810.939H810.677H810.416H810.153H809.891H809.628H809.365H809.101H808.837H808.572H808.307H808.042H807.776H807.51H807.243H806.977H806.709H806.442H806.174H805.905H805.636H805.367H805.098H804.828H804.558H804.287H804.016H803.744H803.473H803.201H802.928H802.655H802.382H802.109H801.835H801.56H801.286H801.011H800.736H800.46H800.184H799.908H799.631H799.354H799.076H798.799H798.521H798.242H797.963H797.684H797.405H797.125H796.845H796.565H796.284H796.003H795.721H795.44H795.158H794.875H794.593H794.31H794.026H793.743H793.459H793.175H792.89H792.605H792.32H792.034H791.749H791.463H791.176H790.889H790.602H790.315H790.028H789.74H789.451H789.163H788.874H788.585H788.296H788.006H787.716H787.426H787.136H786.845H786.554H786.262H785.971H785.679H785.387H785.094H784.802H784.509H784.215H783.922H783.628H783.334H783.04H782.745H782.451H782.155H781.86H781.565H781.269H780.973H780.676H780.38H780.083H779.786H779.488H779.191H778.893H778.595H778.297H777.998H777.699H777.4H777.101H776.802H776.502H776.202H775.902H775.601H775.301H775H774.699H774.399H774.098H773.798H773.498H773.198H772.899H772.6H772.301H772.002H771.703H771.405H771.107H770.809H770.512H770.214H769.917H769.62H769.324H769.027H768.731H768.435H768.14H767.845H767.549H767.255H766.96H766.666H766.372H766.078H765.785H765.491H765.198H764.906H764.613H764.321H764.029H763.738H763.446H763.155H762.864H762.574H762.284H761.994H761.704H761.415H761.126H760.837H760.549H760.26H759.972H759.685H759.398H759.111H758.824H758.537H758.251H757.966H757.68H757.395H757.11H756.825H756.541H756.257H755.974H755.69H755.407H755.125H754.842H754.56H754.279H753.997H753.716H753.435H753.155H752.875H752.595H752.316H752.037H751.758H751.479H751.201H750.924H750.646H750.369H750.092H749.816H749.54H749.264H748.989H748.714H748.44H748.165H747.891H747.618H747.345H747.072H746.799H746.527H746.256H745.984H745.713H745.442H745.172H744.902H744.633H744.364H744.095H743.826H743.558H743.291H743.023H742.757H742.49H742.224H741.958H741.693H741.428H741.163H740.899H740.635H740.372H740.109H739.847H739.584H739.323H739.061H738.8H738.54H738.279H738.02H737.76H737.501H737.243H736.985H736.727H736.47H736.213H735.957H735.7H735.445H735.19H734.935H734.681H734.427H734.173H733.92H733.668H733.415H733.164H732.912H732.662H732.411H732.161H731.912H731.663H731.414H731.166H730.918H730.671H730.424H730.177H729.931H729.686H729.441H729.196H728.952H728.709H728.465H728.223H727.98H727.739H727.497H727.256H727.016H726.776H726.537H726.298H726.059H725.821H725.584H725.347H725.11H724.874H724.638H724.403H724.169H723.934H723.701H723.468H723.235H723.003H722.771H722.54H722.309H722.079H721.849H721.62H721.392H721.163H720.936H720.709H720.482H720.256H720.03H719.805H719.581H719.357H719.133H718.91H718.688H718.466H718.244H718.023H717.803H717.583H717.364H717.145H716.927H716.709H716.492H716.275H716.059H715.843H715.628H715.414H715.2H714.987H714.774H714.561H714.35H714.138H713.928H713.718H713.508H713.299H713.091H712.883H712.676H712.469H712.263H712.057H711.852H711.648H711.444H711.24H711.038H710.836H710.634H710.433H710.233H710.033H709.833H709.635H709.437H709.239H709.042H708.846H708.65H708.455H708.26H708.066H707.873H707.68H707.488H707.296H707.105H706.915H706.725H706.536H706.348H706.16H705.972H705.786H705.6H705.414H705.229H705.045H704.861H704.678H704.496H704.314H704.133H703.952H703.773H703.593H703.415H703.237H703.059H702.883H702.706H702.531H702.356H702.182H702.008H701.836H701.663H701.492H701.321H701.151H700.981H700.812H700.643H700.476H700.309H700.142H699.977H699.812H699.647H699.483H699.32H699.158H698.996H698.835H698.675H698.515H698.356H698.198H698.04H697.883H697.727H697.571H697.416H697.262H697.108H696.955H696.803H696.651H696.5H696.35H696.201H696.052H695.904H695.757H695.61H695.464H695.319H695.174H695.03H694.887H694.745H694.603H694.462H694.321H694.182H694.043H693.905H693.767H693.631H693.494H693.359H693.225H693.091H692.958H692.825H692.694H692.563H692.432H692.303H692.174H692.046H691.919H691.792H691.667H691.541H691.417H691.294H691.171H691.049H690.927H690.807H690.687H690.568H690.45H690.332H690.215H690.099H689.984H689.869H689.756H689.643H689.531H689.419H689.308H689.198H689.089H688.981H688.873H688.767H688.661H688.555H688.451H688.347H688.244H688.142H688.041H687.94H687.84H687.741H687.643H687.546H687.449H687.353H687.258H687.164H687.071H686.978H686.886H686.795H686.705H686.616H686.527H686.44H686.353H686.266H686.181H686.097H686.013H685.93H685.848H685.767H685.686H685.607H685.528H685.45H685.373H685.297H685.221H685.147H685.073H685H684.928H684.857H684.786H684.717H684.648H684.58Z" stroke="url(#paint1_linear)" stroke-width="5"/>
<path d="M331.58 90.5H331.534C332.858 41.6741 372.854 2.5 422 2.5C471.146 2.5 511.142 41.6741 512.466 90.5H512.42H512.352H512.283H512.214H512.143H512.072H512H511.927H511.853H511.779H511.703H511.627H511.55H511.472H511.393H511.314H511.233H511.152H511.07H510.987H510.903H510.819H510.734H510.647H510.56H510.473H510.384H510.295H510.205H510.114H510.022H509.929H509.836H509.742H509.647H509.551H509.454H509.357H509.259H509.16H509.06H508.959H508.858H508.756H508.653H508.549H508.445H508.339H508.233H508.127H508.019H507.911H507.802H507.692H507.581H507.469H507.357H507.244H507.131H507.016H506.901H506.785H506.668H506.55H506.432H506.313H506.193H506.073H505.951H505.829H505.706H505.583H505.459H505.333H505.208H505.081H504.954H504.826H504.697H504.568H504.437H504.306H504.175H504.042H503.909H503.775H503.641H503.506H503.369H503.233H503.095H502.957H502.818H502.679H502.538H502.397H502.255H502.113H501.97H501.826H501.681H501.536H501.39H501.243H501.096H500.948H500.799H500.65H500.5H500.349H500.197H500.045H499.892H499.738H499.584H499.429H499.273H499.117H498.96H498.802H498.644H498.485H498.325H498.165H498.004H497.842H497.68H497.517H497.353H497.188H497.023H496.858H496.691H496.524H496.357H496.188H496.019H495.85H495.679H495.508H495.337H495.164H494.992H494.818H494.644H494.469H494.294H494.117H493.941H493.763H493.585H493.407H493.227H493.048H492.867H492.686H492.504H492.322H492.139H491.955H491.771H491.586H491.4H491.214H491.028H490.84H490.652H490.464H490.275H490.085H489.895H489.704H489.512H489.32H489.127H488.934H488.74H488.545H488.35H488.154H487.958H487.761H487.563H487.365H487.167H486.967H486.768H486.567H486.366H486.164H485.962H485.76H485.556H485.352H485.148H484.943H484.737H484.531H484.324H484.117H483.909H483.701H483.492H483.282H483.072H482.862H482.65H482.439H482.226H482.013H481.8H481.586H481.372H481.157H480.941H480.725H480.508H480.291H480.073H479.855H479.636H479.417H479.197H478.977H478.756H478.534H478.312H478.09H477.867H477.643H477.419H477.195H476.97H476.744H476.518H476.291H476.064H475.837H475.608H475.38H475.151H474.921H474.691H474.46H474.229H473.997H473.765H473.532H473.299H473.066H472.831H472.597H472.362H472.126H471.89H471.653H471.416H471.179H470.941H470.702H470.463H470.224H469.984H469.744H469.503H469.261H469.02H468.777H468.535H468.291H468.048H467.804H467.559H467.314H467.069H466.823H466.576H466.329H466.082H465.834H465.586H465.337H465.088H464.839H464.589H464.338H464.088H463.836H463.585H463.332H463.08H462.827H462.573H462.319H462.065H461.81H461.555H461.299H461.043H460.787H460.53H460.273H460.015H459.757H459.499H459.24H458.98H458.721H458.46H458.2H457.939H457.677H457.416H457.153H456.891H456.628H456.365H456.101H455.837H455.572H455.307H455.042H454.776H454.51H454.243H453.977H453.709H453.442H453.174H452.905H452.636H452.367H452.098H451.828H451.558H451.287H451.016H450.744H450.473H450.201H449.928H449.655H449.382H449.109H448.835H448.56H448.286H448.011H447.736H447.46H447.184H446.908H446.631H446.354H446.076H445.799H445.521H445.242H444.963H444.684H444.405H444.125H443.845H443.565H443.284H443.003H442.721H442.44H442.158H441.875H441.593H441.31H441.026H440.743H440.459H440.175H439.89H439.605H439.32H439.034H438.749H438.463H438.176H437.889H437.602H437.315H437.028H436.74H436.451H436.163H435.874H435.585H435.296H435.006H434.716H434.426H434.136H433.845H433.554H433.262H432.971H432.679H432.387H432.094H431.802H431.509H431.215H430.922H430.628H430.334H430.04H429.745H429.451H429.155H428.86H428.565H428.269H427.973H427.676H427.38H427.083H426.786H426.488H426.191H425.893H425.595H425.297H424.998H424.699H424.4H424.101H423.802H423.502H423.202H422.902H422.601H422.301H422H421.699H421.399H421.098H420.798H420.498H420.198H419.899H419.6H419.301H419.002H418.703H418.405H418.107H417.809H417.512H417.214H416.917H416.62H416.324H416.027H415.731H415.435H415.14H414.845H414.549H414.255H413.96H413.666H413.372H413.078H412.785H412.491H412.198H411.906H411.613H411.321H411.029H410.738H410.446H410.155H409.864H409.574H409.284H408.994H408.704H408.415H408.126H407.837H407.549H407.26H406.972H406.685H406.398H406.111H405.824H405.537H405.251H404.966H404.68H404.395H404.11H403.825H403.541H403.257H402.974H402.69H402.407H402.125H401.842H401.56H401.279H400.997H400.716H400.435H400.155H399.875H399.595H399.316H399.037H398.758H398.479H398.201H397.924H397.646H397.369H397.092H396.816H396.54H396.264H395.989H395.714H395.44H395.165H394.891H394.618H394.345H394.072H393.799H393.527H393.256H392.984H392.713H392.442H392.172H391.902H391.633H391.364H391.095H390.826H390.558H390.291H390.023H389.757H389.49H389.224H388.958H388.693H388.428H388.163H387.899H387.635H387.372H387.109H386.847H386.584H386.323H386.061H385.8H385.54H385.279H385.02H384.76H384.501H384.243H383.985H383.727H383.47H383.213H382.957H382.7H382.445H382.19H381.935H381.681H381.427H381.173H380.92H380.668H380.415H380.164H379.912H379.662H379.411H379.161H378.912H378.663H378.414H378.166H377.918H377.671H377.424H377.177H376.931H376.686H376.441H376.196H375.952H375.709H375.465H375.223H374.98H374.739H374.497H374.256H374.016H373.776H373.537H373.298H373.059H372.821H372.584H372.347H372.11H371.874H371.638H371.403H371.169H370.934H370.701H370.468H370.235H370.003H369.771H369.54H369.309H369.079H368.849H368.62H368.392H368.163H367.936H367.709H367.482H367.256H367.03H366.805H366.581H366.357H366.133H365.91H365.688H365.466H365.244H365.023H364.803H364.583H364.364H364.145H363.927H363.709H363.492H363.275H363.059H362.843H362.628H362.414H362.2H361.987H361.774H361.561H361.35H361.138H360.928H360.718H360.508H360.299H360.091H359.883H359.676H359.469H359.263H359.057H358.852H358.648H358.444H358.24H358.038H357.836H357.634H357.433H357.233H357.033H356.833H356.635H356.437H356.239H356.042H355.846H355.65H355.455H355.26H355.066H354.873H354.68H354.488H354.296H354.105H353.915H353.725H353.536H353.348H353.16H352.972H352.786H352.6H352.414H352.229H352.045H351.861H351.678H351.496H351.314H351.133H350.952H350.773H350.593H350.415H350.237H350.059H349.883H349.706H349.531H349.356H349.182H349.008H348.836H348.663H348.492H348.321H348.151H347.981H347.812H347.643H347.476H347.309H347.142H346.977H346.812H346.647H346.483H346.32H346.158H345.996H345.835H345.675H345.515H345.356H345.198H345.04H344.883H344.727H344.571H344.416H344.262H344.108H343.955H343.803H343.651H343.5H343.35H343.201H343.052H342.904H342.757H342.61H342.464H342.319H342.174H342.03H341.887H341.745H341.603H341.462H341.321H341.182H341.043H340.905H340.767H340.631H340.494H340.359H340.225H340.091H339.958H339.825H339.694H339.563H339.432H339.303H339.174H339.046H338.919H338.792H338.667H338.541H338.417H338.294H338.171H338.049H337.927H337.807H337.687H337.568H337.45H337.332H337.215H337.099H336.984H336.869H336.756H336.643H336.531H336.419H336.308H336.198H336.089H335.981H335.873H335.767H335.661H335.555H335.451H335.347H335.244H335.142H335.041H334.94H334.84H334.741H334.643H334.546H334.449H334.353H334.258H334.164H334.071H333.978H333.886H333.795H333.705H333.616H333.527H333.44H333.353H333.266H333.181H333.097H333.013H332.93H332.848H332.767H332.686H332.607H332.528H332.45H332.373H332.297H332.221H332.147H332.073H332H331.928H331.857H331.786H331.717H331.648H331.58Z" stroke="url(#paint2_linear)" stroke-width="5"/>
<mask id="mask1" mask-type="alpha" maskUnits="userSpaceOnUse" x="1034" y="-34" width="121" height="222">
<path d="M1154 4.38424V152.605C1143.65 171.578 1127.76 183.062 1118.52 185.214C1109.29 187.366 1097.46 187.585 1091.18 185.807C1084.9 184.028 1054.96 172.171 1042.03 125.333C1029.1 78.4949 1037.97 45.2934 1037.97 45.2934C1037.97 45.2934 1042.03 23.3567 1050.16 7.34879C1057.39 -6.88042 1066.42 -15.7737 1071.96 -20.5169C1080.97 -28.2245 1093.4 -33.4644 1103 -32.9674C1114.46 -32.3745 1116.42 -32.4156 1126.65 -26.4457C1134.78 -21.7026 1149.27 -11.2679 1154 4.38424Z" fill="#99A3FF" stroke="black"/>
</mask>
<g mask="url(#mask1)">
<path d="M1218.7 91.1807H1218.74C1217.42 42.3547 1177.42 3.18066 1128.28 3.18066C1079.13 3.18066 1039.14 42.3547 1037.82 91.1807H1037.86H1037.93H1038H1038.07H1038.14H1038.21H1038.28H1038.35H1038.43H1038.5H1038.58H1038.65H1038.73H1038.81H1038.89H1038.97H1039.05H1039.13H1039.21H1039.29H1039.38H1039.46H1039.55H1039.63H1039.72H1039.81H1039.9H1039.99H1040.08H1040.17H1040.26H1040.35H1040.45H1040.54H1040.63H1040.73H1040.83H1040.92H1041.02H1041.12H1041.22H1041.32H1041.42H1041.53H1041.63H1041.73H1041.84H1041.94H1042.05H1042.15H1042.26H1042.37H1042.48H1042.59H1042.7H1042.81H1042.92H1043.04H1043.15H1043.27H1043.38H1043.5H1043.61H1043.73H1043.85H1043.97H1044.09H1044.21H1044.33H1044.45H1044.57H1044.7H1044.82H1044.95H1045.07H1045.2H1045.33H1045.46H1045.58H1045.71H1045.84H1045.97H1046.11H1046.24H1046.37H1046.51H1046.64H1046.78H1046.91H1047.05H1047.19H1047.32H1047.46H1047.6H1047.74H1047.88H1048.03H1048.17H1048.31H1048.46H1048.6H1048.74H1048.89H1049.04H1049.18H1049.33H1049.48H1049.63H1049.78H1049.93H1050.08H1050.24H1050.39H1050.54H1050.7H1050.85H1051.01H1051.16H1051.32H1051.48H1051.64H1051.8H1051.96H1052.12H1052.28H1052.44H1052.6H1052.76H1052.93H1053.09H1053.26H1053.42H1053.59H1053.76H1053.92H1054.09H1054.26H1054.43H1054.6H1054.77H1054.94H1055.12H1055.29H1055.46H1055.64H1055.81H1055.99H1056.16H1056.34H1056.52H1056.7H1056.87H1057.05H1057.23H1057.41H1057.59H1057.78H1057.96H1058.14H1058.33H1058.51H1058.69H1058.88H1059.07H1059.25H1059.44H1059.63H1059.82H1060.01H1060.2H1060.39H1060.58H1060.77H1060.96H1061.15H1061.35H1061.54H1061.74H1061.93H1062.13H1062.32H1062.52H1062.72H1062.92H1063.11H1063.31H1063.51H1063.71H1063.91H1064.12H1064.32H1064.52H1064.72H1064.93H1065.13H1065.34H1065.54H1065.75H1065.96H1066.16H1066.37H1066.58H1066.79H1067H1067.21H1067.42H1067.63H1067.84H1068.05H1068.27H1068.48H1068.69H1068.91H1069.12H1069.34H1069.56H1069.77H1069.99H1070.21H1070.43H1070.64H1070.86H1071.08H1071.3H1071.52H1071.75H1071.97H1072.19H1072.41H1072.64H1072.86H1073.09H1073.31H1073.54H1073.76H1073.99H1074.22H1074.44H1074.67H1074.9H1075.13H1075.36H1075.59H1075.82H1076.05H1076.28H1076.52H1076.75H1076.98H1077.21H1077.45H1077.68H1077.92H1078.15H1078.39H1078.63H1078.86H1079.1H1079.34H1079.58H1079.82H1080.06H1080.3H1080.54H1080.78H1081.02H1081.26H1081.5H1081.75H1081.99H1082.23H1082.48H1082.72H1082.97H1083.21H1083.46H1083.7H1083.95H1084.2H1084.45H1084.69H1084.94H1085.19H1085.44H1085.69H1085.94H1086.19H1086.44H1086.7H1086.95H1087.2H1087.45H1087.71H1087.96H1088.22H1088.47H1088.73H1088.98H1089.24H1089.49H1089.75H1090.01H1090.26H1090.52H1090.78H1091.04H1091.3H1091.56H1091.82H1092.08H1092.34H1092.6H1092.86H1093.13H1093.39H1093.65H1093.92H1094.18H1094.44H1094.71H1094.97H1095.24H1095.5H1095.77H1096.04H1096.3H1096.57H1096.84H1097.11H1097.37H1097.64H1097.91H1098.18H1098.45H1098.72H1098.99H1099.26H1099.54H1099.81H1100.08H1100.35H1100.62H1100.9H1101.17H1101.45H1101.72H1101.99H1102.27H1102.54H1102.82H1103.1H1103.37H1103.65H1103.93H1104.2H1104.48H1104.76H1105.04H1105.32H1105.6H1105.87H1106.15H1106.43H1106.72H1107H1107.28H1107.56H1107.84H1108.12H1108.4H1108.69H1108.97H1109.25H1109.54H1109.82H1110.11H1110.39H1110.67H1110.96H1111.25H1111.53H1111.82H1112.1H1112.39H1112.68H1112.96H1113.25H1113.54H1113.83H1114.12H1114.41H1114.69H1114.98H1115.27H1115.56H1115.85H1116.14H1116.43H1116.73H1117.02H1117.31H1117.6H1117.89H1118.19H1118.48H1118.77H1119.06H1119.36H1119.65H1119.95H1120.24H1120.53H1120.83H1121.12H1121.42H1121.71H1122.01H1122.31H1122.6H1122.9H1123.2H1123.49H1123.79H1124.09H1124.39H1124.68H1124.98H1125.28H1125.58H1125.88H1126.18H1126.48H1126.78H1127.08H1127.38H1127.68H1127.98H1128.28H1128.58H1128.88H1129.18H1129.48H1129.78H1130.08H1130.38H1130.68H1130.98H1131.28H1131.58H1131.87H1132.17H1132.47H1132.77H1133.06H1133.36H1133.66H1133.96H1134.25H1134.55H1134.84H1135.14H1135.43H1135.73H1136.02H1136.32H1136.61H1136.91H1137.2H1137.49H1137.79H1138.08H1138.37H1138.67H1138.96H1139.25H1139.54H1139.83H1140.12H1140.41H1140.71H1141H1141.29H1141.57H1141.86H1142.15H1142.44H1142.73H1143.02H1143.31H1143.59H1143.88H1144.17H1144.46H1144.74H1145.03H1145.31H1145.6H1145.88H1146.17H1146.45H1146.74H1147.02H1147.31H1147.59H1147.87H1148.15H1148.44H1148.72H1149H1149.28H1149.56H1149.84H1150.12H1150.4H1150.68H1150.96H1151.24H1151.52H1151.8H1152.08H1152.36H1152.63H1152.91H1153.19H1153.46H1153.74H1154.01H1154.29H1154.56H1154.84H1155.11H1155.39H1155.66H1155.93H1156.21H1156.48H1156.75H1157.02H1157.29H1157.57H1157.84H1158.11H1158.38H1158.65H1158.92H1159.18H1159.45H1159.72H1159.99H1160.26H1160.52H1160.79H1161.05H1161.32H1161.59H1161.85H1162.12H1162.38H1162.64H1162.91H1163.17H1163.43H1163.69H1163.96H1164.22H1164.48H1164.74H1165H1165.26H1165.52H1165.78H1166.04H1166.29H1166.55H1166.81H1167.07H1167.32H1167.58H1167.83H1168.09H1168.34H1168.6H1168.85H1169.11H1169.36H1169.61H1169.86H1170.11H1170.37H1170.62H1170.87H1171.12H1171.37H1171.62H1171.86H1172.11H1172.36H1172.61H1172.85H1173.1H1173.35H1173.59H1173.84H1174.08H1174.33H1174.57H1174.81H1175.06H1175.3H1175.54H1175.78H1176.02H1176.26H1176.5H1176.74H1176.98H1177.22H1177.46H1177.69H1177.93H1178.17H1178.4H1178.64H1178.88H1179.11H1179.34H1179.58H1179.81H1180.04H1180.28H1180.51H1180.74H1180.97H1181.2H1181.43H1181.66H1181.89H1182.11H1182.34H1182.57H1182.8H1183.02H1183.25H1183.47H1183.7H1183.92H1184.15H1184.37H1184.59H1184.81H1185.03H1185.25H1185.48H1185.7H1185.91H1186.13H1186.35H1186.57H1186.79H1187H1187.22H1187.43H1187.65H1187.86H1188.08H1188.29H1188.5H1188.72H1188.93H1189.14H1189.35H1189.56H1189.77H1189.98H1190.19H1190.4H1190.6H1190.81H1191.02H1191.22H1191.43H1191.63H1191.83H1192.04H1192.24H1192.44H1192.64H1192.84H1193.05H1193.25H1193.44H1193.64H1193.84H1194.04H1194.24H1194.43H1194.63H1194.82H1195.02H1195.21H1195.4H1195.6H1195.79H1195.98H1196.17H1196.36H1196.55H1196.74H1196.93H1197.12H1197.31H1197.49H1197.68H1197.86H1198.05H1198.23H1198.42H1198.6H1198.78H1198.96H1199.14H1199.33H1199.51H1199.68H1199.86H1200.04H1200.22H1200.4H1200.57H1200.75H1200.92H1201.1H1201.27H1201.44H1201.61H1201.79H1201.96H1202.13H1202.3H1202.47H1202.63H1202.8H1202.97H1203.14H1203.3H1203.47H1203.63H1203.79H1203.96H1204.12H1204.28H1204.44H1204.6H1204.76H1204.92H1205.08H1205.24H1205.39H1205.55H1205.71H1205.86H1206.02H1206.17H1206.32H1206.47H1206.63H1206.78H1206.93H1207.08H1207.23H1207.37H1207.52H1207.67H1207.81H1207.96H1208.1H1208.25H1208.39H1208.53H1208.67H1208.82H1208.96H1209.1H1209.23H1209.37H1209.51H1209.65H1209.78H1209.92H1210.05H1210.19H1210.32H1210.45H1210.58H1210.71H1210.85H1210.97H1211.1H1211.23H1211.36H1211.49H1211.61H1211.74H1211.86H1211.98H1212.11H1212.23H1212.35H1212.47H1212.59H1212.71H1212.83H1212.95H1213.06H1213.18H1213.29H1213.41H1213.52H1213.63H1213.75H1213.86H1213.97H1214.08H1214.19H1214.3H1214.4H1214.51H1214.62H1214.72H1214.83H1214.93H1215.03H1215.14H1215.24H1215.34H1215.44H1215.54H1215.63H1215.73H1215.83H1215.92H1216.02H1216.11H1216.21H1216.3H1216.39H1216.48H1216.57H1216.66H1216.75H1216.84H1216.92H1217.01H1217.1H1217.18H1217.26H1217.35H1217.43H1217.51H1217.59H1217.67H1217.75H1217.83H1217.9H1217.98H1218.06H1218.13H1218.2H1218.28H1218.35H1218.42H1218.49H1218.56H1218.63H1218.7Z" stroke="url(#paint3_linear)" stroke-width="5"/>
</g>
<defs>
<linearGradient id="paint0_linear" x1="69" y1="1" x2="69" y2="94" gradientUnits="userSpaceOnUse">
<stop stop-color="#5364FF"/>
<stop offset="0.557292" stop-color="#99A3FF"/>
</linearGradient>
<linearGradient id="paint1_linear" x1="775" y1="1" x2="775" y2="94" gradientUnits="userSpaceOnUse">
<stop stop-color="#5364FF"/>
<stop offset="0.666667" stop-color="#99A3FF"/>
</linearGradient>
<linearGradient id="paint2_linear" x1="422" y1="0" x2="422" y2="93" gradientUnits="userSpaceOnUse">
<stop stop-color="#5364FF"/>
<stop offset="0.578125" stop-color="#99A3FF"/>
</linearGradient>
<linearGradient id="paint3_linear" x1="1128.28" y1="0.680664" x2="1128.28" y2="93.6807" gradientUnits="userSpaceOnUse">
<stop stop-color="#5364FF"/>
<stop offset="0.65625" stop-color="#99A3FF"/>
</linearGradient>
</defs>
</svg>
