<svg width="1154" height="1162" viewBox="0 0 1154 1162" fill="none" xmlns="http://www.w3.org/2000/svg">
<g id="waves">
<rect id="Rectangle 84" x="1" y="74.3193" width="1152" height="1087" fill="#99A3FF"/>
<path id="Ellipse 40" d="M688 48C688 97.1533 647.929 137 598.5 137C549.071 137 509 97.1533 509 48C509 48 549.071 48 598.5 48C647.929 48 688 48 688 48Z" fill="white"/>
<path id="Ellipse 51" d="M688 48C688 97.1533 647.929 137 598.5 137C549.071 137 509 97.1533 509 48C509 48 549.071 48 598.5 48C647.929 48 688 48 688 48Z" fill="white"/>
<path id="Ellipse 53" d="M1040 48C1040 97.1533 999.929 137 950.5 137C901.071 137 861 97.1533 861 48C861 48 901.071 48 950.5 48C999.929 48 1040 48 1040 48Z" fill="white"/>
<path id="Ellipse 52" d="M336 48C336 97.1533 295.929 137 246.5 137C197.071 137 157 97.1533 157 48C157 48 197.071 48 246.5 48C295.929 48 336 48 336 48Z" fill="white"/>
<g id="wave4">
<g id="cutoff">
<mask id="mask0" mask-type="alpha" maskUnits="userSpaceOnUse" x="1033" y="-30" width="121" height="222">
<path id="Vector 10" d="M1153 8.38424V156.605C1142.65 175.578 1126.76 187.062 1117.52 189.214C1108.29 191.366 1096.46 191.585 1090.18 189.807C1083.9 188.028 1053.96 176.171 1041.03 129.333C1028.1 82.4949 1036.97 49.2934 1036.97 49.2934C1036.97 49.2934 1041.03 27.3567 1049.16 11.3488C1056.39 -2.88042 1065.42 -11.7737 1070.96 -16.5169C1079.97 -24.2245 1092.4 -29.4644 1102 -28.9674C1113.46 -28.3745 1115.42 -28.4156 1125.65 -22.4457C1133.78 -17.7026 1148.27 -7.26789 1153 8.38424Z" fill="#99A3FF" stroke="black"/>
</mask>
<g mask="url(#mask0)">
<path id="circle4" d="M1153 92.3612C1153 145.315 1153 188.242 1153 188.242C1070.47 197.521 1034 145.315 1034 92.3612C1034 39.4078 1091.5 -9.18018 1153 8.81961C1153 8.81961 1153 39.4078 1153 92.3612Z" fill="#99A3FF"/>
<path id="Ellipse 67" d="M1217.7 95.1807H1217.74C1216.42 46.3547 1176.42 7.18066 1127.28 7.18066C1078.14 7.18066 1038.14 46.3547 1036.82 95.1807H1036.86H1036.93H1037H1037.07H1037.14H1037.21H1037.28H1037.35H1037.43H1037.5H1037.58H1037.65H1037.73H1037.81H1037.89H1037.97H1038.05H1038.13H1038.21H1038.29H1038.38H1038.46H1038.55H1038.63H1038.72H1038.81H1038.9H1038.99H1039.08H1039.17H1039.26H1039.35H1039.45H1039.54H1039.64H1039.73H1039.83H1039.92H1040.02H1040.12H1040.22H1040.32H1040.42H1040.53H1040.63H1040.73H1040.84H1040.94H1041.05H1041.15H1041.26H1041.37H1041.48H1041.59H1041.7H1041.81H1041.92H1042.04H1042.15H1042.27H1042.38H1042.5H1042.61H1042.73H1042.85H1042.97H1043.09H1043.21H1043.33H1043.45H1043.58H1043.7H1043.82H1043.95H1044.07H1044.2H1044.33H1044.46H1044.58H1044.71H1044.84H1044.98H1045.11H1045.24H1045.37H1045.51H1045.64H1045.78H1045.91H1046.05H1046.19H1046.32H1046.46H1046.6H1046.74H1046.88H1047.03H1047.17H1047.31H1047.46H1047.6H1047.75H1047.89H1048.04H1048.19H1048.33H1048.48H1048.63H1048.78H1048.93H1049.08H1049.24H1049.39H1049.54H1049.7H1049.85H1050.01H1050.16H1050.32H1050.48H1050.64H1050.8H1050.96H1051.12H1051.28H1051.44H1051.6H1051.76H1051.93H1052.09H1052.26H1052.42H1052.59H1052.76H1052.92H1053.09H1053.26H1053.43H1053.6H1053.77H1053.94H1054.12H1054.29H1054.46H1054.64H1054.81H1054.99H1055.16H1055.34H1055.52H1055.7H1055.87H1056.05H1056.23H1056.41H1056.6H1056.78H1056.96H1057.14H1057.33H1057.51H1057.7H1057.88H1058.07H1058.25H1058.44H1058.63H1058.82H1059.01H1059.2H1059.39H1059.58H1059.77H1059.96H1060.15H1060.35H1060.54H1060.74H1060.93H1061.13H1061.32H1061.52H1061.72H1061.92H1062.11H1062.31H1062.51H1062.71H1062.92H1063.12H1063.32H1063.52H1063.72H1063.93H1064.13H1064.34H1064.54H1064.75H1064.96H1065.16H1065.37H1065.58H1065.79H1066H1066.21H1066.42H1066.63H1066.84H1067.05H1067.27H1067.48H1067.69H1067.91H1068.12H1068.34H1068.56H1068.77H1068.99H1069.21H1069.43H1069.64H1069.86H1070.08H1070.3H1070.53H1070.75H1070.97H1071.19H1071.41H1071.64H1071.86H1072.09H1072.31H1072.54H1072.76H1072.99H1073.22H1073.44H1073.67H1073.9H1074.13H1074.36H1074.59H1074.82H1075.05H1075.28H1075.52H1075.75H1075.98H1076.22H1076.45H1076.68H1076.92H1077.15H1077.39H1077.63H1077.86H1078.1H1078.34H1078.58H1078.82H1079.06H1079.3H1079.54H1079.78H1080.02H1080.26H1080.5H1080.75H1080.99H1081.23H1081.48H1081.72H1081.97H1082.21H1082.46H1082.7H1082.95H1083.2H1083.45H1083.69H1083.94H1084.19H1084.44H1084.69H1084.94H1085.19H1085.44H1085.7H1085.95H1086.2H1086.45H1086.71H1086.96H1087.22H1087.47H1087.73H1087.98H1088.24H1088.49H1088.75H1089.01H1089.27H1089.52H1089.78H1090.04H1090.3H1090.56H1090.82H1091.08H1091.34H1091.6H1091.86H1092.13H1092.39H1092.65H1092.92H1093.18H1093.44H1093.71H1093.97H1094.24H1094.5H1094.77H1095.04H1095.3H1095.57H1095.84H1096.11H1096.38H1096.64H1096.91H1097.18H1097.45H1097.72H1097.99H1098.26H1098.54H1098.81H1099.08H1099.35H1099.62H1099.9H1100.17H1100.45H1100.72H1100.99H1101.27H1101.54H1101.82H1102.1H1102.37H1102.65H1102.93H1103.2H1103.48H1103.76H1104.04H1104.32H1104.6H1104.88H1105.16H1105.44H1105.72H1106H1106.28H1106.56H1106.84H1107.12H1107.4H1107.69H1107.97H1108.25H1108.54H1108.82H1109.11H1109.39H1109.68H1109.96H1110.25H1110.53H1110.82H1111.1H1111.39H1111.68H1111.96H1112.25H1112.54H1112.83H1113.12H1113.41H1113.69H1113.98H1114.27H1114.56H1114.85H1115.14H1115.44H1115.73H1116.02H1116.31H1116.6H1116.89H1117.19H1117.48H1117.77H1118.06H1118.36H1118.65H1118.95H1119.24H1119.53H1119.83H1120.12H1120.42H1120.72H1121.01H1121.31H1121.6H1121.9H1122.2H1122.49H1122.79H1123.09H1123.39H1123.68H1123.98H1124.28H1124.58H1124.88H1125.18H1125.48H1125.78H1126.08H1126.38H1126.68H1126.98H1127.28H1127.58H1127.88H1128.18H1128.48H1128.78H1129.08H1129.38H1129.68H1129.98H1130.28H1130.58H1130.87H1131.17H1131.47H1131.77H1132.07H1132.36H1132.66H1132.96H1133.25H1133.55H1133.84H1134.14H1134.44H1134.73H1135.02H1135.32H1135.61H1135.91H1136.2H1136.5H1136.79H1137.08H1137.37H1137.67H1137.96H1138.25H1138.54H1138.83H1139.12H1139.42H1139.71H1140H1140.29H1140.58H1140.86H1141.15H1141.44H1141.73H1142.02H1142.31H1142.59H1142.88H1143.17H1143.46H1143.74H1144.03H1144.31H1144.6H1144.88H1145.17H1145.45H1145.74H1146.02H1146.31H1146.59H1146.87H1147.15H1147.44H1147.72H1148H1148.28H1148.56H1148.84H1149.12H1149.4H1149.68H1149.96H1150.24H1150.52H1150.8H1151.08H1151.36H1151.63H1151.91H1152.19H1152.46H1152.74H1153.01H1153.29H1153.57H1153.84H1154.11H1154.39H1154.66H1154.93H1155.21H1155.48H1155.75H1156.02H1156.3H1156.57H1156.84H1157.11H1157.38H1157.65H1157.92H1158.18H1158.45H1158.72H1158.99H1159.26H1159.52H1159.79H1160.06H1160.32H1160.59H1160.85H1161.12H1161.38H1161.64H1161.91H1162.17H1162.43H1162.69H1162.96H1163.22H1163.48H1163.74H1164H1164.26H1164.52H1164.78H1165.04H1165.29H1165.55H1165.81H1166.07H1166.32H1166.58H1166.83H1167.09H1167.34H1167.6H1167.85H1168.11H1168.36H1168.61H1168.86H1169.12H1169.37H1169.62H1169.87H1170.12H1170.37H1170.62H1170.86H1171.11H1171.36H1171.61H1171.86H1172.1H1172.35H1172.59H1172.84H1173.08H1173.33H1173.57H1173.81H1174.06H1174.3H1174.54H1174.78H1175.02H1175.26H1175.5H1175.74H1175.98H1176.22H1176.46H1176.7H1176.93H1177.17H1177.4H1177.64H1177.88H1178.11H1178.34H1178.58H1178.81H1179.04H1179.28H1179.51H1179.74H1179.97H1180.2H1180.43H1180.66H1180.89H1181.12H1181.34H1181.57H1181.8H1182.02H1182.25H1182.47H1182.7H1182.92H1183.15H1183.37H1183.59H1183.81H1184.03H1184.26H1184.48H1184.7H1184.91H1185.13H1185.35H1185.57H1185.79H1186H1186.22H1186.44H1186.65H1186.86H1187.08H1187.29H1187.5H1187.72H1187.93H1188.14H1188.35H1188.56H1188.77H1188.98H1189.19H1189.4H1189.6H1189.81H1190.02H1190.22H1190.43H1190.63H1190.83H1191.04H1191.24H1191.44H1191.64H1191.85H1192.05H1192.25H1192.45H1192.64H1192.84H1193.04H1193.24H1193.43H1193.63H1193.82H1194.02H1194.21H1194.41H1194.6H1194.79H1194.98H1195.17H1195.36H1195.55H1195.74H1195.93H1196.12H1196.31H1196.49H1196.68H1196.86H1197.05H1197.23H1197.42H1197.6H1197.78H1197.96H1198.15H1198.33H1198.51H1198.68H1198.86H1199.04H1199.22H1199.4H1199.57H1199.75H1199.92H1200.1H1200.27H1200.44H1200.61H1200.79H1200.96H1201.13H1201.3H1201.47H1201.63H1201.8H1201.97H1202.14H1202.3H1202.47H1202.63H1202.79H1202.96H1203.12H1203.28H1203.44H1203.6H1203.76H1203.92H1204.08H1204.24H1204.4H1204.55H1204.71H1204.86H1205.02H1205.17H1205.32H1205.48H1205.63H1205.78H1205.93H1206.08H1206.23H1206.37H1206.52H1206.67H1206.81H1206.96H1207.1H1207.25H1207.39H1207.53H1207.68H1207.82H1207.96H1208.1H1208.24H1208.37H1208.51H1208.65H1208.78H1208.92H1209.05H1209.19H1209.32H1209.45H1209.58H1209.72H1209.85H1209.98H1210.1H1210.23H1210.36H1210.49H1210.61H1210.74H1210.86H1210.98H1211.11H1211.23H1211.35H1211.47H1211.59H1211.71H1211.83H1211.95H1212.06H1212.18H1212.29H1212.41H1212.52H1212.64H1212.75H1212.86H1212.97H1213.08H1213.19H1213.3H1213.4H1213.51H1213.62H1213.72H1213.83H1213.93H1214.03H1214.14H1214.24H1214.34H1214.44H1214.54H1214.63H1214.73H1214.83H1214.92H1215.02H1215.11H1215.21H1215.3H1215.39H1215.48H1215.57H1215.66H1215.75H1215.84H1215.93H1216.01H1216.1H1216.18H1216.27H1216.35H1216.43H1216.51H1216.59H1216.67H1216.75H1216.83H1216.9H1216.98H1217.06H1217.13H1217.2H1217.28H1217.35H1217.42H1217.49H1217.56H1217.63H1217.7Z" stroke="url(#paint0_linear)" stroke-width="5"/>
</g>
</g>
</g>
<g id="wave3">
<circle id="circle3" cx="773.761" cy="99.7526" r="93" transform="rotate(0.231895 773.761 99.7526)" fill="#99A3FF"/>
<path id="Ellipse 66" d="M683.924 94.4288L683.878 94.4291C684.888 45.5957 724.632 6.16552 773.777 5.84985C822.922 5.53417 863.169 44.4505 864.806 93.2669L864.76 93.2672L864.692 93.2677L864.624 93.2681L864.554 93.2686L864.484 93.269L864.412 93.2695L864.34 93.2699L864.267 93.2704L864.194 93.2709L864.119 93.2714L864.044 93.2718L863.967 93.2723L863.89 93.2728L863.812 93.2733L863.733 93.2738L863.654 93.2743L863.573 93.2749L863.492 93.2754L863.41 93.2759L863.327 93.2764L863.244 93.277L863.159 93.2775L863.074 93.2781L862.988 93.2786L862.901 93.2792L862.813 93.2797L862.724 93.2803L862.635 93.2809L862.545 93.2815L862.454 93.2821L862.362 93.2826L862.269 93.2832L862.176 93.2838L862.082 93.2844L861.987 93.2851L861.891 93.2857L861.794 93.2863L861.697 93.2869L861.599 93.2875L861.5 93.2882L861.4 93.2888L861.3 93.2895L861.198 93.2901L861.096 93.2908L860.993 93.2914L860.89 93.2921L860.785 93.2928L860.68 93.2934L860.574 93.2941L860.467 93.2948L860.359 93.2955L860.251 93.2962L860.142 93.2969L860.032 93.2976L859.921 93.2983L859.81 93.299L859.698 93.2998L859.585 93.3005L859.471 93.3012L859.356 93.3019L859.241 93.3027L859.125 93.3034L859.008 93.3042L858.891 93.3049L858.772 93.3057L858.653 93.3065L858.533 93.3072L858.413 93.308L858.292 93.3088L858.17 93.3096L858.047 93.3104L857.923 93.3112L857.799 93.312L857.674 93.3128L857.548 93.3136L857.422 93.3144L857.294 93.3152L857.166 93.316L857.037 93.3168L856.908 93.3177L856.778 93.3185L856.647 93.3194L856.515 93.3202L856.383 93.321L856.25 93.3219L856.116 93.3228L855.981 93.3236L855.846 93.3245L855.71 93.3254L855.573 93.3263L855.436 93.3271L855.297 93.328L855.159 93.3289L855.019 93.3298L854.879 93.3307L854.738 93.3316L854.596 93.3325L854.453 93.3334L854.31 93.3344L854.166 93.3353L854.022 93.3362L853.877 93.3371L853.731 93.3381L853.584 93.339L853.436 93.34L853.288 93.3409L853.14 93.3419L852.99 93.3428L852.84 93.3438L852.689 93.3448L852.538 93.3457L852.385 93.3467L852.232 93.3477L852.079 93.3487L851.925 93.3497L851.77 93.3507L851.614 93.3517L851.458 93.3527L851.301 93.3537L851.143 93.3547L850.984 93.3557L850.825 93.3567L850.666 93.3578L850.505 93.3588L850.344 93.3598L850.183 93.3609L850.02 93.3619L849.857 93.363L849.693 93.364L849.529 93.3651L849.364 93.3661L849.198 93.3672L849.032 93.3683L848.865 93.3693L848.697 93.3704L848.529 93.3715L848.36 93.3726L848.19 93.3737L848.02 93.3748L847.849 93.3759L847.677 93.377L847.505 93.3781L847.332 93.3792L847.159 93.3803L846.984 93.3814L846.81 93.3825L846.634 93.3837L846.458 93.3848L846.281 93.3859L846.104 93.3871L845.926 93.3882L845.747 93.3894L845.568 93.3905L845.388 93.3917L845.208 93.3928L845.026 93.394L844.845 93.3952L844.662 93.3963L844.479 93.3975L844.296 93.3987L844.111 93.3999L843.927 93.4011L843.741 93.4023L843.555 93.4034L843.368 93.4046L843.181 93.4059L842.993 93.4071L842.804 93.4083L842.615 93.4095L842.426 93.4107L842.235 93.4119L842.044 93.4132L841.853 93.4144L841.66 93.4156L841.468 93.4169L841.274 93.4181L841.08 93.4193L840.886 93.4206L840.691 93.4218L840.495 93.4231L840.299 93.4244L840.102 93.4256L839.904 93.4269L839.706 93.4282L839.507 93.4294L839.308 93.4307L839.108 93.432L838.908 93.4333L838.707 93.4346L838.505 93.4359L838.303 93.4372L838.1 93.4385L837.897 93.4398L837.693 93.4411L837.489 93.4424L837.284 93.4437L837.078 93.4451L836.872 93.4464L836.665 93.4477L836.458 93.449L836.25 93.4504L836.042 93.4517L835.833 93.4531L835.623 93.4544L835.413 93.4557L835.202 93.4571L834.991 93.4585L834.779 93.4598L834.567 93.4612L834.354 93.4625L834.141 93.4639L833.927 93.4653L833.713 93.4667L833.497 93.4681L833.282 93.4694L833.066 93.4708L832.849 93.4722L832.632 93.4736L832.414 93.475L832.196 93.4764L831.977 93.4778L831.758 93.4792L831.538 93.4806L831.318 93.4821L831.097 93.4835L830.875 93.4849L830.653 93.4863L830.431 93.4877L830.208 93.4892L829.984 93.4906L829.76 93.4921L829.536 93.4935L829.311 93.4949L829.085 93.4964L828.859 93.4978L828.632 93.4993L828.405 93.5008L828.178 93.5022L827.949 93.5037L827.721 93.5052L827.492 93.5066L827.262 93.5081L827.032 93.5096L826.801 93.5111L826.57 93.5126L826.338 93.514L826.106 93.5155L825.873 93.517L825.64 93.5185L825.407 93.52L825.172 93.5215L824.938 93.523L824.703 93.5245L824.467 93.5261L824.231 93.5276L823.994 93.5291L823.757 93.5306L823.52 93.5321L823.282 93.5337L823.043 93.5352L822.804 93.5367L822.565 93.5383L822.325 93.5398L822.085 93.5414L821.844 93.5429L821.602 93.5445L821.361 93.546L821.118 93.5476L820.876 93.5491L820.633 93.5507L820.389 93.5523L820.145 93.5538L819.9 93.5554L819.655 93.557L819.41 93.5585L819.164 93.5601L818.917 93.5617L818.67 93.5633L818.423 93.5649L818.175 93.5665L817.927 93.5681L817.679 93.5697L817.43 93.5713L817.18 93.5729L816.93 93.5745L816.68 93.5761L816.429 93.5777L816.177 93.5793L815.926 93.5809L815.674 93.5825L815.421 93.5842L815.168 93.5858L814.914 93.5874L814.661 93.589L814.406 93.5907L814.152 93.5923L813.896 93.594L813.641 93.5956L813.385 93.5972L813.128 93.5989L812.871 93.6005L812.614 93.6022L812.357 93.6038L812.098 93.6055L811.84 93.6072L811.581 93.6088L811.322 93.6105L811.062 93.6122L810.802 93.6138L810.541 93.6155L810.28 93.6172L810.019 93.6189L809.757 93.6205L809.495 93.6222L809.232 93.6239L808.969 93.6256L808.706 93.6273L808.442 93.629L808.178 93.6307L807.913 93.6324L807.648 93.6341L807.383 93.6358L807.117 93.6375L806.851 93.6392L806.585 93.6409L806.318 93.6426L806.051 93.6444L805.783 93.6461L805.515 93.6478L805.247 93.6495L804.978 93.6512L804.709 93.653L804.439 93.6547L804.169 93.6564L803.899 93.6582L803.628 93.6599L803.357 93.6617L803.086 93.6634L802.814 93.6651L802.542 93.6669L802.27 93.6686L801.997 93.6704L801.724 93.6721L801.45 93.6739L801.176 93.6757L800.902 93.6774L800.627 93.6792L800.352 93.681L800.077 93.6827L799.801 93.6845L799.525 93.6863L799.249 93.688L798.972 93.6898L798.695 93.6916L798.418 93.6934L798.14 93.6952L797.862 93.697L797.584 93.6987L797.305 93.7005L797.026 93.7023L796.747 93.7041L796.467 93.7059L796.187 93.7077L795.906 93.7095L795.626 93.7113L795.345 93.7131L795.063 93.7149L794.781 93.7167L794.499 93.7186L794.217 93.7204L793.934 93.7222L793.651 93.724L793.368 93.7258L793.084 93.7276L792.801 93.7295L792.516 93.7313L792.232 93.7331L791.947 93.7349L791.662 93.7368L791.376 93.7386L791.09 93.7405L790.804 93.7423L790.518 93.7441L790.231 93.746L789.944 93.7478L789.657 93.7497L789.369 93.7515L789.081 93.7534L788.793 93.7552L788.505 93.7571L788.216 93.7589L787.927 93.7608L787.638 93.7626L787.348 93.7645L787.058 93.7664L786.768 93.7682L786.477 93.7701L786.187 93.7719L785.896 93.7738L785.604 93.7757L785.313 93.7776L785.021 93.7794L784.729 93.7813L784.436 93.7832L784.144 93.7851L783.851 93.787L783.557 93.7888L783.264 93.7907L782.97 93.7926L782.676 93.7945L782.382 93.7964L782.087 93.7983L781.792 93.8002L781.497 93.8021L781.202 93.804L780.906 93.8059L780.611 93.8078L780.315 93.8097L780.018 93.8116L779.722 93.8135L779.425 93.8154L779.128 93.8173L778.83 93.8192L778.533 93.8211L778.235 93.823L777.937 93.8249L777.639 93.8269L777.34 93.8288L777.041 93.8307L776.742 93.8326L776.443 93.8345L776.144 93.8365L775.844 93.8384L775.544 93.8403L775.244 93.8422L774.944 93.8442L774.643 93.8461L774.342 93.848L774.041 93.85L773.741 93.8519L773.44 93.8538L773.14 93.8558L772.84 93.8577L772.54 93.8596L772.241 93.8615L771.942 93.8635L771.643 93.8654L771.344 93.8673L771.045 93.8692L770.747 93.8711L770.449 93.873L770.151 93.875L769.854 93.8769L769.556 93.8788L769.259 93.8807L768.963 93.8826L768.666 93.8845L768.37 93.8864L768.074 93.8883L767.778 93.8902L767.482 93.8921L767.187 93.894L766.892 93.8959L766.597 93.8978L766.302 93.8997L766.008 93.9016L765.714 93.9035L765.42 93.9053L765.127 93.9072L764.834 93.9091L764.541 93.911L764.248 93.9129L763.956 93.9147L763.663 93.9166L763.371 93.9185L763.08 93.9204L762.789 93.9222L762.498 93.9241L762.207 93.926L761.916 93.9278L761.626 93.9297L761.336 93.9316L761.047 93.9334L760.757 93.9353L760.468 93.9372L760.179 93.939L759.891 93.9409L759.603 93.9427L759.315 93.9446L759.027 93.9464L758.74 93.9483L758.453 93.9501L758.166 93.9519L757.88 93.9538L757.594 93.9556L757.308 93.9574L757.023 93.9593L756.737 93.9611L756.452 93.9629L756.168 93.9648L755.884 93.9666L755.6 93.9684L755.316 93.9702L755.033 93.9721L754.75 93.9739L754.467 93.9757L754.185 93.9775L753.903 93.9793L753.621 93.9811L753.34 93.9829L753.059 93.9847L752.778 93.9865L752.497 93.9883L752.217 93.9901L751.938 93.9919L751.658 93.9937L751.379 93.9955L751.1 93.9973L750.822 93.9991L750.544 94.0009L750.266 94.0027L749.989 94.0045L749.712 94.0062L749.435 94.008L749.159 94.0098L748.883 94.0116L748.607 94.0133L748.332 94.0151L748.057 94.0169L747.782 94.0186L747.508 94.0204L747.234 94.0222L746.96 94.0239L746.687 94.0257L746.414 94.0274L746.142 94.0292L745.87 94.0309L745.598 94.0327L745.327 94.0344L745.056 94.0362L744.785 94.0379L744.515 94.0396L744.245 94.0414L743.975 94.0431L743.706 94.0448L743.438 94.0465L743.169 94.0483L742.901 94.05L742.633 94.0517L742.366 94.0534L742.099 94.0551L741.833 94.0569L741.567 94.0586L741.301 94.0603L741.036 94.062L740.771 94.0637L740.506 94.0654L740.242 94.0671L739.978 94.0688L739.715 94.0705L739.452 94.0721L739.189 94.0738L738.927 94.0755L738.665 94.0772L738.404 94.0789L738.143 94.0806L737.882 94.0822L737.622 94.0839L737.363 94.0856L737.103 94.0872L736.844 94.0889L736.586 94.0906L736.328 94.0922L736.07 94.0939L735.813 94.0955L735.556 94.0972L735.299 94.0988L735.043 94.1005L734.788 94.1021L734.533 94.1037L734.278 94.1054L734.024 94.107L733.77 94.1086L733.516 94.1103L733.263 94.1119L733.011 94.1135L732.758 94.1151L732.507 94.1168L732.255 94.1184L732.005 94.12L731.754 94.1216L731.504 94.1232L731.255 94.1248L731.006 94.1264L730.757 94.128L730.509 94.1296L730.261 94.1312L730.014 94.1328L729.767 94.1344L729.52 94.1359L729.274 94.1375L729.029 94.1391L728.784 94.1407L728.539 94.1422L728.295 94.1438L728.052 94.1454L727.808 94.1469L727.566 94.1485L727.323 94.1501L727.082 94.1516L726.84 94.1532L726.599 94.1547L726.359 94.1562L726.119 94.1578L725.88 94.1593L725.641 94.1609L725.402 94.1624L725.164 94.1639L724.927 94.1654L724.69 94.167L724.453 94.1685L724.217 94.17L723.981 94.1715L723.746 94.173L723.512 94.1745L723.278 94.176L723.044 94.1775L722.811 94.179L722.578 94.1805L722.346 94.182L722.114 94.1835L721.883 94.185L721.652 94.1865L721.422 94.188L721.193 94.1894L720.963 94.1909L720.735 94.1924L720.507 94.1938L720.279 94.1953L720.052 94.1968L719.825 94.1982L719.599 94.1997L719.374 94.2011L719.148 94.2026L718.924 94.204L718.7 94.2054L718.476 94.2069L718.253 94.2083L718.031 94.2097L717.809 94.2112L717.587 94.2126L717.367 94.214L717.146 94.2154L716.926 94.2168L716.707 94.2182L716.488 94.2197L716.27 94.2211L716.052 94.2225L715.835 94.2238L715.618 94.2252L715.402 94.2266L715.187 94.228L714.972 94.2294L714.757 94.2308L714.543 94.2321L714.33 94.2335L714.117 94.2349L713.905 94.2362L713.693 94.2376L713.482 94.239L713.271 94.2403L713.061 94.2417L712.852 94.243L712.643 94.2444L712.434 94.2457L712.226 94.247L712.019 94.2484L711.812 94.2497L711.606 94.251L711.401 94.2523L711.196 94.2537L710.991 94.255L710.787 94.2563L710.584 94.2576L710.381 94.2589L710.179 94.2602L709.977 94.2615L709.776 94.2628L709.576 94.2641L709.376 94.2653L709.177 94.2666L708.978 94.2679L708.78 94.2692L708.583 94.2704L708.386 94.2717L708.189 94.273L707.994 94.2742L707.798 94.2755L707.604 94.2767L707.41 94.278L707.216 94.2792L707.024 94.2804L706.832 94.2817L706.64 94.2829L706.449 94.2841L706.259 94.2854L706.069 94.2866L705.88 94.2878L705.691 94.289L705.503 94.2902L705.316 94.2914L705.129 94.2926L704.943 94.2938L704.758 94.295L704.573 94.2962L704.388 94.2974L704.205 94.2986L704.022 94.2997L703.839 94.3009L703.658 94.3021L703.477 94.3032L703.296 94.3044L703.116 94.3055L702.937 94.3067L702.758 94.3078L702.58 94.309L702.403 94.3101L702.226 94.3113L702.05 94.3124L701.875 94.3135L701.7 94.3146L701.526 94.3158L701.352 94.3169L701.179 94.318L701.007 94.3191L700.835 94.3202L700.664 94.3213L700.494 94.3224L700.324 94.3235L700.155 94.3246L699.987 94.3256L699.819 94.3267L699.652 94.3278L699.486 94.3289L699.32 94.3299L699.155 94.331L698.991 94.332L698.827 94.3331L698.664 94.3341L698.502 94.3352L698.34 94.3362L698.179 94.3373L698.018 94.3383L697.859 94.3393L697.7 94.3403L697.541 94.3414L697.384 94.3424L697.227 94.3434L697.07 94.3444L696.915 94.3454L696.76 94.3464L696.605 94.3474L696.452 94.3484L696.299 94.3493L696.147 94.3503L695.995 94.3513L695.844 94.3523L695.694 94.3532L695.545 94.3542L695.396 94.3551L695.248 94.3561L695.1 94.357L694.954 94.358L694.808 94.3589L694.662 94.3598L694.518 94.3608L694.374 94.3617L694.231 94.3626L694.088 94.3635L693.947 94.3644L693.806 94.3654L693.665 94.3663L693.526 94.3672L693.387 94.368L693.248 94.3689L693.111 94.3698L692.974 94.3707L692.838 94.3716L692.703 94.3724L692.568 94.3733L692.435 94.3742L692.301 94.375L692.169 94.3759L692.037 94.3767L691.906 94.3776L691.776 94.3784L691.647 94.3792L691.518 94.38L691.39 94.3809L691.263 94.3817L691.136 94.3825L691.01 94.3833L690.885 94.3841L690.761 94.3849L690.637 94.3857L690.515 94.3865L690.393 94.3873L690.271 94.3881L690.151 94.3888L690.031 94.3896L689.912 94.3904L689.793 94.3911L689.676 94.3919L689.559 94.3926L689.443 94.3934L689.328 94.3941L689.213 94.3949L689.1 94.3956L688.987 94.3963L688.874 94.397L688.763 94.3977L688.652 94.3985L688.542 94.3992L688.433 94.3999L688.325 94.4006L688.217 94.4012L688.11 94.4019L688.004 94.4026L687.899 94.4033L687.795 94.404L687.691 94.4046L687.588 94.4053L687.486 94.4059L687.385 94.4066L687.284 94.4072L687.184 94.4079L687.085 94.4085L686.987 94.4092L686.89 94.4098L686.793 94.4104L686.697 94.411L686.602 94.4116L686.508 94.4122L686.415 94.4128L686.322 94.4134L686.23 94.414L686.139 94.4146L686.049 94.4152L685.96 94.4158L685.871 94.4163L685.783 94.4169L685.696 94.4174L685.61 94.418L685.525 94.4185L685.441 94.4191L685.357 94.4196L685.274 94.4202L685.192 94.4207L685.111 94.4212L685.03 94.4217L684.951 94.4222L684.872 94.4227L684.794 94.4232L684.717 94.4237L684.641 94.4242L684.565 94.4247L684.491 94.4252L684.417 94.4257L684.344 94.4261L684.272 94.4266L684.201 94.4271L684.13 94.4275L684.061 94.4279L683.992 94.4284L683.924 94.4288Z" stroke="url(#paint1_linear)" stroke-width="5"/>
</g>
<g id="wave2">
<circle id="circle2" cx="421.269" cy="99.3193" r="93" fill="#99A3FF"/>
<path id="Ellipse 67_2" d="M332.58 92.5H332.534C333.858 43.6741 373.854 4.5 423 4.5C472.146 4.5 512.142 43.6741 513.466 92.5H513.42H513.352H513.283H513.214H513.143H513.072H513H512.927H512.853H512.779H512.703H512.627H512.55H512.472H512.393H512.314H512.233H512.152H512.07H511.987H511.903H511.819H511.734H511.647H511.56H511.473H511.384H511.295H511.205H511.114H511.022H510.929H510.836H510.742H510.647H510.551H510.454H510.357H510.259H510.16H510.06H509.959H509.858H509.756H509.653H509.549H509.445H509.339H509.233H509.127H509.019H508.911H508.802H508.692H508.581H508.469H508.357H508.244H508.131H508.016H507.901H507.785H507.668H507.55H507.432H507.313H507.193H507.073H506.951H506.829H506.706H506.583H506.459H506.333H506.208H506.081H505.954H505.826H505.697H505.568H505.437H505.306H505.175H505.042H504.909H504.775H504.641H504.506H504.369H504.233H504.095H503.957H503.818H503.679H503.538H503.397H503.255H503.113H502.97H502.826H502.681H502.536H502.39H502.243H502.096H501.948H501.799H501.65H501.5H501.349H501.197H501.045H500.892H500.738H500.584H500.429H500.273H500.117H499.96H499.802H499.644H499.485H499.325H499.165H499.004H498.842H498.68H498.517H498.353H498.188H498.023H497.858H497.691H497.524H497.357H497.188H497.019H496.85H496.679H496.508H496.337H496.164H495.992H495.818H495.644H495.469H495.294H495.117H494.941H494.763H494.585H494.407H494.227H494.048H493.867H493.686H493.504H493.322H493.139H492.955H492.771H492.586H492.4H492.214H492.028H491.84H491.652H491.464H491.275H491.085H490.895H490.704H490.512H490.32H490.127H489.934H489.74H489.545H489.35H489.154H488.958H488.761H488.563H488.365H488.167H487.967H487.768H487.567H487.366H487.164H486.962H486.76H486.556H486.352H486.148H485.943H485.737H485.531H485.324H485.117H484.909H484.701H484.492H484.282H484.072H483.862H483.65H483.439H483.226H483.013H482.8H482.586H482.372H482.157H481.941H481.725H481.508H481.291H481.073H480.855H480.636H480.417H480.197H479.977H479.756H479.534H479.312H479.09H478.867H478.643H478.419H478.195H477.97H477.744H477.518H477.291H477.064H476.837H476.608H476.38H476.151H475.921H475.691H475.46H475.229H474.997H474.765H474.532H474.299H474.066H473.831H473.597H473.362H473.126H472.89H472.653H472.416H472.179H471.941H471.702H471.463H471.224H470.984H470.744H470.503H470.261H470.02H469.777H469.535H469.291H469.048H468.804H468.559H468.314H468.069H467.823H467.576H467.329H467.082H466.834H466.586H466.337H466.088H465.839H465.589H465.338H465.088H464.836H464.585H464.332H464.08H463.827H463.573H463.319H463.065H462.81H462.555H462.299H462.043H461.787H461.53H461.273H461.015H460.757H460.499H460.24H459.98H459.721H459.46H459.2H458.939H458.677H458.416H458.153H457.891H457.628H457.365H457.101H456.837H456.572H456.307H456.042H455.776H455.51H455.243H454.977H454.709H454.442H454.174H453.905H453.636H453.367H453.098H452.828H452.558H452.287H452.016H451.744H451.473H451.201H450.928H450.655H450.382H450.109H449.835H449.56H449.286H449.011H448.736H448.46H448.184H447.908H447.631H447.354H447.076H446.799H446.521H446.242H445.963H445.684H445.405H445.125H444.845H444.565H444.284H444.003H443.721H443.44H443.158H442.875H442.593H442.31H442.026H441.743H441.459H441.175H440.89H440.605H440.32H440.034H439.749H439.463H439.176H438.889H438.602H438.315H438.028H437.74H437.451H437.163H436.874H436.585H436.296H436.006H435.716H435.426H435.136H434.845H434.554H434.262H433.971H433.679H433.387H433.094H432.802H432.509H432.215H431.922H431.628H431.334H431.04H430.745H430.451H430.155H429.86H429.565H429.269H428.973H428.676H428.38H428.083H427.786H427.488H427.191H426.893H426.595H426.297H425.998H425.699H425.4H425.101H424.802H424.502H424.202H423.902H423.601H423.301H423H422.699H422.399H422.098H421.798H421.498H421.198H420.899H420.6H420.301H420.002H419.703H419.405H419.107H418.809H418.512H418.214H417.917H417.62H417.324H417.027H416.731H416.435H416.14H415.845H415.549H415.255H414.96H414.666H414.372H414.078H413.785H413.491H413.198H412.906H412.613H412.321H412.029H411.738H411.446H411.155H410.864H410.574H410.284H409.994H409.704H409.415H409.126H408.837H408.549H408.26H407.972H407.685H407.398H407.111H406.824H406.537H406.251H405.966H405.68H405.395H405.11H404.825H404.541H404.257H403.974H403.69H403.407H403.125H402.842H402.56H402.279H401.997H401.716H401.435H401.155H400.875H400.595H400.316H400.037H399.758H399.479H399.201H398.924H398.646H398.369H398.092H397.816H397.54H397.264H396.989H396.714H396.44H396.165H395.891H395.618H395.345H395.072H394.799H394.527H394.256H393.984H393.713H393.442H393.172H392.902H392.633H392.364H392.095H391.826H391.558H391.291H391.023H390.757H390.49H390.224H389.958H389.693H389.428H389.163H388.899H388.635H388.372H388.109H387.847H387.584H387.323H387.061H386.8H386.54H386.279H386.02H385.76H385.501H385.243H384.985H384.727H384.47H384.213H383.957H383.7H383.445H383.19H382.935H382.681H382.427H382.173H381.92H381.668H381.415H381.164H380.912H380.662H380.411H380.161H379.912H379.663H379.414H379.166H378.918H378.671H378.424H378.177H377.931H377.686H377.441H377.196H376.952H376.709H376.465H376.223H375.98H375.739H375.497H375.256H375.016H374.776H374.537H374.298H374.059H373.821H373.584H373.347H373.11H372.874H372.638H372.403H372.169H371.934H371.701H371.468H371.235H371.003H370.771H370.54H370.309H370.079H369.849H369.62H369.392H369.163H368.936H368.709H368.482H368.256H368.03H367.805H367.581H367.357H367.133H366.91H366.688H366.466H366.244H366.023H365.803H365.583H365.364H365.145H364.927H364.709H364.492H364.275H364.059H363.843H363.628H363.414H363.2H362.987H362.774H362.561H362.35H362.138H361.928H361.718H361.508H361.299H361.091H360.883H360.676H360.469H360.263H360.057H359.852H359.648H359.444H359.24H359.038H358.836H358.634H358.433H358.233H358.033H357.833H357.635H357.437H357.239H357.042H356.846H356.65H356.455H356.26H356.066H355.873H355.68H355.488H355.296H355.105H354.915H354.725H354.536H354.348H354.16H353.972H353.786H353.6H353.414H353.229H353.045H352.861H352.678H352.496H352.314H352.133H351.952H351.773H351.593H351.415H351.237H351.059H350.883H350.706H350.531H350.356H350.182H350.008H349.836H349.663H349.492H349.321H349.151H348.981H348.812H348.643H348.476H348.309H348.142H347.977H347.812H347.647H347.483H347.32H347.158H346.996H346.835H346.675H346.515H346.356H346.198H346.04H345.883H345.727H345.571H345.416H345.262H345.108H344.955H344.803H344.651H344.5H344.35H344.201H344.052H343.904H343.757H343.61H343.464H343.319H343.174H343.03H342.887H342.745H342.603H342.462H342.321H342.182H342.043H341.905H341.767H341.631H341.494H341.359H341.225H341.091H340.958H340.825H340.694H340.563H340.432H340.303H340.174H340.046H339.919H339.792H339.667H339.541H339.417H339.294H339.171H339.049H338.927H338.807H338.687H338.568H338.45H338.332H338.215H338.099H337.984H337.869H337.756H337.643H337.531H337.419H337.308H337.198H337.089H336.981H336.873H336.767H336.661H336.555H336.451H336.347H336.244H336.142H336.041H335.94H335.84H335.741H335.643H335.546H335.449H335.353H335.258H335.164H335.071H334.978H334.886H334.795H334.705H334.616H334.527H334.44H334.353H334.266H334.181H334.097H334.013H333.93H333.848H333.767H333.686H333.607H333.528H333.45H333.373H333.297H333.221H333.147H333.073H333H332.928H332.857H332.786H332.717H332.648H332.58Z" stroke="url(#paint2_linear)" stroke-width="5"/>
</g>
<g id="wave1">
<g id="cutoff_2">
<mask id="mask1" mask-type="alpha" maskUnits="userSpaceOnUse" x="0" y="0" width="163" height="188">
<path id="Vector 10_2" d="M1 32.5275V157.527C15 173.528 36.5 183.213 49 185.028C61.5 186.842 77.5 187.028 86 185.528C94.5 184.028 135 174.028 152.5 134.528C170 95.0276 158 67.0276 158 67.0276C158 67.0276 152.5 48.5276 141.5 35.0276C131.722 23.0276 119.5 15.5276 112 11.5275C99.8128 5.02734 82.9932 0.608319 70 1.02746C54.5 1.52747 51.8451 1.49288 38 6.52746C27 10.5275 7.4 19.3275 1 32.5275Z" fill="#99A3FF" stroke="black"/>
</mask>
<g mask="url(#mask1)">
<circle id="circle1" cx="70" cy="95" r="93" fill="#99A3FF"/>
<path id="Ellipse 67_3" d="M-21.6885 91.1807H-21.7347C-20.4104 42.3548 19.5857 3.18066 68.7314 3.18066C117.877 3.18066 157.873 42.3548 159.198 91.1807H159.151H159.084H159.015H158.945H158.875H158.804H158.731H158.659H158.585H158.51H158.435H158.358H158.281H158.203H158.125H158.045H157.965H157.883H157.801H157.719H157.635H157.55H157.465H157.379H157.292H157.204H157.116H157.026H156.936H156.845H156.753H156.661H156.567H156.473H156.378H156.282H156.186H156.088H155.99H155.891H155.791H155.691H155.589H155.487H155.384H155.281H155.176H155.071H154.965H154.858H154.75H154.642H154.533H154.423H154.312H154.201H154.089H153.976H153.862H153.747H153.632H153.516H153.399H153.282H153.163H153.044H152.925H152.804H152.683H152.561H152.438H152.314H152.19H152.065H151.939H151.813H151.685H151.557H151.429H151.299H151.169H151.038H150.906H150.774H150.641H150.507H150.372H150.237H150.101H149.964H149.827H149.689H149.55H149.41H149.27H149.129H148.987H148.844H148.701H148.557H148.413H148.268H148.122H147.975H147.827H147.679H147.531H147.381H147.231H147.08H146.929H146.776H146.623H146.47H146.315H146.161H146.005H145.849H145.691H145.534H145.375H145.216H145.057H144.896H144.735H144.573H144.411H144.248H144.084H143.92H143.755H143.589H143.423H143.256H143.088H142.92H142.751H142.581H142.411H142.24H142.068H141.896H141.723H141.549H141.375H141.2H141.025H140.849H140.672H140.495H140.317H140.138H139.959H139.779H139.598H139.417H139.236H139.053H138.87H138.687H138.502H138.317H138.132H137.946H137.759H137.572H137.384H137.195H137.006H136.816H136.626H136.435H136.243H136.051H135.858H135.665H135.471H135.277H135.081H134.886H134.689H134.492H134.295H134.097H133.898H133.699H133.499H133.299H133.097H132.896H132.694H132.491H132.288H132.084H131.879H131.674H131.469H131.263H131.056H130.849H130.641H130.432H130.223H130.014H129.804H129.593H129.382H129.17H128.958H128.745H128.532H128.318H128.103H127.888H127.673H127.456H127.24H127.023H126.805H126.587H126.368H126.148H125.929H125.708H125.487H125.266H125.044H124.821H124.598H124.375H124.151H123.926H123.701H123.476H123.249H123.023H122.796H122.568H122.34H122.111H121.882H121.652H121.422H121.191H120.96H120.729H120.496H120.264H120.031H119.797H119.563H119.328H119.093H118.857H118.621H118.385H118.148H117.91H117.672H117.434H117.195H116.955H116.715H116.475H116.234H115.993H115.751H115.509H115.266H115.023H114.779H114.535H114.29H114.045H113.8H113.554H113.308H113.061H112.813H112.566H112.318H112.069H111.82H111.57H111.32H111.07H110.819H110.568H110.316H110.064H109.811H109.558H109.305H109.051H108.796H108.542H108.287H108.031H107.775H107.518H107.262H107.004H106.747H106.489H106.23H105.971H105.712H105.452H105.192H104.931H104.67H104.409H104.147H103.885H103.622H103.359H103.096H102.832H102.568H102.303H102.039H101.773H101.507H101.241H100.975H100.708H100.441H100.173H99.905H99.6366H99.3678H99.0987H98.8292H98.5592H98.289H98.0183H97.7473H97.4759H97.2042H96.9321H96.6596H96.3868H96.1136H95.8401H95.5662H95.2919H95.0173H94.7423H94.467H94.1913H93.9153H93.639H93.3623H93.0852H92.8078H92.5301H92.252H91.9736H91.6948H91.4158H91.1363H90.8566H90.5765H90.2961H90.0154H89.7343H89.4529H89.1712H88.8892H88.6068H88.3241H88.0411H87.7578H87.4742H87.1902H86.906H86.6214H86.3366H86.0514H85.7659H85.4801H85.194H84.9076H84.6209H84.3339H84.0466H83.759H83.4711H83.1829H82.8944H82.6057H82.3166H82.0273H81.7376H81.4477H81.1575H80.867H80.5762H80.2852H79.9939H79.7023H79.4104H79.1182H78.8258H78.5331H78.2402H77.9469H77.6534H77.3597H77.0656H76.7713H76.4768H76.182H75.8869H75.5916H75.296H75.0002H74.7041H74.4077H74.1111H73.8143H73.5172H73.2199H72.9223H72.6245H72.3264H72.0281H71.7296H71.4308H71.1318H70.8326H70.5331H70.2334H69.9335H69.6333H69.3329H69.0323H68.7314H68.4306H68.13H67.8296H67.5294H67.2295H66.9298H66.6303H66.3311H66.0321H65.7333H65.4348H65.1365H64.8384H64.5406H64.243H63.9457H63.6486H63.3518H63.0552H62.7588H62.4627H62.1669H61.8713H61.576H61.2809H60.9861H60.6916H60.3973H60.1032H59.8095H59.516H59.2227H58.9298H58.6371H58.3447H58.0525H57.7606H57.469H57.1777H56.8867H56.5959H56.3054H56.0152H55.7253H55.4356H55.1463H54.8572H54.5685H54.28H53.9918H53.7039H53.4163H53.129H52.842H52.5553H52.2689H51.9828H51.697H51.4115H51.1263H50.8415H50.5569H50.2726H49.9887H49.7051H49.4218H49.1388H48.8561H48.5737H48.2917H48.01H47.7286H47.4475H47.1668H46.8864H46.6063H46.3265H46.0471H45.768H45.4893H45.2109H44.9328H44.6551H44.3777H44.1006H43.8239H43.5476H43.2716H42.9959H42.7206H42.4456H42.171H41.8967H41.6228H41.3493H41.0761H40.8033H40.5308H40.2587H39.9869H39.7156H39.4446H39.1739H38.9036H38.6337H38.3642H38.0951H37.8263H37.5579H37.2898H37.0222H36.7549H36.488H36.2215H35.9554H35.6897H35.4244H35.1594H34.8949H34.6307H34.3669H34.1035H33.8406H33.578H33.3158H33.054H32.7926H32.5317H32.2711H32.0109H31.7512H31.4918H31.2329H30.9743H30.7162H30.4585H30.2013H29.9444H29.688H29.4319H29.1763H28.9212H28.6664H28.4121H28.1582H27.9047H27.6517H27.3991H27.1469H26.8952H26.6439H26.3931H26.1426H25.8927H25.6431H25.394H25.1454H24.8972H24.6494H24.4021H24.1553H23.9089H23.6629H23.4174H23.1724H22.9278H22.6837H22.4401H22.1969H21.9541H21.7119H21.4701H21.2287H20.9879H20.7475H20.5076H20.2681H20.0291H19.7907H19.5526H19.3151H19.0781H18.8415H18.6054H18.3698H18.1347H17.9H17.6659H17.4323H17.1991H16.9664H16.7343H16.5026H16.2714H16.0407H15.8106H15.5809H15.3517H15.1231H14.8949H14.6673H14.4401H14.2135H13.9874H13.7618H13.5367H13.3121H13.0881H12.8645H12.6415H12.419H12.1971H11.9756H11.7547H11.5343H11.3145H11.0951H10.8763H10.6581H10.4403H10.2231H10.0065H9.79038H9.57481H9.35978H9.14529H8.93135H8.71795H8.50511H8.29281H8.08106H7.86987H7.65922H7.44913H7.2396H7.03063H6.82222H6.61436H6.40707H6.20035H5.99418H5.78859H5.58356H5.3791H5.17521H4.9719H4.76915H4.56699H4.36539H4.16438H3.96395H3.76409H3.56482H3.36613H3.16803H2.97052H2.77359H2.57725H2.3815H2.18634H1.99178H1.79781H1.60444H1.41166H1.21949H1.02791H0.836941H0.646572H0.456808H0.267651H0.0791016H-0.108839H-0.296169H-0.482887H-0.668993H-0.854483H-1.03935H-1.22361H-1.40725H-1.59026H-1.77266H-1.95443H-2.13557H-2.31609H-2.49598H-2.67524H-2.85388H-3.03188H-3.20924H-3.38597H-3.56207H-3.73752H-3.91234H-4.08652H-4.26006H-4.43295H-4.60519H-4.77679H-4.94775H-5.11805H-5.28771H-5.45671H-5.62506H-5.79275H-5.95979H-6.12616H-6.29188H-6.45694H-6.62134H-6.78508H-6.94814H-7.11055H-7.27228H-7.43335H-7.59374H-7.75347H-7.91252H-8.07089H-8.22859H-8.38562H-8.54196H-8.69762H-8.8526H-9.0069H-9.16051H-9.31343H-9.46567H-9.61722H-9.76808H-9.91824H-10.0677H-10.2165H-10.3646H-10.512H-10.6586H-10.8046H-10.9499H-11.0945H-11.2384H-11.3815H-11.524H-11.6658H-11.8068H-11.9471H-12.0867H-12.2256H-12.3638H-12.5013H-12.638H-12.7741H-12.9094H-13.044H-13.1778H-13.3109H-13.4434H-13.575H-13.706H-13.8362H-13.9657H-14.0944H-14.2224H-14.3497H-14.4762H-14.602H-14.7271H-14.8514H-14.9749H-15.0977H-15.2198H-15.3411H-15.4617H-15.5815H-15.7006H-15.8189H-15.9364H-16.0532H-16.1693H-16.2845H-16.3991H-16.5128H-16.6258H-16.738H-16.8495H-16.9602H-17.0701H-17.1792H-17.2876H-17.3952H-17.502H-17.608H-17.7133H-17.8178H-17.9215H-18.0244H-18.1265H-18.2279H-18.3284H-18.4282H-18.5272H-18.6253H-18.7227H-18.8193H-18.9151H-19.0101H-19.1043H-19.1977H-19.2903H-19.3821H-19.4731H-19.5633H-19.6527H-19.7413H-19.829H-19.916H-20.0021H-20.0875H-20.172H-20.2557H-20.3385H-20.4206H-20.5018H-20.5822H-20.6618H-20.7405H-20.8185H-20.8956H-20.9718H-21.0473H-21.1219H-21.1956H-21.2686H-21.3407H-21.4119H-21.4823H-21.5519H-21.6206H-21.6885Z" stroke="url(#paint3_linear)" stroke-width="5"/>
</g>
</g>
</g>
</g>
<defs>
<linearGradient id="paint0_linear" x1="1127.28" y1="4.68066" x2="1127.28" y2="97.6807" gradientUnits="userSpaceOnUse">
<stop stop-color="#C7CCFF"/>
<stop offset="1" stop-color="#99A3FF"/>
</linearGradient>
<linearGradient id="paint1_linear" x1="773.761" y1="3.3499" x2="774.358" y2="96.348" gradientUnits="userSpaceOnUse">
<stop stop-color="#C7CCFF"/>
<stop offset="1" stop-color="#99A3FF"/>
</linearGradient>
<linearGradient id="paint2_linear" x1="423" y1="2" x2="423" y2="95" gradientUnits="userSpaceOnUse">
<stop stop-color="#C7CCFF"/>
<stop offset="1" stop-color="#99A3FF"/>
</linearGradient>
<linearGradient id="paint3_linear" x1="68.7314" y1="0.680664" x2="68.7314" y2="93.6807" gradientUnits="userSpaceOnUse">
<stop stop-color="#C7CCFF"/>
<stop offset="1" stop-color="#99A3FF"/>
</linearGradient>
</defs>
</svg>
