<svg width="14" height="14" viewBox="0 0 14 14" fill="none" xmlns="http://www.w3.org/2000/svg">
<path fill-rule="evenodd" clip-rule="evenodd" d="M0.32901 0.358063C0.539948 0.147387 0.825884 0.0290525 1.12401 0.0290525C1.42214 0.0290525 1.70807 0.147387 1.91901 0.358063L6.74901 5.18806L11.579 0.358063C11.682 0.247532 11.8062 0.158879 11.9442 0.0973912C12.0822 0.0359033 12.2312 0.00284026 12.3822 0.000175082C12.5333 -0.00249009 12.6833 0.0252969 12.8234 0.0818784C12.9635 0.13846 13.0907 0.222677 13.1976 0.329505C13.3044 0.436333 13.3886 0.563584 13.4452 0.703666C13.5018 0.843748 13.5296 0.993792 13.5269 1.14485C13.5242 1.2959 13.4912 1.44487 13.4297 1.58287C13.3682 1.72087 13.2795 1.84507 13.169 1.94806L8.33901 6.77806L13.169 11.6081C13.2795 11.7111 13.3682 11.8353 13.4297 11.9733C13.4912 12.1113 13.5242 12.2602 13.5269 12.4113C13.5296 12.5623 13.5018 12.7124 13.4452 12.8525C13.3886 12.9925 13.3044 13.1198 13.1976 13.2266C13.0907 13.3334 12.9635 13.4177 12.8234 13.4742C12.6833 13.5308 12.5333 13.5586 12.3822 13.5559C12.2312 13.5533 12.0822 13.5202 11.9442 13.4587C11.8062 13.3972 11.682 13.3086 11.579 13.1981L6.74901 8.36806L1.91901 13.1981C1.70575 13.3968 1.42368 13.505 1.13223 13.4998C0.840775 13.4947 0.562697 13.3766 0.356578 13.1705C0.150458 12.9644 0.03239 12.6863 0.0272477 12.3948C0.0221053 12.1034 0.13029 11.8213 0.32901 11.6081L5.15901 6.77806L0.32901 1.94806C0.118334 1.73712 0 1.45119 0 1.15306C0 0.854936 0.118334 0.569001 0.32901 0.358063V0.358063Z" fill="#882D17"/>
</svg>
